%TF.GenerationSoftware,KiCad,Pcbnew,8.0.3*%
%TF.CreationDate,2024-08-23T15:24:12-04:00*%
%TF.ProjectId,vine_robot_arduino_shield,76696e65-5f72-46f6-926f-745f61726475,rev?*%
%TF.SameCoordinates,Original*%
%TF.FileFunction,Legend,Top*%
%TF.FilePolarity,Positive*%
%FSLAX46Y46*%
G04 Gerber Fmt 4.6, Leading zero omitted, Abs format (unit mm)*
G04 Created by KiCad (PCBNEW 8.0.3) date 2024-08-23 15:24:12*
%MOMM*%
%LPD*%
G01*
G04 APERTURE LIST*
G04 Aperture macros list*
%AMRoundRect*
0 Rectangle with rounded corners*
0 $1 Rounding radius*
0 $2 $3 $4 $5 $6 $7 $8 $9 X,Y pos of 4 corners*
0 Add a 4 corners polygon primitive as box body*
4,1,4,$2,$3,$4,$5,$6,$7,$8,$9,$2,$3,0*
0 Add four circle primitives for the rounded corners*
1,1,$1+$1,$2,$3*
1,1,$1+$1,$4,$5*
1,1,$1+$1,$6,$7*
1,1,$1+$1,$8,$9*
0 Add four rect primitives between the rounded corners*
20,1,$1+$1,$2,$3,$4,$5,0*
20,1,$1+$1,$4,$5,$6,$7,0*
20,1,$1+$1,$6,$7,$8,$9,0*
20,1,$1+$1,$8,$9,$2,$3,0*%
G04 Aperture macros list end*
%ADD10C,0.000000*%
%ADD11C,0.085000*%
%ADD12C,0.100000*%
%ADD13C,0.125000*%
%ADD14C,0.098425*%
%ADD15C,0.150000*%
%ADD16C,0.127000*%
%ADD17C,0.152400*%
%ADD18C,0.120000*%
%ADD19R,0.660400X0.508000*%
%ADD20RoundRect,0.102000X-0.485000X-0.865000X0.485000X-0.865000X0.485000X0.865000X-0.485000X0.865000X0*%
%ADD21RoundRect,0.102000X0.485000X0.865000X-0.485000X0.865000X-0.485000X-0.865000X0.485000X-0.865000X0*%
%ADD22C,1.625600*%
%ADD23C,1.371600*%
%ADD24RoundRect,0.250000X0.750000X-0.600000X0.750000X0.600000X-0.750000X0.600000X-0.750000X-0.600000X0*%
%ADD25O,2.000000X1.700000*%
%ADD26RoundRect,0.102000X0.300000X-0.270000X0.300000X0.270000X-0.300000X0.270000X-0.300000X-0.270000X0*%
%ADD27RoundRect,0.250000X-0.725000X0.600000X-0.725000X-0.600000X0.725000X-0.600000X0.725000X0.600000X0*%
%ADD28O,1.950000X1.700000*%
%ADD29R,1.700000X1.700000*%
%ADD30O,1.700000X1.700000*%
%ADD31C,3.200000*%
%ADD32RoundRect,0.102000X-0.300000X0.270000X-0.300000X-0.270000X0.300000X-0.270000X0.300000X0.270000X0*%
%ADD33RoundRect,0.250000X-0.600000X-0.725000X0.600000X-0.725000X0.600000X0.725000X-0.600000X0.725000X0*%
%ADD34O,1.700000X1.950000*%
%ADD35RoundRect,0.250000X-0.600000X-0.750000X0.600000X-0.750000X0.600000X0.750000X-0.600000X0.750000X0*%
%ADD36O,1.700000X2.000000*%
%ADD37R,1.295400X1.295400*%
%ADD38C,1.295400*%
%ADD39RoundRect,0.102000X-0.270000X-0.300000X0.270000X-0.300000X0.270000X0.300000X-0.270000X0.300000X0*%
%TA.AperFunction,Profile*%
%ADD40C,0.150000*%
%TD*%
G04 APERTURE END LIST*
D10*
G36*
X127984875Y-75655256D02*
G01*
X127984875Y-84809838D01*
X128699249Y-85960775D01*
X125907896Y-85960775D01*
X126648729Y-84809838D01*
X126648729Y-75655256D01*
X120589771Y-75655256D01*
X119174250Y-76647443D01*
X120364875Y-74438172D01*
X128699249Y-74438172D01*
X127984875Y-75655256D01*
G37*
G36*
X118830291Y-75602339D02*
G01*
X118830291Y-84743692D01*
X124889250Y-84743692D01*
X126304770Y-83751505D01*
X125114146Y-85960775D01*
X116793000Y-85960775D01*
X117494146Y-84743692D01*
X117494146Y-75602339D01*
X116793000Y-74438172D01*
X119571125Y-74438172D01*
X118830291Y-75602339D01*
G37*
G36*
X124914468Y-76512879D02*
G01*
X124961357Y-76516318D01*
X125005883Y-76522568D01*
X125048006Y-76531569D01*
X125087687Y-76543264D01*
X125124887Y-76557595D01*
X125159569Y-76574503D01*
X125191692Y-76593930D01*
X125221219Y-76615818D01*
X125248110Y-76640109D01*
X125272327Y-76666745D01*
X125293831Y-76695668D01*
X125312583Y-76726819D01*
X125324636Y-76747603D01*
X125335837Y-76770305D01*
X125345953Y-76794983D01*
X125354751Y-76821697D01*
X125361999Y-76850503D01*
X125367463Y-76881461D01*
X125369455Y-76897764D01*
X125370913Y-76914627D01*
X125371809Y-76932057D01*
X125372114Y-76950061D01*
X125371799Y-76968647D01*
X125370835Y-76987821D01*
X125369193Y-77007590D01*
X125366843Y-77027963D01*
X125363757Y-77048947D01*
X125359906Y-77070548D01*
X125355260Y-77092774D01*
X125349790Y-77115632D01*
X125343468Y-77139130D01*
X125336264Y-77163275D01*
X125328149Y-77188074D01*
X125319094Y-77213533D01*
X125309071Y-77239662D01*
X125298049Y-77266466D01*
X125286000Y-77293954D01*
X125272896Y-77322131D01*
X125233207Y-77414736D01*
X125202821Y-77475094D01*
X125186466Y-77506823D01*
X125168715Y-77540413D01*
X125149104Y-77576483D01*
X125127167Y-77615654D01*
X125102440Y-77658545D01*
X125074458Y-77705778D01*
X125094095Y-77735336D01*
X125112492Y-77763655D01*
X125120837Y-77776962D01*
X125128408Y-77789493D01*
X125135049Y-77801095D01*
X125140604Y-77811611D01*
X125180626Y-77885461D01*
X125216452Y-77960581D01*
X125248228Y-78036844D01*
X125276099Y-78114124D01*
X125300211Y-78192296D01*
X125320709Y-78271234D01*
X125351444Y-78430901D01*
X125369466Y-78592119D01*
X125375938Y-78753879D01*
X125372024Y-78915174D01*
X125358885Y-79074996D01*
X125337685Y-79232338D01*
X125309586Y-79386191D01*
X125275750Y-79535549D01*
X125237342Y-79679404D01*
X125195523Y-79816746D01*
X125151456Y-79946571D01*
X125061229Y-80179631D01*
X125131302Y-80365666D01*
X125192693Y-80546740D01*
X125245403Y-80722854D01*
X125289432Y-80894006D01*
X125324778Y-81060197D01*
X125351444Y-81221428D01*
X125369427Y-81377698D01*
X125378729Y-81529006D01*
X125379349Y-81675354D01*
X125371287Y-81816741D01*
X125354544Y-81953166D01*
X125329119Y-82084631D01*
X125295013Y-82211135D01*
X125252225Y-82332678D01*
X125200755Y-82449260D01*
X125140604Y-82560882D01*
X125135792Y-82568320D01*
X125131251Y-82575738D01*
X125122827Y-82590440D01*
X125107531Y-82618759D01*
X125100038Y-82632065D01*
X125096194Y-82638438D01*
X125092234Y-82644597D01*
X125088120Y-82650524D01*
X125083811Y-82656198D01*
X125079270Y-82661602D01*
X125074458Y-82666715D01*
X125102440Y-82713947D01*
X125127168Y-82756838D01*
X125149104Y-82796009D01*
X125168715Y-82832079D01*
X125202822Y-82897398D01*
X125233207Y-82957756D01*
X125272896Y-83050360D01*
X125300229Y-83103845D01*
X125322892Y-83155159D01*
X125341176Y-83204304D01*
X125355371Y-83251278D01*
X125365768Y-83296081D01*
X125372657Y-83338714D01*
X125376329Y-83379177D01*
X125377075Y-83417469D01*
X125375186Y-83453591D01*
X125370951Y-83487542D01*
X125364663Y-83519323D01*
X125356611Y-83548934D01*
X125347086Y-83576374D01*
X125336380Y-83601644D01*
X125324782Y-83624744D01*
X125312583Y-83645673D01*
X125306111Y-83659121D01*
X125299105Y-83672179D01*
X125291570Y-83684845D01*
X125283515Y-83697116D01*
X125274946Y-83708990D01*
X125265870Y-83720464D01*
X125256296Y-83731536D01*
X125246230Y-83742204D01*
X125235680Y-83752465D01*
X125224652Y-83762316D01*
X125213154Y-83771755D01*
X125201194Y-83780780D01*
X125188778Y-83789389D01*
X125175915Y-83797578D01*
X125162610Y-83805346D01*
X125148872Y-83812691D01*
X125134707Y-83819608D01*
X125120123Y-83826097D01*
X125105128Y-83832155D01*
X125089728Y-83837779D01*
X125073931Y-83842968D01*
X125057743Y-83847718D01*
X125041173Y-83852026D01*
X125024228Y-83855892D01*
X125006914Y-83859312D01*
X124989240Y-83862284D01*
X124971212Y-83864805D01*
X124952837Y-83866873D01*
X124934123Y-83868486D01*
X124915078Y-83869641D01*
X124895708Y-83870336D01*
X124876020Y-83870568D01*
X124836126Y-83870362D01*
X124815791Y-83869871D01*
X124794992Y-83868915D01*
X124773572Y-83867338D01*
X124751377Y-83864987D01*
X124739940Y-83863472D01*
X124728252Y-83861706D01*
X124716292Y-83859668D01*
X124704041Y-83857339D01*
X124664041Y-83851758D01*
X124623400Y-83844937D01*
X124582101Y-83836875D01*
X124540124Y-83827573D01*
X124497449Y-83817031D01*
X124454057Y-83805249D01*
X124409928Y-83792226D01*
X124365044Y-83777964D01*
X124319385Y-83762461D01*
X124272931Y-83745717D01*
X124177562Y-83708510D01*
X124078782Y-83666342D01*
X123976437Y-83619213D01*
X123906367Y-83648048D01*
X123835076Y-83675024D01*
X123762584Y-83700138D01*
X123688909Y-83723393D01*
X123614072Y-83744787D01*
X123538092Y-83764321D01*
X123460987Y-83781994D01*
X123382778Y-83797807D01*
X123303484Y-83811760D01*
X123223124Y-83823852D01*
X123141717Y-83834084D01*
X123059284Y-83842456D01*
X122975843Y-83848967D01*
X122891413Y-83853618D01*
X122806014Y-83856409D01*
X122719666Y-83857339D01*
X122633318Y-83856405D01*
X122547920Y-83853592D01*
X122463490Y-83848880D01*
X122380049Y-83842249D01*
X122297615Y-83833681D01*
X122216209Y-83823155D01*
X122135848Y-83810653D01*
X122056554Y-83796154D01*
X121978345Y-83779640D01*
X121901241Y-83761092D01*
X121825260Y-83740489D01*
X121750423Y-83717813D01*
X121676749Y-83693044D01*
X121604256Y-83666162D01*
X121532966Y-83637149D01*
X121462896Y-83605985D01*
X121360008Y-83653114D01*
X121259911Y-83695281D01*
X121162914Y-83732488D01*
X121069328Y-83764734D01*
X120979463Y-83792020D01*
X120893628Y-83814344D01*
X120812134Y-83831707D01*
X120735291Y-83844109D01*
X120679332Y-83850311D01*
X120625582Y-83854032D01*
X120574080Y-83855272D01*
X120524865Y-83854032D01*
X120477975Y-83850311D01*
X120433449Y-83844110D01*
X120391327Y-83835428D01*
X120351646Y-83824266D01*
X120314445Y-83810624D01*
X120279764Y-83794501D01*
X120247640Y-83775897D01*
X120218114Y-83754813D01*
X120191223Y-83731249D01*
X120167006Y-83705204D01*
X120145502Y-83676679D01*
X120126750Y-83645673D01*
X120114696Y-83624889D01*
X120103495Y-83602187D01*
X120093380Y-83577508D01*
X120084582Y-83550795D01*
X120077334Y-83521988D01*
X120071869Y-83491031D01*
X120069878Y-83474727D01*
X120068420Y-83457864D01*
X120067810Y-83446007D01*
X120372697Y-83446007D01*
X120373556Y-83462117D01*
X120375811Y-83476987D01*
X120379499Y-83490540D01*
X120384660Y-83502697D01*
X120387805Y-83508228D01*
X120391333Y-83513381D01*
X120395206Y-83518226D01*
X120399375Y-83522844D01*
X120403825Y-83527239D01*
X120408541Y-83531416D01*
X120413509Y-83535380D01*
X120418715Y-83539135D01*
X120424143Y-83542687D01*
X120429780Y-83546040D01*
X120441621Y-83552171D01*
X120454120Y-83557564D01*
X120467162Y-83562260D01*
X120480630Y-83566298D01*
X120494408Y-83569715D01*
X120508380Y-83572550D01*
X120522430Y-83574844D01*
X120536440Y-83576633D01*
X120550296Y-83577957D01*
X120563881Y-83578855D01*
X120577078Y-83579365D01*
X120589771Y-83579527D01*
X120619536Y-83579320D01*
X120634419Y-83578829D01*
X120649302Y-83577873D01*
X120656743Y-83577172D01*
X120664184Y-83576297D01*
X120671626Y-83575228D01*
X120679067Y-83573946D01*
X120686509Y-83572431D01*
X120693950Y-83570664D01*
X120701392Y-83568626D01*
X120708833Y-83566297D01*
X120731464Y-83563358D01*
X120754696Y-83559528D01*
X120778509Y-83554845D01*
X120802884Y-83549348D01*
X120827802Y-83543076D01*
X120853243Y-83536067D01*
X120905617Y-83519996D01*
X120959851Y-83501444D01*
X121015791Y-83480721D01*
X121073281Y-83458139D01*
X121132166Y-83434006D01*
X121111546Y-83420776D01*
X121846541Y-83420776D01*
X121952203Y-83451007D01*
X122060559Y-83477207D01*
X122171202Y-83499376D01*
X122283724Y-83517514D01*
X122397719Y-83531622D01*
X122512780Y-83541699D01*
X122628499Y-83547745D01*
X122744471Y-83549761D01*
X122860287Y-83547745D01*
X122975542Y-83541699D01*
X123089828Y-83531622D01*
X123202737Y-83517514D01*
X123313864Y-83499376D01*
X123422801Y-83477207D01*
X123529142Y-83451007D01*
X123587260Y-83434005D01*
X124333625Y-83434005D01*
X124392536Y-83457569D01*
X124450207Y-83478653D01*
X124506638Y-83497257D01*
X124561828Y-83513380D01*
X124615778Y-83527023D01*
X124668488Y-83538185D01*
X124719958Y-83546867D01*
X124770187Y-83553068D01*
X124889250Y-83566297D01*
X124911341Y-83565625D01*
X124923811Y-83564727D01*
X124936998Y-83563403D01*
X124950728Y-83561613D01*
X124964826Y-83559320D01*
X124979118Y-83556485D01*
X124993429Y-83553068D01*
X125007585Y-83549030D01*
X125021412Y-83544334D01*
X125034734Y-83538941D01*
X125047379Y-83532810D01*
X125059171Y-83525905D01*
X125064692Y-83522150D01*
X125069936Y-83518186D01*
X125074878Y-83514009D01*
X125079499Y-83509614D01*
X125083776Y-83504996D01*
X125087686Y-83500151D01*
X125091214Y-83494998D01*
X125094359Y-83489467D01*
X125097126Y-83483567D01*
X125099520Y-83477310D01*
X125101546Y-83470703D01*
X125103209Y-83463758D01*
X125104513Y-83456483D01*
X125105463Y-83448888D01*
X125106065Y-83440983D01*
X125106322Y-83432778D01*
X125105825Y-83415505D01*
X125104010Y-83397147D01*
X125100916Y-83377781D01*
X125096581Y-83357485D01*
X125091046Y-83336336D01*
X125084347Y-83314413D01*
X125076524Y-83291791D01*
X125067617Y-83268550D01*
X125057662Y-83244766D01*
X125046701Y-83220517D01*
X125034770Y-83195880D01*
X124981853Y-83090046D01*
X124972474Y-83070745D01*
X124963870Y-83052219D01*
X124947127Y-83015632D01*
X124938057Y-82996641D01*
X124927903Y-82976565D01*
X124916198Y-82954938D01*
X124909619Y-82943398D01*
X124902478Y-82931296D01*
X124870074Y-82970370D01*
X124837340Y-83008243D01*
X124804258Y-83044952D01*
X124770807Y-83080538D01*
X124736969Y-83115038D01*
X124702723Y-83148493D01*
X124668052Y-83180939D01*
X124632934Y-83212416D01*
X124597352Y-83242963D01*
X124561285Y-83272619D01*
X124524714Y-83301422D01*
X124487620Y-83329412D01*
X124449984Y-83356626D01*
X124411785Y-83383103D01*
X124373005Y-83408883D01*
X124333625Y-83434005D01*
X123587260Y-83434005D01*
X123632479Y-83420776D01*
X123527110Y-83363803D01*
X123419572Y-83302334D01*
X123310172Y-83236834D01*
X123199223Y-83167768D01*
X123087034Y-83095602D01*
X122973914Y-83020800D01*
X122860174Y-82943829D01*
X122746124Y-82865151D01*
X122632048Y-82943829D01*
X122518128Y-83020800D01*
X122404517Y-83095602D01*
X122291372Y-83167768D01*
X122178846Y-83236834D01*
X122067096Y-83302334D01*
X121956276Y-83363803D01*
X121846541Y-83420776D01*
X121111546Y-83420776D01*
X121092789Y-83408742D01*
X121054031Y-83382587D01*
X121015894Y-83355580D01*
X120978377Y-83327758D01*
X120941480Y-83299162D01*
X120905203Y-83269829D01*
X120869547Y-83239799D01*
X120834510Y-83209109D01*
X120800093Y-83177800D01*
X120766297Y-83145909D01*
X120733121Y-83113476D01*
X120700565Y-83080539D01*
X120637313Y-83013308D01*
X120576541Y-82944527D01*
X120497166Y-83103276D01*
X120492180Y-83117590D01*
X120487038Y-83130975D01*
X120484360Y-83137415D01*
X120481586Y-83143739D01*
X120478695Y-83149985D01*
X120475669Y-83156193D01*
X120472487Y-83162400D01*
X120469132Y-83168647D01*
X120461819Y-83181411D01*
X120453577Y-83194795D01*
X120444249Y-83209109D01*
X120432319Y-83233746D01*
X120421357Y-83257995D01*
X120411403Y-83281779D01*
X120402495Y-83305021D01*
X120394672Y-83327642D01*
X120387974Y-83349566D01*
X120382438Y-83370715D01*
X120378104Y-83391010D01*
X120375010Y-83410376D01*
X120373194Y-83428734D01*
X120372697Y-83446007D01*
X120067810Y-83446007D01*
X120067524Y-83440434D01*
X120067219Y-83422430D01*
X120067533Y-83403845D01*
X120068498Y-83384671D01*
X120070140Y-83364901D01*
X120072490Y-83344528D01*
X120075576Y-83323545D01*
X120079427Y-83301944D01*
X120084073Y-83279717D01*
X120089543Y-83256859D01*
X120095865Y-83233361D01*
X120103069Y-83209217D01*
X120111184Y-83184418D01*
X120120238Y-83158958D01*
X120130262Y-83132829D01*
X120141284Y-83106025D01*
X120153332Y-83078538D01*
X120166437Y-83050360D01*
X120206125Y-82957756D01*
X120236510Y-82897398D01*
X120252866Y-82865669D01*
X120270617Y-82832079D01*
X120290228Y-82796009D01*
X120312165Y-82756838D01*
X120336892Y-82713947D01*
X120357037Y-82679943D01*
X120748520Y-82679943D01*
X120786199Y-82726455D01*
X120824846Y-82771746D01*
X120864502Y-82815836D01*
X120905203Y-82858744D01*
X120946990Y-82900488D01*
X120989901Y-82941090D01*
X121033974Y-82980568D01*
X121079249Y-83018941D01*
X121125765Y-83056228D01*
X121173559Y-83092450D01*
X121222671Y-83127626D01*
X121273139Y-83161774D01*
X121325003Y-83194915D01*
X121378301Y-83227067D01*
X121433071Y-83258251D01*
X121489353Y-83288485D01*
X121609605Y-83227119D01*
X121732026Y-83162188D01*
X121856308Y-83093845D01*
X121982140Y-83022248D01*
X122109212Y-82947549D01*
X122237215Y-82869905D01*
X122365837Y-82789471D01*
X122494770Y-82706401D01*
X122478446Y-82693171D01*
X122997479Y-82693171D01*
X123130752Y-82781151D01*
X123262475Y-82866185D01*
X123392338Y-82947808D01*
X123520031Y-83025555D01*
X123645243Y-83098961D01*
X123767664Y-83167562D01*
X123886985Y-83230891D01*
X124002895Y-83288485D01*
X124056997Y-83260431D01*
X124110149Y-83230865D01*
X124162333Y-83199827D01*
X124213528Y-83167355D01*
X124263716Y-83133487D01*
X124312876Y-83098263D01*
X124360990Y-83061722D01*
X124408038Y-83023901D01*
X124454001Y-82984840D01*
X124498860Y-82944578D01*
X124542594Y-82903153D01*
X124585185Y-82860604D01*
X124626613Y-82816970D01*
X124666860Y-82772289D01*
X124705904Y-82726600D01*
X124743728Y-82679943D01*
X124717683Y-82639609D01*
X124689158Y-82597881D01*
X124658152Y-82554602D01*
X124624666Y-82509617D01*
X124588699Y-82462773D01*
X124550251Y-82413912D01*
X124509324Y-82362882D01*
X124465915Y-82309525D01*
X124419407Y-82249297D01*
X124369177Y-82187363D01*
X124315227Y-82123258D01*
X124257556Y-82056518D01*
X123989666Y-81753900D01*
X123860216Y-81890843D01*
X123730457Y-82023445D01*
X123601318Y-82151086D01*
X123473729Y-82273146D01*
X123348620Y-82389004D01*
X123226922Y-82498041D01*
X123109565Y-82599637D01*
X122997479Y-82693171D01*
X122478446Y-82693171D01*
X122374002Y-82608526D01*
X122250444Y-82503829D01*
X122125025Y-82392931D01*
X121998676Y-82276453D01*
X121872327Y-82155013D01*
X121746909Y-82029233D01*
X121623350Y-81899732D01*
X121502582Y-81767130D01*
X121430597Y-81845265D01*
X121363263Y-81920919D01*
X121300269Y-81994093D01*
X121241307Y-82064786D01*
X121186064Y-82132999D01*
X121134233Y-82198732D01*
X121039562Y-82322755D01*
X120991787Y-82371744D01*
X120947578Y-82419493D01*
X120906779Y-82466002D01*
X120869236Y-82511271D01*
X120834794Y-82555299D01*
X120803297Y-82598087D01*
X120774591Y-82639635D01*
X120748520Y-82679943D01*
X120357037Y-82679943D01*
X120364875Y-82666715D01*
X120345238Y-82636949D01*
X120335807Y-82622067D01*
X120326841Y-82607184D01*
X120318495Y-82592301D01*
X120314603Y-82584860D01*
X120310924Y-82577418D01*
X120307478Y-82569977D01*
X120304284Y-82562535D01*
X120301361Y-82555094D01*
X120298729Y-82547652D01*
X120240909Y-82434436D01*
X120191500Y-82317847D01*
X120150540Y-82197616D01*
X120118068Y-82073469D01*
X120094122Y-81945137D01*
X120078742Y-81812348D01*
X120071966Y-81674831D01*
X120072642Y-81623263D01*
X120384718Y-81623263D01*
X120385339Y-81734687D01*
X120392160Y-81842139D01*
X120405182Y-81945831D01*
X120424406Y-82045977D01*
X120449831Y-82142789D01*
X120481457Y-82236482D01*
X120519284Y-82327267D01*
X120563312Y-82415359D01*
X120588143Y-82384405D01*
X120613128Y-82351281D01*
X120638424Y-82316296D01*
X120664185Y-82279761D01*
X120717722Y-82203280D01*
X120745808Y-82163954D01*
X120774979Y-82124318D01*
X120996567Y-81856427D01*
X121128446Y-81700157D01*
X121200741Y-81616442D01*
X121277687Y-81529005D01*
X121687792Y-81529005D01*
X121817887Y-81670909D01*
X121949688Y-81808471D01*
X122082418Y-81941073D01*
X122215304Y-82068094D01*
X122347570Y-82188913D01*
X122478441Y-82302911D01*
X122607141Y-82409468D01*
X122732896Y-82507963D01*
X122790851Y-82464122D01*
X122850511Y-82417064D01*
X122974328Y-82314073D01*
X123103106Y-82200540D01*
X123235604Y-82078016D01*
X123370583Y-81948049D01*
X123506802Y-81812192D01*
X123643021Y-81671994D01*
X123778000Y-81529005D01*
X124188103Y-81529005D01*
X124339205Y-81700157D01*
X124474184Y-81856427D01*
X124535240Y-81928981D01*
X124591800Y-81997814D01*
X124643709Y-82062926D01*
X124690812Y-82124318D01*
X124720551Y-82163411D01*
X124750136Y-82201419D01*
X124808220Y-82274799D01*
X124863824Y-82345699D01*
X124890308Y-82380607D01*
X124915707Y-82415359D01*
X124962067Y-82329011D01*
X125001955Y-82238652D01*
X125035409Y-82144300D01*
X125062468Y-82045976D01*
X125083171Y-81943699D01*
X125097556Y-81837488D01*
X125105663Y-81727362D01*
X125107530Y-81613341D01*
X125103196Y-81495445D01*
X125092699Y-81373692D01*
X125076079Y-81248102D01*
X125053373Y-81118695D01*
X125024622Y-80985489D01*
X124989863Y-80848504D01*
X124949135Y-80707760D01*
X124902478Y-80563276D01*
X124834343Y-80674225D01*
X124759231Y-80788585D01*
X124677609Y-80906046D01*
X124589940Y-81026297D01*
X124496689Y-81149028D01*
X124398323Y-81273930D01*
X124295306Y-81400693D01*
X124188103Y-81529005D01*
X123778000Y-81529005D01*
X123576255Y-81309690D01*
X123374510Y-81094096D01*
X123010709Y-80708796D01*
X122971641Y-80669161D01*
X122933814Y-80629835D01*
X122861880Y-80553354D01*
X122794908Y-80481834D01*
X122763282Y-80448709D01*
X122732896Y-80417755D01*
X122706877Y-80448140D01*
X122678532Y-80479766D01*
X122648018Y-80512632D01*
X122615487Y-80546739D01*
X122581097Y-80582085D01*
X122545001Y-80618672D01*
X122468313Y-80695567D01*
X122097895Y-81092443D01*
X121895324Y-81309484D01*
X121687792Y-81529005D01*
X121277687Y-81529005D01*
X121179786Y-81405034D01*
X121084831Y-81281372D01*
X120993286Y-81158330D01*
X120905617Y-81036219D01*
X120822289Y-80915348D01*
X120743766Y-80796027D01*
X120670515Y-80678566D01*
X120602999Y-80563276D01*
X120554010Y-80714155D01*
X120511222Y-80859356D01*
X120474635Y-80999093D01*
X120444250Y-81133577D01*
X120420065Y-81263024D01*
X120402082Y-81387645D01*
X120390299Y-81507654D01*
X120384718Y-81623263D01*
X120072642Y-81623263D01*
X120073833Y-81532314D01*
X120084381Y-81384526D01*
X120103650Y-81231195D01*
X120131678Y-81072051D01*
X120168504Y-80906822D01*
X120214167Y-80735237D01*
X120268705Y-80557024D01*
X120332157Y-80371913D01*
X120399581Y-80192859D01*
X120748520Y-80192859D01*
X120781696Y-80259990D01*
X120816733Y-80327450D01*
X120892388Y-80463437D01*
X120975483Y-80600974D01*
X121066020Y-80740216D01*
X121163999Y-80881319D01*
X121269419Y-81024436D01*
X121382280Y-81169725D01*
X121502583Y-81317338D01*
X121702467Y-81100091D01*
X121901111Y-80889044D01*
X122092314Y-80690400D01*
X122269874Y-80510360D01*
X122309484Y-80466926D01*
X122348629Y-80425817D01*
X122386844Y-80386879D01*
X122423663Y-80349956D01*
X122458622Y-80314893D01*
X122491256Y-80281536D01*
X122521099Y-80249730D01*
X122534829Y-80234359D01*
X122547687Y-80219318D01*
X122534701Y-80206089D01*
X122944562Y-80206089D01*
X122974974Y-80237069D01*
X123006781Y-80270374D01*
X123075200Y-80343341D01*
X123151061Y-80423750D01*
X123192170Y-80466357D01*
X123235604Y-80510360D01*
X123321723Y-80597667D01*
X123411097Y-80690400D01*
X123597753Y-80889044D01*
X123791849Y-81100091D01*
X123989667Y-81317338D01*
X124119762Y-81160526D01*
X124241641Y-81007900D01*
X124354528Y-80859924D01*
X124457648Y-80717065D01*
X124550226Y-80579787D01*
X124592320Y-80513386D01*
X124631487Y-80448554D01*
X124667632Y-80385351D01*
X124700656Y-80323833D01*
X124730464Y-80264060D01*
X124756958Y-80206088D01*
X124728433Y-80145792D01*
X124697427Y-80084003D01*
X124663940Y-80020780D01*
X124627974Y-79956181D01*
X124589526Y-79890264D01*
X124548599Y-79823088D01*
X124505191Y-79754711D01*
X124459302Y-79685190D01*
X124410933Y-79614584D01*
X124360083Y-79542950D01*
X124306753Y-79470348D01*
X124250942Y-79396835D01*
X124192651Y-79322470D01*
X124131880Y-79247309D01*
X124068628Y-79171413D01*
X124002896Y-79094838D01*
X123803011Y-79312293D01*
X123604367Y-79524786D01*
X123235604Y-79915047D01*
X123191627Y-79950342D01*
X123149201Y-79986567D01*
X123108635Y-80023412D01*
X123070239Y-80060568D01*
X123034324Y-80097723D01*
X123017394Y-80116204D01*
X123001200Y-80134569D01*
X122985781Y-80152778D01*
X122971176Y-80170794D01*
X122957423Y-80188577D01*
X122944562Y-80206089D01*
X122534701Y-80206089D01*
X122517275Y-80188338D01*
X122485468Y-80155032D01*
X122417049Y-80082065D01*
X122341188Y-80001657D01*
X122300079Y-79959049D01*
X122256645Y-79915047D01*
X122079085Y-79729425D01*
X121887882Y-79531401D01*
X121689238Y-79323455D01*
X121589063Y-79216537D01*
X121489353Y-79108068D01*
X121364193Y-79251806D01*
X121247095Y-79394769D01*
X121138677Y-79536181D01*
X121087918Y-79606064D01*
X121039562Y-79675268D01*
X120993686Y-79743698D01*
X120950368Y-79811255D01*
X120909686Y-79877843D01*
X120871717Y-79943365D01*
X120836538Y-80007725D01*
X120804227Y-80070825D01*
X120774862Y-80132569D01*
X120748520Y-80192859D01*
X120399581Y-80192859D01*
X120404562Y-80179631D01*
X120326763Y-79994862D01*
X120284075Y-79881365D01*
X120241058Y-79755678D01*
X120199358Y-79619217D01*
X120160623Y-79473396D01*
X120126501Y-79319629D01*
X120098638Y-79159332D01*
X120078681Y-78993919D01*
X120068278Y-78824805D01*
X120068836Y-78704940D01*
X120375184Y-78704940D01*
X120375685Y-78829190D01*
X120383065Y-78952626D01*
X120396491Y-79074511D01*
X120415130Y-79194110D01*
X120438149Y-79310685D01*
X120464713Y-79423501D01*
X120493991Y-79531822D01*
X120525149Y-79634910D01*
X120589771Y-79822443D01*
X120627730Y-79755642D01*
X120667104Y-79689247D01*
X120749554Y-79558067D01*
X120836034Y-79429677D01*
X120925460Y-79304852D01*
X121016747Y-79184369D01*
X121108808Y-79069001D01*
X121200560Y-78959525D01*
X121290916Y-78856714D01*
X121687792Y-78856714D01*
X121895324Y-79081816D01*
X122097896Y-79298237D01*
X122468313Y-79690151D01*
X122507380Y-79729787D01*
X122545207Y-79769113D01*
X122617140Y-79845594D01*
X122684113Y-79917114D01*
X122715739Y-79950239D01*
X122746125Y-79981193D01*
X122776510Y-79950239D01*
X122808136Y-79917114D01*
X122875109Y-79845594D01*
X122947043Y-79769113D01*
X122984870Y-79729787D01*
X123023937Y-79690151D01*
X123394354Y-79298237D01*
X123596925Y-79081816D01*
X123804458Y-78856714D01*
X124201333Y-78856714D01*
X124291689Y-78960067D01*
X124383441Y-79070861D01*
X124475502Y-79187856D01*
X124566789Y-79309813D01*
X124656215Y-79435490D01*
X124742695Y-79563647D01*
X124825145Y-79693045D01*
X124902479Y-79822443D01*
X124936634Y-79720837D01*
X124969219Y-79614833D01*
X124999595Y-79504991D01*
X125027123Y-79391875D01*
X125051162Y-79276045D01*
X125071073Y-79158065D01*
X125086218Y-79038495D01*
X125095956Y-78917899D01*
X125099647Y-78796837D01*
X125096653Y-78675872D01*
X125086334Y-78555566D01*
X125068050Y-78436481D01*
X125041162Y-78319179D01*
X125005031Y-78204221D01*
X124983299Y-78147798D01*
X124959016Y-78092171D01*
X124932103Y-78037411D01*
X124902479Y-77983589D01*
X124801607Y-78124149D01*
X124748070Y-78197530D01*
X124690813Y-78274631D01*
X124470877Y-78540867D01*
X124342926Y-78693209D01*
X124273912Y-78773644D01*
X124201333Y-78856714D01*
X123804458Y-78856714D01*
X123673794Y-78718634D01*
X123540495Y-78583035D01*
X123405645Y-78451157D01*
X123270331Y-78324240D01*
X123135636Y-78203524D01*
X123002647Y-78090249D01*
X122872448Y-77985656D01*
X122746125Y-77890984D01*
X122683515Y-77937002D01*
X122619802Y-77985656D01*
X122489603Y-78090249D01*
X122356614Y-78203524D01*
X122221919Y-78324240D01*
X122086604Y-78451157D01*
X121951755Y-78583035D01*
X121818455Y-78718634D01*
X121687792Y-78856714D01*
X121290916Y-78856714D01*
X121141675Y-78687629D01*
X121009797Y-78535907D01*
X120892801Y-78399068D01*
X120788208Y-78274631D01*
X120758468Y-78235538D01*
X120728884Y-78197529D01*
X120670799Y-78124149D01*
X120615195Y-78053249D01*
X120588711Y-78018341D01*
X120563312Y-77983589D01*
X120532637Y-78039927D01*
X120505037Y-78097258D01*
X120480406Y-78155490D01*
X120458641Y-78214531D01*
X120423291Y-78334672D01*
X120398154Y-78456945D01*
X120382396Y-78580613D01*
X120375184Y-78704940D01*
X120068836Y-78704940D01*
X120069075Y-78653404D01*
X120074189Y-78567288D01*
X120082721Y-78481131D01*
X120094877Y-78395109D01*
X120110862Y-78309400D01*
X120130883Y-78224180D01*
X120155146Y-78139627D01*
X120183856Y-78055916D01*
X120217219Y-77973225D01*
X120255441Y-77891731D01*
X120298729Y-77811611D01*
X120303541Y-77804173D01*
X120308082Y-77796754D01*
X120316505Y-77782052D01*
X120331802Y-77753733D01*
X120339295Y-77740427D01*
X120343138Y-77734054D01*
X120344308Y-77732234D01*
X120748520Y-77732234D01*
X120774565Y-77772568D01*
X120803091Y-77814297D01*
X120834096Y-77857576D01*
X120867583Y-77902560D01*
X120903550Y-77949405D01*
X120941997Y-77998265D01*
X120982924Y-78049295D01*
X121026333Y-78102651D01*
X121122864Y-78219026D01*
X121233039Y-78349044D01*
X121355615Y-78491465D01*
X121489353Y-78645047D01*
X121614488Y-78512445D01*
X121741328Y-78382944D01*
X121869098Y-78257163D01*
X121997023Y-78135724D01*
X122124328Y-78019245D01*
X122250237Y-77908348D01*
X122373976Y-77803651D01*
X122494770Y-77705776D01*
X122997479Y-77705776D01*
X123118272Y-77803626D01*
X123242012Y-77908141D01*
X123367921Y-78018548D01*
X123495226Y-78134071D01*
X123623151Y-78253934D01*
X123750921Y-78377363D01*
X123877761Y-78503583D01*
X124002895Y-78631818D01*
X124136634Y-78478235D01*
X124259210Y-78335815D01*
X124369384Y-78205797D01*
X124465915Y-78089422D01*
X124542810Y-77985036D01*
X124614744Y-77889331D01*
X124743728Y-77719006D01*
X124705904Y-77670168D01*
X124666860Y-77622862D01*
X124626613Y-77577067D01*
X124585185Y-77532764D01*
X124542594Y-77489934D01*
X124498859Y-77448557D01*
X124454001Y-77408614D01*
X124408038Y-77370086D01*
X124360990Y-77332954D01*
X124312876Y-77297197D01*
X124263715Y-77262797D01*
X124213528Y-77229733D01*
X124162333Y-77197988D01*
X124110149Y-77167541D01*
X124056997Y-77138373D01*
X124002895Y-77110464D01*
X123882644Y-77168057D01*
X123760223Y-77231387D01*
X123635941Y-77299987D01*
X123510109Y-77373393D01*
X123383037Y-77451141D01*
X123255034Y-77532764D01*
X123126411Y-77617797D01*
X122997479Y-77705776D01*
X122494770Y-77705776D01*
X122369635Y-77622164D01*
X122242796Y-77540411D01*
X122115026Y-77461140D01*
X121987101Y-77384969D01*
X121859796Y-77312518D01*
X121733886Y-77244409D01*
X121610147Y-77181260D01*
X121489353Y-77123693D01*
X121435252Y-77151601D01*
X121382099Y-77180769D01*
X121329916Y-77211217D01*
X121278720Y-77242962D01*
X121228533Y-77276025D01*
X121179373Y-77310426D01*
X121131259Y-77346183D01*
X121084210Y-77383315D01*
X121038247Y-77421843D01*
X120993389Y-77461786D01*
X120949655Y-77503163D01*
X120907064Y-77545993D01*
X120865635Y-77590296D01*
X120825389Y-77636090D01*
X120786344Y-77683397D01*
X120748520Y-77732234D01*
X120344308Y-77732234D01*
X120347098Y-77727895D01*
X120351213Y-77721968D01*
X120355521Y-77716294D01*
X120360062Y-77710890D01*
X120364875Y-77705778D01*
X120336892Y-77658545D01*
X120312165Y-77615654D01*
X120290228Y-77576483D01*
X120270617Y-77540413D01*
X120236510Y-77475094D01*
X120206125Y-77414736D01*
X120166437Y-77322131D01*
X120139104Y-77266466D01*
X120116440Y-77213533D01*
X120098156Y-77163275D01*
X120083961Y-77115632D01*
X120073565Y-77070548D01*
X120066676Y-77027963D01*
X120063003Y-76987821D01*
X120062576Y-76966170D01*
X120372697Y-76966170D01*
X120373195Y-76983443D01*
X120375010Y-77001801D01*
X120378104Y-77021167D01*
X120382438Y-77041463D01*
X120387974Y-77062612D01*
X120394672Y-77084535D01*
X120402495Y-77107157D01*
X120411403Y-77130398D01*
X120421357Y-77154182D01*
X120432319Y-77178431D01*
X120444249Y-77203068D01*
X120497166Y-77308901D01*
X120506546Y-77328202D01*
X120515150Y-77346728D01*
X120531893Y-77383315D01*
X120540962Y-77402306D01*
X120551116Y-77422383D01*
X120562821Y-77444009D01*
X120569400Y-77455549D01*
X120576541Y-77467651D01*
X120606765Y-77430906D01*
X120637881Y-77395072D01*
X120669850Y-77360129D01*
X120702632Y-77326058D01*
X120736189Y-77292840D01*
X120770483Y-77260455D01*
X120805474Y-77228884D01*
X120841125Y-77198107D01*
X120877395Y-77168106D01*
X120914247Y-77138860D01*
X120951641Y-77110351D01*
X120989539Y-77082558D01*
X121027903Y-77055464D01*
X121066692Y-77029047D01*
X121105870Y-77003290D01*
X121145396Y-76978172D01*
X121846541Y-76978172D01*
X122068956Y-77101989D01*
X122182334Y-77167230D01*
X122296333Y-77234487D01*
X122410331Y-77303604D01*
X122523709Y-77374427D01*
X122635847Y-77446800D01*
X122746124Y-77520568D01*
X122860174Y-77442433D01*
X122973914Y-77366779D01*
X123087033Y-77293605D01*
X123199223Y-77222912D01*
X123310172Y-77154699D01*
X123419571Y-77088966D01*
X123632479Y-76964943D01*
X124333625Y-76964943D01*
X124373005Y-76990206D01*
X124411785Y-77016361D01*
X124449984Y-77043369D01*
X124487620Y-77071190D01*
X124524714Y-77099786D01*
X124561285Y-77129119D01*
X124597352Y-77159150D01*
X124632934Y-77189839D01*
X124702724Y-77253039D01*
X124770807Y-77318410D01*
X124837341Y-77385641D01*
X124902479Y-77454422D01*
X124981854Y-77295672D01*
X124986841Y-77285156D01*
X124991982Y-77273555D01*
X125003351Y-77247717D01*
X125009888Y-77233790D01*
X125013438Y-77226642D01*
X125017201Y-77219398D01*
X125021196Y-77212076D01*
X125025443Y-77204696D01*
X125029962Y-77197277D01*
X125034771Y-77189839D01*
X125046702Y-77165202D01*
X125057663Y-77140953D01*
X125067618Y-77117169D01*
X125076525Y-77093928D01*
X125084348Y-77071306D01*
X125091046Y-77049382D01*
X125096582Y-77028234D01*
X125100916Y-77007938D01*
X125104011Y-76988572D01*
X125105826Y-76970214D01*
X125106323Y-76952941D01*
X125105464Y-76936831D01*
X125103209Y-76921961D01*
X125099521Y-76908409D01*
X125094360Y-76896252D01*
X125091215Y-76890721D01*
X125087687Y-76885568D01*
X125083814Y-76880723D01*
X125079645Y-76876105D01*
X125075195Y-76871710D01*
X125070479Y-76867533D01*
X125065511Y-76863570D01*
X125060305Y-76859814D01*
X125054877Y-76856262D01*
X125049240Y-76852909D01*
X125037400Y-76846779D01*
X125024901Y-76841385D01*
X125011859Y-76836689D01*
X124998391Y-76832652D01*
X124984613Y-76829235D01*
X124970641Y-76826399D01*
X124956591Y-76824106D01*
X124942581Y-76822316D01*
X124928725Y-76820992D01*
X124915140Y-76820094D01*
X124901944Y-76819584D01*
X124889251Y-76819422D01*
X124859485Y-76819629D01*
X124844602Y-76820120D01*
X124829719Y-76821076D01*
X124822277Y-76821777D01*
X124814836Y-76822652D01*
X124807395Y-76823721D01*
X124799953Y-76825004D01*
X124792512Y-76826518D01*
X124785070Y-76828285D01*
X124777629Y-76830323D01*
X124770187Y-76832652D01*
X124719958Y-76843219D01*
X124668488Y-76855182D01*
X124615778Y-76868696D01*
X124561828Y-76883914D01*
X124506637Y-76900993D01*
X124450206Y-76920088D01*
X124392536Y-76941353D01*
X124333625Y-76964943D01*
X123632479Y-76964943D01*
X123529142Y-76936896D01*
X123422801Y-76912336D01*
X123313864Y-76891343D01*
X123202737Y-76873993D01*
X123089828Y-76860363D01*
X122975542Y-76850531D01*
X122860287Y-76844576D01*
X122744471Y-76842573D01*
X122628499Y-76844601D01*
X122512780Y-76850738D01*
X122397719Y-76861060D01*
X122283724Y-76875646D01*
X122171202Y-76894572D01*
X122060559Y-76917917D01*
X121952203Y-76945758D01*
X121846541Y-76978172D01*
X121145396Y-76978172D01*
X121082143Y-76954582D01*
X121021372Y-76933317D01*
X120963081Y-76914223D01*
X120907270Y-76897143D01*
X120853940Y-76881925D01*
X120803091Y-76868411D01*
X120754722Y-76856448D01*
X120708833Y-76845880D01*
X120701392Y-76843552D01*
X120693950Y-76841514D01*
X120686509Y-76839747D01*
X120679067Y-76838232D01*
X120671626Y-76836950D01*
X120664184Y-76835881D01*
X120656743Y-76835006D01*
X120649302Y-76834305D01*
X120634419Y-76833349D01*
X120619536Y-76832858D01*
X120589771Y-76832651D01*
X120567679Y-76833323D01*
X120555209Y-76834221D01*
X120542022Y-76835545D01*
X120528292Y-76837335D01*
X120514194Y-76839628D01*
X120499902Y-76842463D01*
X120485591Y-76845881D01*
X120471435Y-76849918D01*
X120457608Y-76854614D01*
X120444285Y-76860008D01*
X120431641Y-76866138D01*
X120419849Y-76873043D01*
X120414327Y-76876798D01*
X120409084Y-76880762D01*
X120404141Y-76884939D01*
X120399520Y-76889334D01*
X120395244Y-76893952D01*
X120391333Y-76898797D01*
X120387805Y-76903950D01*
X120384660Y-76909481D01*
X120381893Y-76915381D01*
X120379499Y-76921638D01*
X120377473Y-76928245D01*
X120375811Y-76935190D01*
X120374507Y-76942465D01*
X120373556Y-76950060D01*
X120372955Y-76957965D01*
X120372697Y-76966170D01*
X120062576Y-76966170D01*
X120062257Y-76950061D01*
X120064147Y-76914627D01*
X120068381Y-76881461D01*
X120074670Y-76850503D01*
X120082721Y-76821697D01*
X120092246Y-76794983D01*
X120102953Y-76770305D01*
X120114551Y-76747603D01*
X120126750Y-76726819D01*
X120136981Y-76711006D01*
X120147827Y-76695813D01*
X120159284Y-76681240D01*
X120171346Y-76667288D01*
X120184010Y-76653955D01*
X120197269Y-76641243D01*
X120211119Y-76629151D01*
X120225555Y-76617678D01*
X120240573Y-76606826D01*
X120256167Y-76596594D01*
X120272333Y-76586983D01*
X120289065Y-76577991D01*
X120306360Y-76569619D01*
X120324212Y-76561868D01*
X120342616Y-76554737D01*
X120361567Y-76548225D01*
X120381061Y-76542334D01*
X120401093Y-76537063D01*
X120421658Y-76532412D01*
X120442751Y-76528382D01*
X120464367Y-76524971D01*
X120486501Y-76522180D01*
X120509149Y-76520010D01*
X120532306Y-76518460D01*
X120580126Y-76517219D01*
X120629923Y-76518460D01*
X120681658Y-76522180D01*
X120735291Y-76528382D01*
X120772967Y-76534111D01*
X120811592Y-76541352D01*
X120851185Y-76550066D01*
X120891768Y-76560214D01*
X120933357Y-76571757D01*
X120975974Y-76584657D01*
X121064367Y-76614371D01*
X121157100Y-76649046D01*
X121254329Y-76688372D01*
X121356210Y-76732038D01*
X121462896Y-76779736D01*
X121532966Y-76750751D01*
X121604256Y-76723357D01*
X121676749Y-76697589D01*
X121750423Y-76673489D01*
X121825260Y-76651094D01*
X121901241Y-76630442D01*
X121978345Y-76611574D01*
X122056554Y-76594527D01*
X122135848Y-76579341D01*
X122216209Y-76566054D01*
X122297615Y-76554704D01*
X122380049Y-76545331D01*
X122463490Y-76537974D01*
X122547920Y-76532671D01*
X122633318Y-76529460D01*
X122719666Y-76528382D01*
X122806014Y-76529312D01*
X122891413Y-76532102D01*
X122975843Y-76536753D01*
X123059284Y-76543264D01*
X123141717Y-76551636D01*
X123223124Y-76561868D01*
X123303484Y-76573960D01*
X123382778Y-76587913D01*
X123460987Y-76603726D01*
X123538092Y-76621399D01*
X123614072Y-76640933D01*
X123688909Y-76662327D01*
X123762584Y-76685581D01*
X123835076Y-76710696D01*
X123906367Y-76737671D01*
X123976437Y-76766506D01*
X124078782Y-76723718D01*
X124177562Y-76684651D01*
X124272931Y-76649304D01*
X124365044Y-76617678D01*
X124454057Y-76589773D01*
X124540124Y-76565589D01*
X124623400Y-76545125D01*
X124704041Y-76528382D01*
X124760000Y-76520000D01*
X124813750Y-76514661D01*
X124865252Y-76512307D01*
X124914468Y-76512879D01*
G37*
D11*
X117937164Y-86600538D02*
X117889545Y-86576728D01*
X117889545Y-86576728D02*
X117818116Y-86576728D01*
X117818116Y-86576728D02*
X117746688Y-86600538D01*
X117746688Y-86600538D02*
X117699069Y-86648157D01*
X117699069Y-86648157D02*
X117675259Y-86695776D01*
X117675259Y-86695776D02*
X117651450Y-86791014D01*
X117651450Y-86791014D02*
X117651450Y-86862442D01*
X117651450Y-86862442D02*
X117675259Y-86957680D01*
X117675259Y-86957680D02*
X117699069Y-87005299D01*
X117699069Y-87005299D02*
X117746688Y-87052919D01*
X117746688Y-87052919D02*
X117818116Y-87076728D01*
X117818116Y-87076728D02*
X117865735Y-87076728D01*
X117865735Y-87076728D02*
X117937164Y-87052919D01*
X117937164Y-87052919D02*
X117960973Y-87029109D01*
X117960973Y-87029109D02*
X117960973Y-86862442D01*
X117960973Y-86862442D02*
X117865735Y-86862442D01*
X118175259Y-87076728D02*
X118175259Y-86743395D01*
X118175259Y-86838633D02*
X118199069Y-86791014D01*
X118199069Y-86791014D02*
X118222878Y-86767204D01*
X118222878Y-86767204D02*
X118270497Y-86743395D01*
X118270497Y-86743395D02*
X118318116Y-86743395D01*
X118556212Y-87076728D02*
X118508593Y-87052919D01*
X118508593Y-87052919D02*
X118484783Y-87029109D01*
X118484783Y-87029109D02*
X118460974Y-86981490D01*
X118460974Y-86981490D02*
X118460974Y-86838633D01*
X118460974Y-86838633D02*
X118484783Y-86791014D01*
X118484783Y-86791014D02*
X118508593Y-86767204D01*
X118508593Y-86767204D02*
X118556212Y-86743395D01*
X118556212Y-86743395D02*
X118627640Y-86743395D01*
X118627640Y-86743395D02*
X118675259Y-86767204D01*
X118675259Y-86767204D02*
X118699069Y-86791014D01*
X118699069Y-86791014D02*
X118722878Y-86838633D01*
X118722878Y-86838633D02*
X118722878Y-86981490D01*
X118722878Y-86981490D02*
X118699069Y-87029109D01*
X118699069Y-87029109D02*
X118675259Y-87052919D01*
X118675259Y-87052919D02*
X118627640Y-87076728D01*
X118627640Y-87076728D02*
X118556212Y-87076728D01*
X119151450Y-86743395D02*
X119151450Y-87076728D01*
X118937164Y-86743395D02*
X118937164Y-87005299D01*
X118937164Y-87005299D02*
X118960974Y-87052919D01*
X118960974Y-87052919D02*
X119008593Y-87076728D01*
X119008593Y-87076728D02*
X119080021Y-87076728D01*
X119080021Y-87076728D02*
X119127640Y-87052919D01*
X119127640Y-87052919D02*
X119151450Y-87029109D01*
X119389545Y-86743395D02*
X119389545Y-87243395D01*
X119389545Y-86767204D02*
X119437164Y-86743395D01*
X119437164Y-86743395D02*
X119532402Y-86743395D01*
X119532402Y-86743395D02*
X119580021Y-86767204D01*
X119580021Y-86767204D02*
X119603831Y-86791014D01*
X119603831Y-86791014D02*
X119627640Y-86838633D01*
X119627640Y-86838633D02*
X119627640Y-86981490D01*
X119627640Y-86981490D02*
X119603831Y-87029109D01*
X119603831Y-87029109D02*
X119580021Y-87052919D01*
X119580021Y-87052919D02*
X119532402Y-87076728D01*
X119532402Y-87076728D02*
X119437164Y-87076728D01*
X119437164Y-87076728D02*
X119389545Y-87052919D01*
X120199069Y-86624347D02*
X120222878Y-86600538D01*
X120222878Y-86600538D02*
X120270497Y-86576728D01*
X120270497Y-86576728D02*
X120389545Y-86576728D01*
X120389545Y-86576728D02*
X120437164Y-86600538D01*
X120437164Y-86600538D02*
X120460973Y-86624347D01*
X120460973Y-86624347D02*
X120484783Y-86671966D01*
X120484783Y-86671966D02*
X120484783Y-86719585D01*
X120484783Y-86719585D02*
X120460973Y-86791014D01*
X120460973Y-86791014D02*
X120175259Y-87076728D01*
X120175259Y-87076728D02*
X120484783Y-87076728D01*
X120960973Y-87076728D02*
X120675259Y-87076728D01*
X120818116Y-87076728D02*
X120818116Y-86576728D01*
X120818116Y-86576728D02*
X120770497Y-86648157D01*
X120770497Y-86648157D02*
X120722878Y-86695776D01*
X120722878Y-86695776D02*
X120675259Y-86719585D01*
X121556210Y-87076728D02*
X121556210Y-86576728D01*
X121556210Y-86814823D02*
X121841924Y-86814823D01*
X121841924Y-87076728D02*
X121841924Y-86576728D01*
X122056211Y-86933871D02*
X122294306Y-86933871D01*
X122008592Y-87076728D02*
X122175258Y-86576728D01*
X122175258Y-86576728D02*
X122341925Y-87076728D01*
X122508591Y-87076728D02*
X122508591Y-86576728D01*
X122508591Y-86576728D02*
X122627639Y-86576728D01*
X122627639Y-86576728D02*
X122699067Y-86600538D01*
X122699067Y-86600538D02*
X122746686Y-86648157D01*
X122746686Y-86648157D02*
X122770496Y-86695776D01*
X122770496Y-86695776D02*
X122794305Y-86791014D01*
X122794305Y-86791014D02*
X122794305Y-86862442D01*
X122794305Y-86862442D02*
X122770496Y-86957680D01*
X122770496Y-86957680D02*
X122746686Y-87005299D01*
X122746686Y-87005299D02*
X122699067Y-87052919D01*
X122699067Y-87052919D02*
X122627639Y-87076728D01*
X122627639Y-87076728D02*
X122508591Y-87076728D01*
X123294305Y-87076728D02*
X123127639Y-86838633D01*
X123008591Y-87076728D02*
X123008591Y-86576728D01*
X123008591Y-86576728D02*
X123199067Y-86576728D01*
X123199067Y-86576728D02*
X123246686Y-86600538D01*
X123246686Y-86600538D02*
X123270496Y-86624347D01*
X123270496Y-86624347D02*
X123294305Y-86671966D01*
X123294305Y-86671966D02*
X123294305Y-86743395D01*
X123294305Y-86743395D02*
X123270496Y-86791014D01*
X123270496Y-86791014D02*
X123246686Y-86814823D01*
X123246686Y-86814823D02*
X123199067Y-86838633D01*
X123199067Y-86838633D02*
X123008591Y-86838633D01*
X123865734Y-87052919D02*
X123937162Y-87076728D01*
X123937162Y-87076728D02*
X124056210Y-87076728D01*
X124056210Y-87076728D02*
X124103829Y-87052919D01*
X124103829Y-87052919D02*
X124127638Y-87029109D01*
X124127638Y-87029109D02*
X124151448Y-86981490D01*
X124151448Y-86981490D02*
X124151448Y-86933871D01*
X124151448Y-86933871D02*
X124127638Y-86886252D01*
X124127638Y-86886252D02*
X124103829Y-86862442D01*
X124103829Y-86862442D02*
X124056210Y-86838633D01*
X124056210Y-86838633D02*
X123960972Y-86814823D01*
X123960972Y-86814823D02*
X123913353Y-86791014D01*
X123913353Y-86791014D02*
X123889543Y-86767204D01*
X123889543Y-86767204D02*
X123865734Y-86719585D01*
X123865734Y-86719585D02*
X123865734Y-86671966D01*
X123865734Y-86671966D02*
X123889543Y-86624347D01*
X123889543Y-86624347D02*
X123913353Y-86600538D01*
X123913353Y-86600538D02*
X123960972Y-86576728D01*
X123960972Y-86576728D02*
X124080019Y-86576728D01*
X124080019Y-86576728D02*
X124151448Y-86600538D01*
X124318114Y-86743395D02*
X124437162Y-87076728D01*
X124556209Y-86743395D02*
X124437162Y-87076728D01*
X124437162Y-87076728D02*
X124389543Y-87195776D01*
X124389543Y-87195776D02*
X124365733Y-87219585D01*
X124365733Y-87219585D02*
X124318114Y-87243395D01*
X124722876Y-87052919D02*
X124770495Y-87076728D01*
X124770495Y-87076728D02*
X124865733Y-87076728D01*
X124865733Y-87076728D02*
X124913352Y-87052919D01*
X124913352Y-87052919D02*
X124937161Y-87005299D01*
X124937161Y-87005299D02*
X124937161Y-86981490D01*
X124937161Y-86981490D02*
X124913352Y-86933871D01*
X124913352Y-86933871D02*
X124865733Y-86910061D01*
X124865733Y-86910061D02*
X124794304Y-86910061D01*
X124794304Y-86910061D02*
X124746685Y-86886252D01*
X124746685Y-86886252D02*
X124722876Y-86838633D01*
X124722876Y-86838633D02*
X124722876Y-86814823D01*
X124722876Y-86814823D02*
X124746685Y-86767204D01*
X124746685Y-86767204D02*
X124794304Y-86743395D01*
X124794304Y-86743395D02*
X124865733Y-86743395D01*
X124865733Y-86743395D02*
X124913352Y-86767204D01*
X125080019Y-86743395D02*
X125270495Y-86743395D01*
X125151447Y-86576728D02*
X125151447Y-87005299D01*
X125151447Y-87005299D02*
X125175257Y-87052919D01*
X125175257Y-87052919D02*
X125222876Y-87076728D01*
X125222876Y-87076728D02*
X125270495Y-87076728D01*
X125627637Y-87052919D02*
X125580018Y-87076728D01*
X125580018Y-87076728D02*
X125484780Y-87076728D01*
X125484780Y-87076728D02*
X125437161Y-87052919D01*
X125437161Y-87052919D02*
X125413352Y-87005299D01*
X125413352Y-87005299D02*
X125413352Y-86814823D01*
X125413352Y-86814823D02*
X125437161Y-86767204D01*
X125437161Y-86767204D02*
X125484780Y-86743395D01*
X125484780Y-86743395D02*
X125580018Y-86743395D01*
X125580018Y-86743395D02*
X125627637Y-86767204D01*
X125627637Y-86767204D02*
X125651447Y-86814823D01*
X125651447Y-86814823D02*
X125651447Y-86862442D01*
X125651447Y-86862442D02*
X125413352Y-86910061D01*
X125865732Y-87076728D02*
X125865732Y-86743395D01*
X125865732Y-86791014D02*
X125889542Y-86767204D01*
X125889542Y-86767204D02*
X125937161Y-86743395D01*
X125937161Y-86743395D02*
X126008589Y-86743395D01*
X126008589Y-86743395D02*
X126056208Y-86767204D01*
X126056208Y-86767204D02*
X126080018Y-86814823D01*
X126080018Y-86814823D02*
X126080018Y-87076728D01*
X126080018Y-86814823D02*
X126103827Y-86767204D01*
X126103827Y-86767204D02*
X126151446Y-86743395D01*
X126151446Y-86743395D02*
X126222875Y-86743395D01*
X126222875Y-86743395D02*
X126270494Y-86767204D01*
X126270494Y-86767204D02*
X126294304Y-86814823D01*
X126294304Y-86814823D02*
X126294304Y-87076728D01*
X126508590Y-87052919D02*
X126556209Y-87076728D01*
X126556209Y-87076728D02*
X126651447Y-87076728D01*
X126651447Y-87076728D02*
X126699066Y-87052919D01*
X126699066Y-87052919D02*
X126722875Y-87005299D01*
X126722875Y-87005299D02*
X126722875Y-86981490D01*
X126722875Y-86981490D02*
X126699066Y-86933871D01*
X126699066Y-86933871D02*
X126651447Y-86910061D01*
X126651447Y-86910061D02*
X126580018Y-86910061D01*
X126580018Y-86910061D02*
X126532399Y-86886252D01*
X126532399Y-86886252D02*
X126508590Y-86838633D01*
X126508590Y-86838633D02*
X126508590Y-86814823D01*
X126508590Y-86814823D02*
X126532399Y-86767204D01*
X126532399Y-86767204D02*
X126580018Y-86743395D01*
X126580018Y-86743395D02*
X126651447Y-86743395D01*
X126651447Y-86743395D02*
X126699066Y-86767204D01*
D12*
X116404175Y-87688186D02*
X116537508Y-88088186D01*
X116537508Y-88088186D02*
X116670841Y-87688186D01*
X116804175Y-88088186D02*
X116804175Y-87821519D01*
X116804175Y-87688186D02*
X116785127Y-87707234D01*
X116785127Y-87707234D02*
X116804175Y-87726281D01*
X116804175Y-87726281D02*
X116823222Y-87707234D01*
X116823222Y-87707234D02*
X116804175Y-87688186D01*
X116804175Y-87688186D02*
X116804175Y-87726281D01*
X116994651Y-87821519D02*
X116994651Y-88088186D01*
X116994651Y-87859615D02*
X117013698Y-87840567D01*
X117013698Y-87840567D02*
X117051793Y-87821519D01*
X117051793Y-87821519D02*
X117108936Y-87821519D01*
X117108936Y-87821519D02*
X117147032Y-87840567D01*
X117147032Y-87840567D02*
X117166079Y-87878662D01*
X117166079Y-87878662D02*
X117166079Y-88088186D01*
X117508937Y-88069139D02*
X117470841Y-88088186D01*
X117470841Y-88088186D02*
X117394651Y-88088186D01*
X117394651Y-88088186D02*
X117356556Y-88069139D01*
X117356556Y-88069139D02*
X117337508Y-88031043D01*
X117337508Y-88031043D02*
X117337508Y-87878662D01*
X117337508Y-87878662D02*
X117356556Y-87840567D01*
X117356556Y-87840567D02*
X117394651Y-87821519D01*
X117394651Y-87821519D02*
X117470841Y-87821519D01*
X117470841Y-87821519D02*
X117508937Y-87840567D01*
X117508937Y-87840567D02*
X117527984Y-87878662D01*
X117527984Y-87878662D02*
X117527984Y-87916758D01*
X117527984Y-87916758D02*
X117337508Y-87954853D01*
X118232746Y-88088186D02*
X118099413Y-87897710D01*
X118004175Y-88088186D02*
X118004175Y-87688186D01*
X118004175Y-87688186D02*
X118156556Y-87688186D01*
X118156556Y-87688186D02*
X118194651Y-87707234D01*
X118194651Y-87707234D02*
X118213698Y-87726281D01*
X118213698Y-87726281D02*
X118232746Y-87764377D01*
X118232746Y-87764377D02*
X118232746Y-87821519D01*
X118232746Y-87821519D02*
X118213698Y-87859615D01*
X118213698Y-87859615D02*
X118194651Y-87878662D01*
X118194651Y-87878662D02*
X118156556Y-87897710D01*
X118156556Y-87897710D02*
X118004175Y-87897710D01*
X118461317Y-88088186D02*
X118423222Y-88069139D01*
X118423222Y-88069139D02*
X118404175Y-88050091D01*
X118404175Y-88050091D02*
X118385127Y-88011996D01*
X118385127Y-88011996D02*
X118385127Y-87897710D01*
X118385127Y-87897710D02*
X118404175Y-87859615D01*
X118404175Y-87859615D02*
X118423222Y-87840567D01*
X118423222Y-87840567D02*
X118461317Y-87821519D01*
X118461317Y-87821519D02*
X118518460Y-87821519D01*
X118518460Y-87821519D02*
X118556556Y-87840567D01*
X118556556Y-87840567D02*
X118575603Y-87859615D01*
X118575603Y-87859615D02*
X118594651Y-87897710D01*
X118594651Y-87897710D02*
X118594651Y-88011996D01*
X118594651Y-88011996D02*
X118575603Y-88050091D01*
X118575603Y-88050091D02*
X118556556Y-88069139D01*
X118556556Y-88069139D02*
X118518460Y-88088186D01*
X118518460Y-88088186D02*
X118461317Y-88088186D01*
X118766080Y-88088186D02*
X118766080Y-87688186D01*
X118766080Y-87840567D02*
X118804175Y-87821519D01*
X118804175Y-87821519D02*
X118880365Y-87821519D01*
X118880365Y-87821519D02*
X118918461Y-87840567D01*
X118918461Y-87840567D02*
X118937508Y-87859615D01*
X118937508Y-87859615D02*
X118956556Y-87897710D01*
X118956556Y-87897710D02*
X118956556Y-88011996D01*
X118956556Y-88011996D02*
X118937508Y-88050091D01*
X118937508Y-88050091D02*
X118918461Y-88069139D01*
X118918461Y-88069139D02*
X118880365Y-88088186D01*
X118880365Y-88088186D02*
X118804175Y-88088186D01*
X118804175Y-88088186D02*
X118766080Y-88069139D01*
X119185127Y-88088186D02*
X119147032Y-88069139D01*
X119147032Y-88069139D02*
X119127985Y-88050091D01*
X119127985Y-88050091D02*
X119108937Y-88011996D01*
X119108937Y-88011996D02*
X119108937Y-87897710D01*
X119108937Y-87897710D02*
X119127985Y-87859615D01*
X119127985Y-87859615D02*
X119147032Y-87840567D01*
X119147032Y-87840567D02*
X119185127Y-87821519D01*
X119185127Y-87821519D02*
X119242270Y-87821519D01*
X119242270Y-87821519D02*
X119280366Y-87840567D01*
X119280366Y-87840567D02*
X119299413Y-87859615D01*
X119299413Y-87859615D02*
X119318461Y-87897710D01*
X119318461Y-87897710D02*
X119318461Y-88011996D01*
X119318461Y-88011996D02*
X119299413Y-88050091D01*
X119299413Y-88050091D02*
X119280366Y-88069139D01*
X119280366Y-88069139D02*
X119242270Y-88088186D01*
X119242270Y-88088186D02*
X119185127Y-88088186D01*
X119432747Y-87821519D02*
X119585128Y-87821519D01*
X119489890Y-87688186D02*
X119489890Y-88031043D01*
X119489890Y-88031043D02*
X119508937Y-88069139D01*
X119508937Y-88069139D02*
X119547032Y-88088186D01*
X119547032Y-88088186D02*
X119585128Y-88088186D01*
X120023223Y-87878662D02*
X120156556Y-87878662D01*
X120213699Y-88088186D02*
X120023223Y-88088186D01*
X120023223Y-88088186D02*
X120023223Y-87688186D01*
X120023223Y-87688186D02*
X120213699Y-87688186D01*
X120442270Y-88088186D02*
X120404175Y-88069139D01*
X120404175Y-88069139D02*
X120385128Y-88031043D01*
X120385128Y-88031043D02*
X120385128Y-87688186D01*
X120747033Y-88069139D02*
X120708937Y-88088186D01*
X120708937Y-88088186D02*
X120632747Y-88088186D01*
X120632747Y-88088186D02*
X120594652Y-88069139D01*
X120594652Y-88069139D02*
X120575604Y-88031043D01*
X120575604Y-88031043D02*
X120575604Y-87878662D01*
X120575604Y-87878662D02*
X120594652Y-87840567D01*
X120594652Y-87840567D02*
X120632747Y-87821519D01*
X120632747Y-87821519D02*
X120708937Y-87821519D01*
X120708937Y-87821519D02*
X120747033Y-87840567D01*
X120747033Y-87840567D02*
X120766080Y-87878662D01*
X120766080Y-87878662D02*
X120766080Y-87916758D01*
X120766080Y-87916758D02*
X120575604Y-87954853D01*
X121108937Y-88069139D02*
X121070842Y-88088186D01*
X121070842Y-88088186D02*
X120994651Y-88088186D01*
X120994651Y-88088186D02*
X120956556Y-88069139D01*
X120956556Y-88069139D02*
X120937509Y-88050091D01*
X120937509Y-88050091D02*
X120918461Y-88011996D01*
X120918461Y-88011996D02*
X120918461Y-87897710D01*
X120918461Y-87897710D02*
X120937509Y-87859615D01*
X120937509Y-87859615D02*
X120956556Y-87840567D01*
X120956556Y-87840567D02*
X120994651Y-87821519D01*
X120994651Y-87821519D02*
X121070842Y-87821519D01*
X121070842Y-87821519D02*
X121108937Y-87840567D01*
X121223223Y-87821519D02*
X121375604Y-87821519D01*
X121280366Y-87688186D02*
X121280366Y-88031043D01*
X121280366Y-88031043D02*
X121299413Y-88069139D01*
X121299413Y-88069139D02*
X121337508Y-88088186D01*
X121337508Y-88088186D02*
X121375604Y-88088186D01*
X121508937Y-88088186D02*
X121508937Y-87821519D01*
X121508937Y-87897710D02*
X121527984Y-87859615D01*
X121527984Y-87859615D02*
X121547032Y-87840567D01*
X121547032Y-87840567D02*
X121585127Y-87821519D01*
X121585127Y-87821519D02*
X121623222Y-87821519D01*
X121813698Y-88088186D02*
X121775603Y-88069139D01*
X121775603Y-88069139D02*
X121756556Y-88050091D01*
X121756556Y-88050091D02*
X121737508Y-88011996D01*
X121737508Y-88011996D02*
X121737508Y-87897710D01*
X121737508Y-87897710D02*
X121756556Y-87859615D01*
X121756556Y-87859615D02*
X121775603Y-87840567D01*
X121775603Y-87840567D02*
X121813698Y-87821519D01*
X121813698Y-87821519D02*
X121870841Y-87821519D01*
X121870841Y-87821519D02*
X121908937Y-87840567D01*
X121908937Y-87840567D02*
X121927984Y-87859615D01*
X121927984Y-87859615D02*
X121947032Y-87897710D01*
X121947032Y-87897710D02*
X121947032Y-88011996D01*
X121947032Y-88011996D02*
X121927984Y-88050091D01*
X121927984Y-88050091D02*
X121908937Y-88069139D01*
X121908937Y-88069139D02*
X121870841Y-88088186D01*
X121870841Y-88088186D02*
X121813698Y-88088186D01*
X122118461Y-87821519D02*
X122118461Y-88088186D01*
X122118461Y-87859615D02*
X122137508Y-87840567D01*
X122137508Y-87840567D02*
X122175603Y-87821519D01*
X122175603Y-87821519D02*
X122232746Y-87821519D01*
X122232746Y-87821519D02*
X122270842Y-87840567D01*
X122270842Y-87840567D02*
X122289889Y-87878662D01*
X122289889Y-87878662D02*
X122289889Y-88088186D01*
X122480366Y-88088186D02*
X122480366Y-87821519D01*
X122480366Y-87688186D02*
X122461318Y-87707234D01*
X122461318Y-87707234D02*
X122480366Y-87726281D01*
X122480366Y-87726281D02*
X122499413Y-87707234D01*
X122499413Y-87707234D02*
X122480366Y-87688186D01*
X122480366Y-87688186D02*
X122480366Y-87726281D01*
X122842270Y-88069139D02*
X122804175Y-88088186D01*
X122804175Y-88088186D02*
X122727984Y-88088186D01*
X122727984Y-88088186D02*
X122689889Y-88069139D01*
X122689889Y-88069139D02*
X122670842Y-88050091D01*
X122670842Y-88050091D02*
X122651794Y-88011996D01*
X122651794Y-88011996D02*
X122651794Y-87897710D01*
X122651794Y-87897710D02*
X122670842Y-87859615D01*
X122670842Y-87859615D02*
X122689889Y-87840567D01*
X122689889Y-87840567D02*
X122727984Y-87821519D01*
X122727984Y-87821519D02*
X122804175Y-87821519D01*
X122804175Y-87821519D02*
X122842270Y-87840567D01*
X122994651Y-88069139D02*
X123032746Y-88088186D01*
X123032746Y-88088186D02*
X123108937Y-88088186D01*
X123108937Y-88088186D02*
X123147032Y-88069139D01*
X123147032Y-88069139D02*
X123166080Y-88031043D01*
X123166080Y-88031043D02*
X123166080Y-88011996D01*
X123166080Y-88011996D02*
X123147032Y-87973900D01*
X123147032Y-87973900D02*
X123108937Y-87954853D01*
X123108937Y-87954853D02*
X123051794Y-87954853D01*
X123051794Y-87954853D02*
X123013699Y-87935805D01*
X123013699Y-87935805D02*
X122994651Y-87897710D01*
X122994651Y-87897710D02*
X122994651Y-87878662D01*
X122994651Y-87878662D02*
X123013699Y-87840567D01*
X123013699Y-87840567D02*
X123051794Y-87821519D01*
X123051794Y-87821519D02*
X123108937Y-87821519D01*
X123108937Y-87821519D02*
X123147032Y-87840567D01*
X123870842Y-88050091D02*
X123851794Y-88069139D01*
X123851794Y-88069139D02*
X123794652Y-88088186D01*
X123794652Y-88088186D02*
X123756556Y-88088186D01*
X123756556Y-88088186D02*
X123699413Y-88069139D01*
X123699413Y-88069139D02*
X123661318Y-88031043D01*
X123661318Y-88031043D02*
X123642271Y-87992948D01*
X123642271Y-87992948D02*
X123623223Y-87916758D01*
X123623223Y-87916758D02*
X123623223Y-87859615D01*
X123623223Y-87859615D02*
X123642271Y-87783424D01*
X123642271Y-87783424D02*
X123661318Y-87745329D01*
X123661318Y-87745329D02*
X123699413Y-87707234D01*
X123699413Y-87707234D02*
X123756556Y-87688186D01*
X123756556Y-87688186D02*
X123794652Y-87688186D01*
X123794652Y-87688186D02*
X123851794Y-87707234D01*
X123851794Y-87707234D02*
X123870842Y-87726281D01*
X124099413Y-88088186D02*
X124061318Y-88069139D01*
X124061318Y-88069139D02*
X124042271Y-88050091D01*
X124042271Y-88050091D02*
X124023223Y-88011996D01*
X124023223Y-88011996D02*
X124023223Y-87897710D01*
X124023223Y-87897710D02*
X124042271Y-87859615D01*
X124042271Y-87859615D02*
X124061318Y-87840567D01*
X124061318Y-87840567D02*
X124099413Y-87821519D01*
X124099413Y-87821519D02*
X124156556Y-87821519D01*
X124156556Y-87821519D02*
X124194652Y-87840567D01*
X124194652Y-87840567D02*
X124213699Y-87859615D01*
X124213699Y-87859615D02*
X124232747Y-87897710D01*
X124232747Y-87897710D02*
X124232747Y-88011996D01*
X124232747Y-88011996D02*
X124213699Y-88050091D01*
X124213699Y-88050091D02*
X124194652Y-88069139D01*
X124194652Y-88069139D02*
X124156556Y-88088186D01*
X124156556Y-88088186D02*
X124099413Y-88088186D01*
X124404176Y-87821519D02*
X124404176Y-88088186D01*
X124404176Y-87859615D02*
X124423223Y-87840567D01*
X124423223Y-87840567D02*
X124461318Y-87821519D01*
X124461318Y-87821519D02*
X124518461Y-87821519D01*
X124518461Y-87821519D02*
X124556557Y-87840567D01*
X124556557Y-87840567D02*
X124575604Y-87878662D01*
X124575604Y-87878662D02*
X124575604Y-88088186D01*
X124708938Y-87821519D02*
X124861319Y-87821519D01*
X124766081Y-87688186D02*
X124766081Y-88031043D01*
X124766081Y-88031043D02*
X124785128Y-88069139D01*
X124785128Y-88069139D02*
X124823223Y-88088186D01*
X124823223Y-88088186D02*
X124861319Y-88088186D01*
X124994652Y-88088186D02*
X124994652Y-87821519D01*
X124994652Y-87897710D02*
X125013699Y-87859615D01*
X125013699Y-87859615D02*
X125032747Y-87840567D01*
X125032747Y-87840567D02*
X125070842Y-87821519D01*
X125070842Y-87821519D02*
X125108937Y-87821519D01*
X125299413Y-88088186D02*
X125261318Y-88069139D01*
X125261318Y-88069139D02*
X125242271Y-88050091D01*
X125242271Y-88050091D02*
X125223223Y-88011996D01*
X125223223Y-88011996D02*
X125223223Y-87897710D01*
X125223223Y-87897710D02*
X125242271Y-87859615D01*
X125242271Y-87859615D02*
X125261318Y-87840567D01*
X125261318Y-87840567D02*
X125299413Y-87821519D01*
X125299413Y-87821519D02*
X125356556Y-87821519D01*
X125356556Y-87821519D02*
X125394652Y-87840567D01*
X125394652Y-87840567D02*
X125413699Y-87859615D01*
X125413699Y-87859615D02*
X125432747Y-87897710D01*
X125432747Y-87897710D02*
X125432747Y-88011996D01*
X125432747Y-88011996D02*
X125413699Y-88050091D01*
X125413699Y-88050091D02*
X125394652Y-88069139D01*
X125394652Y-88069139D02*
X125356556Y-88088186D01*
X125356556Y-88088186D02*
X125299413Y-88088186D01*
X125661318Y-88088186D02*
X125623223Y-88069139D01*
X125623223Y-88069139D02*
X125604176Y-88031043D01*
X125604176Y-88031043D02*
X125604176Y-87688186D01*
X126251795Y-87878662D02*
X126308938Y-87897710D01*
X126308938Y-87897710D02*
X126327985Y-87916758D01*
X126327985Y-87916758D02*
X126347033Y-87954853D01*
X126347033Y-87954853D02*
X126347033Y-88011996D01*
X126347033Y-88011996D02*
X126327985Y-88050091D01*
X126327985Y-88050091D02*
X126308938Y-88069139D01*
X126308938Y-88069139D02*
X126270843Y-88088186D01*
X126270843Y-88088186D02*
X126118462Y-88088186D01*
X126118462Y-88088186D02*
X126118462Y-87688186D01*
X126118462Y-87688186D02*
X126251795Y-87688186D01*
X126251795Y-87688186D02*
X126289890Y-87707234D01*
X126289890Y-87707234D02*
X126308938Y-87726281D01*
X126308938Y-87726281D02*
X126327985Y-87764377D01*
X126327985Y-87764377D02*
X126327985Y-87802472D01*
X126327985Y-87802472D02*
X126308938Y-87840567D01*
X126308938Y-87840567D02*
X126289890Y-87859615D01*
X126289890Y-87859615D02*
X126251795Y-87878662D01*
X126251795Y-87878662D02*
X126118462Y-87878662D01*
X126575604Y-88088186D02*
X126537509Y-88069139D01*
X126537509Y-88069139D02*
X126518462Y-88050091D01*
X126518462Y-88050091D02*
X126499414Y-88011996D01*
X126499414Y-88011996D02*
X126499414Y-87897710D01*
X126499414Y-87897710D02*
X126518462Y-87859615D01*
X126518462Y-87859615D02*
X126537509Y-87840567D01*
X126537509Y-87840567D02*
X126575604Y-87821519D01*
X126575604Y-87821519D02*
X126632747Y-87821519D01*
X126632747Y-87821519D02*
X126670843Y-87840567D01*
X126670843Y-87840567D02*
X126689890Y-87859615D01*
X126689890Y-87859615D02*
X126708938Y-87897710D01*
X126708938Y-87897710D02*
X126708938Y-88011996D01*
X126708938Y-88011996D02*
X126689890Y-88050091D01*
X126689890Y-88050091D02*
X126670843Y-88069139D01*
X126670843Y-88069139D02*
X126632747Y-88088186D01*
X126632747Y-88088186D02*
X126575604Y-88088186D01*
X127051795Y-88088186D02*
X127051795Y-87878662D01*
X127051795Y-87878662D02*
X127032748Y-87840567D01*
X127032748Y-87840567D02*
X126994652Y-87821519D01*
X126994652Y-87821519D02*
X126918462Y-87821519D01*
X126918462Y-87821519D02*
X126880367Y-87840567D01*
X127051795Y-88069139D02*
X127013700Y-88088186D01*
X127013700Y-88088186D02*
X126918462Y-88088186D01*
X126918462Y-88088186D02*
X126880367Y-88069139D01*
X126880367Y-88069139D02*
X126861319Y-88031043D01*
X126861319Y-88031043D02*
X126861319Y-87992948D01*
X126861319Y-87992948D02*
X126880367Y-87954853D01*
X126880367Y-87954853D02*
X126918462Y-87935805D01*
X126918462Y-87935805D02*
X127013700Y-87935805D01*
X127013700Y-87935805D02*
X127051795Y-87916758D01*
X127242272Y-88088186D02*
X127242272Y-87821519D01*
X127242272Y-87897710D02*
X127261319Y-87859615D01*
X127261319Y-87859615D02*
X127280367Y-87840567D01*
X127280367Y-87840567D02*
X127318462Y-87821519D01*
X127318462Y-87821519D02*
X127356557Y-87821519D01*
X127661319Y-88088186D02*
X127661319Y-87688186D01*
X127661319Y-88069139D02*
X127623224Y-88088186D01*
X127623224Y-88088186D02*
X127547033Y-88088186D01*
X127547033Y-88088186D02*
X127508938Y-88069139D01*
X127508938Y-88069139D02*
X127489891Y-88050091D01*
X127489891Y-88050091D02*
X127470843Y-88011996D01*
X127470843Y-88011996D02*
X127470843Y-87897710D01*
X127470843Y-87897710D02*
X127489891Y-87859615D01*
X127489891Y-87859615D02*
X127508938Y-87840567D01*
X127508938Y-87840567D02*
X127547033Y-87821519D01*
X127547033Y-87821519D02*
X127623224Y-87821519D01*
X127623224Y-87821519D02*
X127661319Y-87840567D01*
D13*
X143301428Y-100335190D02*
X143468094Y-100573285D01*
X143587142Y-100335190D02*
X143587142Y-100835190D01*
X143587142Y-100835190D02*
X143396666Y-100835190D01*
X143396666Y-100835190D02*
X143349047Y-100811380D01*
X143349047Y-100811380D02*
X143325237Y-100787571D01*
X143325237Y-100787571D02*
X143301428Y-100739952D01*
X143301428Y-100739952D02*
X143301428Y-100668523D01*
X143301428Y-100668523D02*
X143325237Y-100620904D01*
X143325237Y-100620904D02*
X143349047Y-100597095D01*
X143349047Y-100597095D02*
X143396666Y-100573285D01*
X143396666Y-100573285D02*
X143587142Y-100573285D01*
X142825237Y-100335190D02*
X143110951Y-100335190D01*
X142968094Y-100335190D02*
X142968094Y-100835190D01*
X142968094Y-100835190D02*
X143015713Y-100763761D01*
X143015713Y-100763761D02*
X143063332Y-100716142D01*
X143063332Y-100716142D02*
X143110951Y-100692333D01*
X142658571Y-100835190D02*
X142349047Y-100835190D01*
X142349047Y-100835190D02*
X142515714Y-100644714D01*
X142515714Y-100644714D02*
X142444285Y-100644714D01*
X142444285Y-100644714D02*
X142396666Y-100620904D01*
X142396666Y-100620904D02*
X142372857Y-100597095D01*
X142372857Y-100597095D02*
X142349047Y-100549476D01*
X142349047Y-100549476D02*
X142349047Y-100430428D01*
X142349047Y-100430428D02*
X142372857Y-100382809D01*
X142372857Y-100382809D02*
X142396666Y-100359000D01*
X142396666Y-100359000D02*
X142444285Y-100335190D01*
X142444285Y-100335190D02*
X142587142Y-100335190D01*
X142587142Y-100335190D02*
X142634761Y-100359000D01*
X142634761Y-100359000D02*
X142658571Y-100382809D01*
D14*
X142764383Y-44667014D02*
X142633149Y-44479538D01*
X142539411Y-44667014D02*
X142539411Y-44273313D01*
X142539411Y-44273313D02*
X142689392Y-44273313D01*
X142689392Y-44273313D02*
X142726888Y-44292061D01*
X142726888Y-44292061D02*
X142745635Y-44310809D01*
X142745635Y-44310809D02*
X142764383Y-44348304D01*
X142764383Y-44348304D02*
X142764383Y-44404547D01*
X142764383Y-44404547D02*
X142745635Y-44442042D01*
X142745635Y-44442042D02*
X142726888Y-44460790D01*
X142726888Y-44460790D02*
X142689392Y-44479538D01*
X142689392Y-44479538D02*
X142539411Y-44479538D01*
X143101841Y-44404547D02*
X143101841Y-44667014D01*
X143008103Y-44254566D02*
X142914364Y-44535781D01*
X142914364Y-44535781D02*
X143158084Y-44535781D01*
X132614383Y-44577014D02*
X132483149Y-44389538D01*
X132389411Y-44577014D02*
X132389411Y-44183313D01*
X132389411Y-44183313D02*
X132539392Y-44183313D01*
X132539392Y-44183313D02*
X132576888Y-44202061D01*
X132576888Y-44202061D02*
X132595635Y-44220809D01*
X132595635Y-44220809D02*
X132614383Y-44258304D01*
X132614383Y-44258304D02*
X132614383Y-44314547D01*
X132614383Y-44314547D02*
X132595635Y-44352042D01*
X132595635Y-44352042D02*
X132576888Y-44370790D01*
X132576888Y-44370790D02*
X132539392Y-44389538D01*
X132539392Y-44389538D02*
X132389411Y-44389538D01*
X132745617Y-44183313D02*
X132989336Y-44183313D01*
X132989336Y-44183313D02*
X132858103Y-44333295D01*
X132858103Y-44333295D02*
X132914346Y-44333295D01*
X132914346Y-44333295D02*
X132951841Y-44352042D01*
X132951841Y-44352042D02*
X132970589Y-44370790D01*
X132970589Y-44370790D02*
X132989336Y-44408285D01*
X132989336Y-44408285D02*
X132989336Y-44502024D01*
X132989336Y-44502024D02*
X132970589Y-44539519D01*
X132970589Y-44539519D02*
X132951841Y-44558267D01*
X132951841Y-44558267D02*
X132914346Y-44577014D01*
X132914346Y-44577014D02*
X132801860Y-44577014D01*
X132801860Y-44577014D02*
X132764364Y-44558267D01*
X132764364Y-44558267D02*
X132745617Y-44539519D01*
X154354383Y-44717014D02*
X154223149Y-44529538D01*
X154129411Y-44717014D02*
X154129411Y-44323313D01*
X154129411Y-44323313D02*
X154279392Y-44323313D01*
X154279392Y-44323313D02*
X154316888Y-44342061D01*
X154316888Y-44342061D02*
X154335635Y-44360809D01*
X154335635Y-44360809D02*
X154354383Y-44398304D01*
X154354383Y-44398304D02*
X154354383Y-44454547D01*
X154354383Y-44454547D02*
X154335635Y-44492042D01*
X154335635Y-44492042D02*
X154316888Y-44510790D01*
X154316888Y-44510790D02*
X154279392Y-44529538D01*
X154279392Y-44529538D02*
X154129411Y-44529538D01*
X154504364Y-44360809D02*
X154523112Y-44342061D01*
X154523112Y-44342061D02*
X154560607Y-44323313D01*
X154560607Y-44323313D02*
X154654346Y-44323313D01*
X154654346Y-44323313D02*
X154691841Y-44342061D01*
X154691841Y-44342061D02*
X154710589Y-44360809D01*
X154710589Y-44360809D02*
X154729336Y-44398304D01*
X154729336Y-44398304D02*
X154729336Y-44435799D01*
X154729336Y-44435799D02*
X154710589Y-44492042D01*
X154710589Y-44492042D02*
X154485617Y-44717014D01*
X154485617Y-44717014D02*
X154729336Y-44717014D01*
X137744383Y-44747014D02*
X137613149Y-44559538D01*
X137519411Y-44747014D02*
X137519411Y-44353313D01*
X137519411Y-44353313D02*
X137669392Y-44353313D01*
X137669392Y-44353313D02*
X137706888Y-44372061D01*
X137706888Y-44372061D02*
X137725635Y-44390809D01*
X137725635Y-44390809D02*
X137744383Y-44428304D01*
X137744383Y-44428304D02*
X137744383Y-44484547D01*
X137744383Y-44484547D02*
X137725635Y-44522042D01*
X137725635Y-44522042D02*
X137706888Y-44540790D01*
X137706888Y-44540790D02*
X137669392Y-44559538D01*
X137669392Y-44559538D02*
X137519411Y-44559538D01*
X138119336Y-44747014D02*
X137894364Y-44747014D01*
X138006850Y-44747014D02*
X138006850Y-44353313D01*
X138006850Y-44353313D02*
X137969355Y-44409556D01*
X137969355Y-44409556D02*
X137931860Y-44447052D01*
X137931860Y-44447052D02*
X137894364Y-44465799D01*
D15*
X150524819Y-75008094D02*
X149524819Y-75008094D01*
X149524819Y-75008094D02*
X149524819Y-74769999D01*
X149524819Y-74769999D02*
X149572438Y-74627142D01*
X149572438Y-74627142D02*
X149667676Y-74531904D01*
X149667676Y-74531904D02*
X149762914Y-74484285D01*
X149762914Y-74484285D02*
X149953390Y-74436666D01*
X149953390Y-74436666D02*
X150096247Y-74436666D01*
X150096247Y-74436666D02*
X150286723Y-74484285D01*
X150286723Y-74484285D02*
X150381961Y-74531904D01*
X150381961Y-74531904D02*
X150477200Y-74627142D01*
X150477200Y-74627142D02*
X150524819Y-74769999D01*
X150524819Y-74769999D02*
X150524819Y-75008094D01*
X150524819Y-73484285D02*
X150524819Y-74055713D01*
X150524819Y-73769999D02*
X149524819Y-73769999D01*
X149524819Y-73769999D02*
X149667676Y-73865237D01*
X149667676Y-73865237D02*
X149762914Y-73960475D01*
X149762914Y-73960475D02*
X149810533Y-74055713D01*
X141723333Y-77039580D02*
X141675714Y-77087200D01*
X141675714Y-77087200D02*
X141532857Y-77134819D01*
X141532857Y-77134819D02*
X141437619Y-77134819D01*
X141437619Y-77134819D02*
X141294762Y-77087200D01*
X141294762Y-77087200D02*
X141199524Y-76991961D01*
X141199524Y-76991961D02*
X141151905Y-76896723D01*
X141151905Y-76896723D02*
X141104286Y-76706247D01*
X141104286Y-76706247D02*
X141104286Y-76563390D01*
X141104286Y-76563390D02*
X141151905Y-76372914D01*
X141151905Y-76372914D02*
X141199524Y-76277676D01*
X141199524Y-76277676D02*
X141294762Y-76182438D01*
X141294762Y-76182438D02*
X141437619Y-76134819D01*
X141437619Y-76134819D02*
X141532857Y-76134819D01*
X141532857Y-76134819D02*
X141675714Y-76182438D01*
X141675714Y-76182438D02*
X141723333Y-76230057D01*
X142104286Y-76230057D02*
X142151905Y-76182438D01*
X142151905Y-76182438D02*
X142247143Y-76134819D01*
X142247143Y-76134819D02*
X142485238Y-76134819D01*
X142485238Y-76134819D02*
X142580476Y-76182438D01*
X142580476Y-76182438D02*
X142628095Y-76230057D01*
X142628095Y-76230057D02*
X142675714Y-76325295D01*
X142675714Y-76325295D02*
X142675714Y-76420533D01*
X142675714Y-76420533D02*
X142628095Y-76563390D01*
X142628095Y-76563390D02*
X142056667Y-77134819D01*
X142056667Y-77134819D02*
X142675714Y-77134819D01*
X156732200Y-77273809D02*
X156779819Y-77130952D01*
X156779819Y-77130952D02*
X156779819Y-76892857D01*
X156779819Y-76892857D02*
X156732200Y-76797619D01*
X156732200Y-76797619D02*
X156684580Y-76750000D01*
X156684580Y-76750000D02*
X156589342Y-76702381D01*
X156589342Y-76702381D02*
X156494104Y-76702381D01*
X156494104Y-76702381D02*
X156398866Y-76750000D01*
X156398866Y-76750000D02*
X156351247Y-76797619D01*
X156351247Y-76797619D02*
X156303628Y-76892857D01*
X156303628Y-76892857D02*
X156256009Y-77083333D01*
X156256009Y-77083333D02*
X156208390Y-77178571D01*
X156208390Y-77178571D02*
X156160771Y-77226190D01*
X156160771Y-77226190D02*
X156065533Y-77273809D01*
X156065533Y-77273809D02*
X155970295Y-77273809D01*
X155970295Y-77273809D02*
X155875057Y-77226190D01*
X155875057Y-77226190D02*
X155827438Y-77178571D01*
X155827438Y-77178571D02*
X155779819Y-77083333D01*
X155779819Y-77083333D02*
X155779819Y-76845238D01*
X155779819Y-76845238D02*
X155827438Y-76702381D01*
X156779819Y-76130952D02*
X156732200Y-76226190D01*
X156732200Y-76226190D02*
X156684580Y-76273809D01*
X156684580Y-76273809D02*
X156589342Y-76321428D01*
X156589342Y-76321428D02*
X156303628Y-76321428D01*
X156303628Y-76321428D02*
X156208390Y-76273809D01*
X156208390Y-76273809D02*
X156160771Y-76226190D01*
X156160771Y-76226190D02*
X156113152Y-76130952D01*
X156113152Y-76130952D02*
X156113152Y-75988095D01*
X156113152Y-75988095D02*
X156160771Y-75892857D01*
X156160771Y-75892857D02*
X156208390Y-75845238D01*
X156208390Y-75845238D02*
X156303628Y-75797619D01*
X156303628Y-75797619D02*
X156589342Y-75797619D01*
X156589342Y-75797619D02*
X156684580Y-75845238D01*
X156684580Y-75845238D02*
X156732200Y-75892857D01*
X156732200Y-75892857D02*
X156779819Y-75988095D01*
X156779819Y-75988095D02*
X156779819Y-76130952D01*
X156779819Y-75226190D02*
X156732200Y-75321428D01*
X156732200Y-75321428D02*
X156636961Y-75369047D01*
X156636961Y-75369047D02*
X155779819Y-75369047D01*
X156732200Y-74464285D02*
X156779819Y-74559523D01*
X156779819Y-74559523D02*
X156779819Y-74749999D01*
X156779819Y-74749999D02*
X156732200Y-74845237D01*
X156732200Y-74845237D02*
X156636961Y-74892856D01*
X156636961Y-74892856D02*
X156256009Y-74892856D01*
X156256009Y-74892856D02*
X156160771Y-74845237D01*
X156160771Y-74845237D02*
X156113152Y-74749999D01*
X156113152Y-74749999D02*
X156113152Y-74559523D01*
X156113152Y-74559523D02*
X156160771Y-74464285D01*
X156160771Y-74464285D02*
X156256009Y-74416666D01*
X156256009Y-74416666D02*
X156351247Y-74416666D01*
X156351247Y-74416666D02*
X156446485Y-74892856D01*
X156113152Y-73988094D02*
X156779819Y-73988094D01*
X156208390Y-73988094D02*
X156160771Y-73940475D01*
X156160771Y-73940475D02*
X156113152Y-73845237D01*
X156113152Y-73845237D02*
X156113152Y-73702380D01*
X156113152Y-73702380D02*
X156160771Y-73607142D01*
X156160771Y-73607142D02*
X156256009Y-73559523D01*
X156256009Y-73559523D02*
X156779819Y-73559523D01*
X156779819Y-72940475D02*
X156732200Y-73035713D01*
X156732200Y-73035713D02*
X156684580Y-73083332D01*
X156684580Y-73083332D02*
X156589342Y-73130951D01*
X156589342Y-73130951D02*
X156303628Y-73130951D01*
X156303628Y-73130951D02*
X156208390Y-73083332D01*
X156208390Y-73083332D02*
X156160771Y-73035713D01*
X156160771Y-73035713D02*
X156113152Y-72940475D01*
X156113152Y-72940475D02*
X156113152Y-72797618D01*
X156113152Y-72797618D02*
X156160771Y-72702380D01*
X156160771Y-72702380D02*
X156208390Y-72654761D01*
X156208390Y-72654761D02*
X156303628Y-72607142D01*
X156303628Y-72607142D02*
X156589342Y-72607142D01*
X156589342Y-72607142D02*
X156684580Y-72654761D01*
X156684580Y-72654761D02*
X156732200Y-72702380D01*
X156732200Y-72702380D02*
X156779819Y-72797618D01*
X156779819Y-72797618D02*
X156779819Y-72940475D01*
X156779819Y-72178570D02*
X156113152Y-72178570D01*
X155779819Y-72178570D02*
X155827438Y-72226189D01*
X155827438Y-72226189D02*
X155875057Y-72178570D01*
X155875057Y-72178570D02*
X155827438Y-72130951D01*
X155827438Y-72130951D02*
X155779819Y-72178570D01*
X155779819Y-72178570D02*
X155875057Y-72178570D01*
X156779819Y-71273809D02*
X155779819Y-71273809D01*
X156732200Y-71273809D02*
X156779819Y-71369047D01*
X156779819Y-71369047D02*
X156779819Y-71559523D01*
X156779819Y-71559523D02*
X156732200Y-71654761D01*
X156732200Y-71654761D02*
X156684580Y-71702380D01*
X156684580Y-71702380D02*
X156589342Y-71749999D01*
X156589342Y-71749999D02*
X156303628Y-71749999D01*
X156303628Y-71749999D02*
X156208390Y-71702380D01*
X156208390Y-71702380D02*
X156160771Y-71654761D01*
X156160771Y-71654761D02*
X156113152Y-71559523D01*
X156113152Y-71559523D02*
X156113152Y-71369047D01*
X156113152Y-71369047D02*
X156160771Y-71273809D01*
X156779819Y-69702380D02*
X155779819Y-69702380D01*
X155779819Y-69702380D02*
X156494104Y-69369047D01*
X156494104Y-69369047D02*
X155779819Y-69035714D01*
X155779819Y-69035714D02*
X156779819Y-69035714D01*
X156875057Y-68797619D02*
X156875057Y-68035714D01*
X156779819Y-67797618D02*
X155779819Y-67797618D01*
X155779819Y-67797618D02*
X155779819Y-67559523D01*
X155779819Y-67559523D02*
X155827438Y-67416666D01*
X155827438Y-67416666D02*
X155922676Y-67321428D01*
X155922676Y-67321428D02*
X156017914Y-67273809D01*
X156017914Y-67273809D02*
X156208390Y-67226190D01*
X156208390Y-67226190D02*
X156351247Y-67226190D01*
X156351247Y-67226190D02*
X156541723Y-67273809D01*
X156541723Y-67273809D02*
X156636961Y-67321428D01*
X156636961Y-67321428D02*
X156732200Y-67416666D01*
X156732200Y-67416666D02*
X156779819Y-67559523D01*
X156779819Y-67559523D02*
X156779819Y-67797618D01*
X156779819Y-66226190D02*
X156303628Y-66559523D01*
X156779819Y-66797618D02*
X155779819Y-66797618D01*
X155779819Y-66797618D02*
X155779819Y-66416666D01*
X155779819Y-66416666D02*
X155827438Y-66321428D01*
X155827438Y-66321428D02*
X155875057Y-66273809D01*
X155875057Y-66273809D02*
X155970295Y-66226190D01*
X155970295Y-66226190D02*
X156113152Y-66226190D01*
X156113152Y-66226190D02*
X156208390Y-66273809D01*
X156208390Y-66273809D02*
X156256009Y-66321428D01*
X156256009Y-66321428D02*
X156303628Y-66416666D01*
X156303628Y-66416666D02*
X156303628Y-66797618D01*
X155779819Y-65940475D02*
X156779819Y-65607142D01*
X156779819Y-65607142D02*
X155779819Y-65273809D01*
X156875057Y-65178571D02*
X156875057Y-64416666D01*
X156494104Y-64226189D02*
X156494104Y-63749999D01*
X156779819Y-64321427D02*
X155779819Y-63988094D01*
X155779819Y-63988094D02*
X156779819Y-63654761D01*
X156779819Y-62749999D02*
X156303628Y-63083332D01*
X156779819Y-63321427D02*
X155779819Y-63321427D01*
X155779819Y-63321427D02*
X155779819Y-62940475D01*
X155779819Y-62940475D02*
X155827438Y-62845237D01*
X155827438Y-62845237D02*
X155875057Y-62797618D01*
X155875057Y-62797618D02*
X155970295Y-62749999D01*
X155970295Y-62749999D02*
X156113152Y-62749999D01*
X156113152Y-62749999D02*
X156208390Y-62797618D01*
X156208390Y-62797618D02*
X156256009Y-62845237D01*
X156256009Y-62845237D02*
X156303628Y-62940475D01*
X156303628Y-62940475D02*
X156303628Y-63321427D01*
X156779819Y-62321427D02*
X155779819Y-62321427D01*
X155779819Y-62321427D02*
X155779819Y-62083332D01*
X155779819Y-62083332D02*
X155827438Y-61940475D01*
X155827438Y-61940475D02*
X155922676Y-61845237D01*
X155922676Y-61845237D02*
X156017914Y-61797618D01*
X156017914Y-61797618D02*
X156208390Y-61749999D01*
X156208390Y-61749999D02*
X156351247Y-61749999D01*
X156351247Y-61749999D02*
X156541723Y-61797618D01*
X156541723Y-61797618D02*
X156636961Y-61845237D01*
X156636961Y-61845237D02*
X156732200Y-61940475D01*
X156732200Y-61940475D02*
X156779819Y-62083332D01*
X156779819Y-62083332D02*
X156779819Y-62321427D01*
X156779819Y-86945237D02*
X155779819Y-86945237D01*
X155779819Y-86945237D02*
X156494104Y-86611904D01*
X156494104Y-86611904D02*
X155779819Y-86278571D01*
X155779819Y-86278571D02*
X156779819Y-86278571D01*
X156875057Y-86040476D02*
X156875057Y-85278571D01*
X156779819Y-85040475D02*
X155779819Y-85040475D01*
X155779819Y-85040475D02*
X155779819Y-84802380D01*
X155779819Y-84802380D02*
X155827438Y-84659523D01*
X155827438Y-84659523D02*
X155922676Y-84564285D01*
X155922676Y-84564285D02*
X156017914Y-84516666D01*
X156017914Y-84516666D02*
X156208390Y-84469047D01*
X156208390Y-84469047D02*
X156351247Y-84469047D01*
X156351247Y-84469047D02*
X156541723Y-84516666D01*
X156541723Y-84516666D02*
X156636961Y-84564285D01*
X156636961Y-84564285D02*
X156732200Y-84659523D01*
X156732200Y-84659523D02*
X156779819Y-84802380D01*
X156779819Y-84802380D02*
X156779819Y-85040475D01*
X156779819Y-83469047D02*
X156303628Y-83802380D01*
X156779819Y-84040475D02*
X155779819Y-84040475D01*
X155779819Y-84040475D02*
X155779819Y-83659523D01*
X155779819Y-83659523D02*
X155827438Y-83564285D01*
X155827438Y-83564285D02*
X155875057Y-83516666D01*
X155875057Y-83516666D02*
X155970295Y-83469047D01*
X155970295Y-83469047D02*
X156113152Y-83469047D01*
X156113152Y-83469047D02*
X156208390Y-83516666D01*
X156208390Y-83516666D02*
X156256009Y-83564285D01*
X156256009Y-83564285D02*
X156303628Y-83659523D01*
X156303628Y-83659523D02*
X156303628Y-84040475D01*
X155779819Y-83183332D02*
X156779819Y-82849999D01*
X156779819Y-82849999D02*
X155779819Y-82516666D01*
X156875057Y-82421428D02*
X156875057Y-81659523D01*
X156779819Y-81421427D02*
X155779819Y-81421427D01*
X155779819Y-81421427D02*
X155779819Y-81040475D01*
X155779819Y-81040475D02*
X155827438Y-80945237D01*
X155827438Y-80945237D02*
X155875057Y-80897618D01*
X155875057Y-80897618D02*
X155970295Y-80849999D01*
X155970295Y-80849999D02*
X156113152Y-80849999D01*
X156113152Y-80849999D02*
X156208390Y-80897618D01*
X156208390Y-80897618D02*
X156256009Y-80945237D01*
X156256009Y-80945237D02*
X156303628Y-81040475D01*
X156303628Y-81040475D02*
X156303628Y-81421427D01*
X155779819Y-80516665D02*
X156779819Y-80278570D01*
X156779819Y-80278570D02*
X156065533Y-80088094D01*
X156065533Y-80088094D02*
X156779819Y-79897618D01*
X156779819Y-79897618D02*
X155779819Y-79659523D01*
X156779819Y-78707142D02*
X156303628Y-79040475D01*
X156779819Y-79278570D02*
X155779819Y-79278570D01*
X155779819Y-79278570D02*
X155779819Y-78897618D01*
X155779819Y-78897618D02*
X155827438Y-78802380D01*
X155827438Y-78802380D02*
X155875057Y-78754761D01*
X155875057Y-78754761D02*
X155970295Y-78707142D01*
X155970295Y-78707142D02*
X156113152Y-78707142D01*
X156113152Y-78707142D02*
X156208390Y-78754761D01*
X156208390Y-78754761D02*
X156256009Y-78802380D01*
X156256009Y-78802380D02*
X156303628Y-78897618D01*
X156303628Y-78897618D02*
X156303628Y-79278570D01*
D14*
X105546907Y-82337014D02*
X105415673Y-82149538D01*
X105321935Y-82337014D02*
X105321935Y-81943313D01*
X105321935Y-81943313D02*
X105471916Y-81943313D01*
X105471916Y-81943313D02*
X105509412Y-81962061D01*
X105509412Y-81962061D02*
X105528159Y-81980809D01*
X105528159Y-81980809D02*
X105546907Y-82018304D01*
X105546907Y-82018304D02*
X105546907Y-82074547D01*
X105546907Y-82074547D02*
X105528159Y-82112042D01*
X105528159Y-82112042D02*
X105509412Y-82130790D01*
X105509412Y-82130790D02*
X105471916Y-82149538D01*
X105471916Y-82149538D02*
X105321935Y-82149538D01*
X105921860Y-82337014D02*
X105696888Y-82337014D01*
X105809374Y-82337014D02*
X105809374Y-81943313D01*
X105809374Y-81943313D02*
X105771879Y-81999556D01*
X105771879Y-81999556D02*
X105734384Y-82037052D01*
X105734384Y-82037052D02*
X105696888Y-82055799D01*
X106071841Y-81980809D02*
X106090589Y-81962061D01*
X106090589Y-81962061D02*
X106128084Y-81943313D01*
X106128084Y-81943313D02*
X106221823Y-81943313D01*
X106221823Y-81943313D02*
X106259318Y-81962061D01*
X106259318Y-81962061D02*
X106278066Y-81980809D01*
X106278066Y-81980809D02*
X106296813Y-82018304D01*
X106296813Y-82018304D02*
X106296813Y-82055799D01*
X106296813Y-82055799D02*
X106278066Y-82112042D01*
X106278066Y-82112042D02*
X106053094Y-82337014D01*
X106053094Y-82337014D02*
X106296813Y-82337014D01*
D15*
X156779819Y-58652381D02*
X156303628Y-58985714D01*
X156779819Y-59223809D02*
X155779819Y-59223809D01*
X155779819Y-59223809D02*
X155779819Y-58842857D01*
X155779819Y-58842857D02*
X155827438Y-58747619D01*
X155827438Y-58747619D02*
X155875057Y-58700000D01*
X155875057Y-58700000D02*
X155970295Y-58652381D01*
X155970295Y-58652381D02*
X156113152Y-58652381D01*
X156113152Y-58652381D02*
X156208390Y-58700000D01*
X156208390Y-58700000D02*
X156256009Y-58747619D01*
X156256009Y-58747619D02*
X156303628Y-58842857D01*
X156303628Y-58842857D02*
X156303628Y-59223809D01*
X156875057Y-58461905D02*
X156875057Y-57700000D01*
X156779819Y-56938095D02*
X156779819Y-57509523D01*
X156779819Y-57223809D02*
X155779819Y-57223809D01*
X155779819Y-57223809D02*
X155922676Y-57319047D01*
X155922676Y-57319047D02*
X156017914Y-57414285D01*
X156017914Y-57414285D02*
X156065533Y-57509523D01*
X155779819Y-56033333D02*
X155779819Y-56509523D01*
X155779819Y-56509523D02*
X156256009Y-56557142D01*
X156256009Y-56557142D02*
X156208390Y-56509523D01*
X156208390Y-56509523D02*
X156160771Y-56414285D01*
X156160771Y-56414285D02*
X156160771Y-56176190D01*
X156160771Y-56176190D02*
X156208390Y-56080952D01*
X156208390Y-56080952D02*
X156256009Y-56033333D01*
X156256009Y-56033333D02*
X156351247Y-55985714D01*
X156351247Y-55985714D02*
X156589342Y-55985714D01*
X156589342Y-55985714D02*
X156684580Y-56033333D01*
X156684580Y-56033333D02*
X156732200Y-56080952D01*
X156732200Y-56080952D02*
X156779819Y-56176190D01*
X156779819Y-56176190D02*
X156779819Y-56414285D01*
X156779819Y-56414285D02*
X156732200Y-56509523D01*
X156732200Y-56509523D02*
X156684580Y-56557142D01*
X155779819Y-55699999D02*
X156779819Y-55366666D01*
X156779819Y-55366666D02*
X155779819Y-55033333D01*
D14*
X125359519Y-60975616D02*
X125378267Y-60994364D01*
X125378267Y-60994364D02*
X125397014Y-61050607D01*
X125397014Y-61050607D02*
X125397014Y-61088102D01*
X125397014Y-61088102D02*
X125378267Y-61144345D01*
X125378267Y-61144345D02*
X125340771Y-61181841D01*
X125340771Y-61181841D02*
X125303276Y-61200588D01*
X125303276Y-61200588D02*
X125228285Y-61219336D01*
X125228285Y-61219336D02*
X125172042Y-61219336D01*
X125172042Y-61219336D02*
X125097052Y-61200588D01*
X125097052Y-61200588D02*
X125059556Y-61181841D01*
X125059556Y-61181841D02*
X125022061Y-61144345D01*
X125022061Y-61144345D02*
X125003313Y-61088102D01*
X125003313Y-61088102D02*
X125003313Y-61050607D01*
X125003313Y-61050607D02*
X125022061Y-60994364D01*
X125022061Y-60994364D02*
X125040809Y-60975616D01*
X125134547Y-60638158D02*
X125397014Y-60638158D01*
X124984566Y-60731897D02*
X125265781Y-60825635D01*
X125265781Y-60825635D02*
X125265781Y-60581915D01*
D15*
X103829104Y-52621905D02*
X103829104Y-52145715D01*
X104114819Y-52717143D02*
X103114819Y-52383810D01*
X103114819Y-52383810D02*
X104114819Y-52050477D01*
X104067200Y-51288572D02*
X104114819Y-51383810D01*
X104114819Y-51383810D02*
X104114819Y-51574286D01*
X104114819Y-51574286D02*
X104067200Y-51669524D01*
X104067200Y-51669524D02*
X104019580Y-51717143D01*
X104019580Y-51717143D02*
X103924342Y-51764762D01*
X103924342Y-51764762D02*
X103638628Y-51764762D01*
X103638628Y-51764762D02*
X103543390Y-51717143D01*
X103543390Y-51717143D02*
X103495771Y-51669524D01*
X103495771Y-51669524D02*
X103448152Y-51574286D01*
X103448152Y-51574286D02*
X103448152Y-51383810D01*
X103448152Y-51383810D02*
X103495771Y-51288572D01*
X103448152Y-51002857D02*
X103448152Y-50621905D01*
X103114819Y-50860000D02*
X103971961Y-50860000D01*
X103971961Y-50860000D02*
X104067200Y-50812381D01*
X104067200Y-50812381D02*
X104114819Y-50717143D01*
X104114819Y-50717143D02*
X104114819Y-50621905D01*
X103448152Y-49860000D02*
X104114819Y-49860000D01*
X103448152Y-50288571D02*
X103971961Y-50288571D01*
X103971961Y-50288571D02*
X104067200Y-50240952D01*
X104067200Y-50240952D02*
X104114819Y-50145714D01*
X104114819Y-50145714D02*
X104114819Y-50002857D01*
X104114819Y-50002857D02*
X104067200Y-49907619D01*
X104067200Y-49907619D02*
X104019580Y-49860000D01*
X104114819Y-48955238D02*
X103591009Y-48955238D01*
X103591009Y-48955238D02*
X103495771Y-49002857D01*
X103495771Y-49002857D02*
X103448152Y-49098095D01*
X103448152Y-49098095D02*
X103448152Y-49288571D01*
X103448152Y-49288571D02*
X103495771Y-49383809D01*
X104067200Y-48955238D02*
X104114819Y-49050476D01*
X104114819Y-49050476D02*
X104114819Y-49288571D01*
X104114819Y-49288571D02*
X104067200Y-49383809D01*
X104067200Y-49383809D02*
X103971961Y-49431428D01*
X103971961Y-49431428D02*
X103876723Y-49431428D01*
X103876723Y-49431428D02*
X103781485Y-49383809D01*
X103781485Y-49383809D02*
X103733866Y-49288571D01*
X103733866Y-49288571D02*
X103733866Y-49050476D01*
X103733866Y-49050476D02*
X103686247Y-48955238D01*
X103448152Y-48621904D02*
X103448152Y-48240952D01*
X103114819Y-48479047D02*
X103971961Y-48479047D01*
X103971961Y-48479047D02*
X104067200Y-48431428D01*
X104067200Y-48431428D02*
X104114819Y-48336190D01*
X104114819Y-48336190D02*
X104114819Y-48240952D01*
X104114819Y-47764761D02*
X104067200Y-47859999D01*
X104067200Y-47859999D02*
X104019580Y-47907618D01*
X104019580Y-47907618D02*
X103924342Y-47955237D01*
X103924342Y-47955237D02*
X103638628Y-47955237D01*
X103638628Y-47955237D02*
X103543390Y-47907618D01*
X103543390Y-47907618D02*
X103495771Y-47859999D01*
X103495771Y-47859999D02*
X103448152Y-47764761D01*
X103448152Y-47764761D02*
X103448152Y-47621904D01*
X103448152Y-47621904D02*
X103495771Y-47526666D01*
X103495771Y-47526666D02*
X103543390Y-47479047D01*
X103543390Y-47479047D02*
X103638628Y-47431428D01*
X103638628Y-47431428D02*
X103924342Y-47431428D01*
X103924342Y-47431428D02*
X104019580Y-47479047D01*
X104019580Y-47479047D02*
X104067200Y-47526666D01*
X104067200Y-47526666D02*
X104114819Y-47621904D01*
X104114819Y-47621904D02*
X104114819Y-47764761D01*
X104114819Y-47002856D02*
X103448152Y-47002856D01*
X103638628Y-47002856D02*
X103543390Y-46955237D01*
X103543390Y-46955237D02*
X103495771Y-46907618D01*
X103495771Y-46907618D02*
X103448152Y-46812380D01*
X103448152Y-46812380D02*
X103448152Y-46717142D01*
X104114819Y-45098094D02*
X104114819Y-45669522D01*
X104114819Y-45383808D02*
X103114819Y-45383808D01*
X103114819Y-45383808D02*
X103257676Y-45479046D01*
X103257676Y-45479046D02*
X103352914Y-45574284D01*
X103352914Y-45574284D02*
X103400533Y-45669522D01*
X107669104Y-66011905D02*
X107669104Y-65535715D01*
X107954819Y-66107143D02*
X106954819Y-65773810D01*
X106954819Y-65773810D02*
X107954819Y-65440477D01*
X107907200Y-64678572D02*
X107954819Y-64773810D01*
X107954819Y-64773810D02*
X107954819Y-64964286D01*
X107954819Y-64964286D02*
X107907200Y-65059524D01*
X107907200Y-65059524D02*
X107859580Y-65107143D01*
X107859580Y-65107143D02*
X107764342Y-65154762D01*
X107764342Y-65154762D02*
X107478628Y-65154762D01*
X107478628Y-65154762D02*
X107383390Y-65107143D01*
X107383390Y-65107143D02*
X107335771Y-65059524D01*
X107335771Y-65059524D02*
X107288152Y-64964286D01*
X107288152Y-64964286D02*
X107288152Y-64773810D01*
X107288152Y-64773810D02*
X107335771Y-64678572D01*
X107288152Y-64392857D02*
X107288152Y-64011905D01*
X106954819Y-64250000D02*
X107811961Y-64250000D01*
X107811961Y-64250000D02*
X107907200Y-64202381D01*
X107907200Y-64202381D02*
X107954819Y-64107143D01*
X107954819Y-64107143D02*
X107954819Y-64011905D01*
X107288152Y-63250000D02*
X107954819Y-63250000D01*
X107288152Y-63678571D02*
X107811961Y-63678571D01*
X107811961Y-63678571D02*
X107907200Y-63630952D01*
X107907200Y-63630952D02*
X107954819Y-63535714D01*
X107954819Y-63535714D02*
X107954819Y-63392857D01*
X107954819Y-63392857D02*
X107907200Y-63297619D01*
X107907200Y-63297619D02*
X107859580Y-63250000D01*
X107954819Y-62345238D02*
X107431009Y-62345238D01*
X107431009Y-62345238D02*
X107335771Y-62392857D01*
X107335771Y-62392857D02*
X107288152Y-62488095D01*
X107288152Y-62488095D02*
X107288152Y-62678571D01*
X107288152Y-62678571D02*
X107335771Y-62773809D01*
X107907200Y-62345238D02*
X107954819Y-62440476D01*
X107954819Y-62440476D02*
X107954819Y-62678571D01*
X107954819Y-62678571D02*
X107907200Y-62773809D01*
X107907200Y-62773809D02*
X107811961Y-62821428D01*
X107811961Y-62821428D02*
X107716723Y-62821428D01*
X107716723Y-62821428D02*
X107621485Y-62773809D01*
X107621485Y-62773809D02*
X107573866Y-62678571D01*
X107573866Y-62678571D02*
X107573866Y-62440476D01*
X107573866Y-62440476D02*
X107526247Y-62345238D01*
X107288152Y-62011904D02*
X107288152Y-61630952D01*
X106954819Y-61869047D02*
X107811961Y-61869047D01*
X107811961Y-61869047D02*
X107907200Y-61821428D01*
X107907200Y-61821428D02*
X107954819Y-61726190D01*
X107954819Y-61726190D02*
X107954819Y-61630952D01*
X107954819Y-61154761D02*
X107907200Y-61249999D01*
X107907200Y-61249999D02*
X107859580Y-61297618D01*
X107859580Y-61297618D02*
X107764342Y-61345237D01*
X107764342Y-61345237D02*
X107478628Y-61345237D01*
X107478628Y-61345237D02*
X107383390Y-61297618D01*
X107383390Y-61297618D02*
X107335771Y-61249999D01*
X107335771Y-61249999D02*
X107288152Y-61154761D01*
X107288152Y-61154761D02*
X107288152Y-61011904D01*
X107288152Y-61011904D02*
X107335771Y-60916666D01*
X107335771Y-60916666D02*
X107383390Y-60869047D01*
X107383390Y-60869047D02*
X107478628Y-60821428D01*
X107478628Y-60821428D02*
X107764342Y-60821428D01*
X107764342Y-60821428D02*
X107859580Y-60869047D01*
X107859580Y-60869047D02*
X107907200Y-60916666D01*
X107907200Y-60916666D02*
X107954819Y-61011904D01*
X107954819Y-61011904D02*
X107954819Y-61154761D01*
X107954819Y-60392856D02*
X107288152Y-60392856D01*
X107478628Y-60392856D02*
X107383390Y-60345237D01*
X107383390Y-60345237D02*
X107335771Y-60297618D01*
X107335771Y-60297618D02*
X107288152Y-60202380D01*
X107288152Y-60202380D02*
X107288152Y-60107142D01*
X107050057Y-59059522D02*
X107002438Y-59011903D01*
X107002438Y-59011903D02*
X106954819Y-58916665D01*
X106954819Y-58916665D02*
X106954819Y-58678570D01*
X106954819Y-58678570D02*
X107002438Y-58583332D01*
X107002438Y-58583332D02*
X107050057Y-58535713D01*
X107050057Y-58535713D02*
X107145295Y-58488094D01*
X107145295Y-58488094D02*
X107240533Y-58488094D01*
X107240533Y-58488094D02*
X107383390Y-58535713D01*
X107383390Y-58535713D02*
X107954819Y-59107141D01*
X107954819Y-59107141D02*
X107954819Y-58488094D01*
X131433333Y-83654819D02*
X131433333Y-82654819D01*
X131433333Y-82654819D02*
X131814285Y-82654819D01*
X131814285Y-82654819D02*
X131909523Y-82702438D01*
X131909523Y-82702438D02*
X131957142Y-82750057D01*
X131957142Y-82750057D02*
X132004761Y-82845295D01*
X132004761Y-82845295D02*
X132004761Y-82988152D01*
X132004761Y-82988152D02*
X131957142Y-83083390D01*
X131957142Y-83083390D02*
X131909523Y-83131009D01*
X131909523Y-83131009D02*
X131814285Y-83178628D01*
X131814285Y-83178628D02*
X131433333Y-83178628D01*
X132338095Y-82654819D02*
X132576190Y-83654819D01*
X132576190Y-83654819D02*
X132766666Y-82940533D01*
X132766666Y-82940533D02*
X132957142Y-83654819D01*
X132957142Y-83654819D02*
X133195238Y-82654819D01*
X134147618Y-83654819D02*
X133814285Y-83178628D01*
X133576190Y-83654819D02*
X133576190Y-82654819D01*
X133576190Y-82654819D02*
X133957142Y-82654819D01*
X133957142Y-82654819D02*
X134052380Y-82702438D01*
X134052380Y-82702438D02*
X134099999Y-82750057D01*
X134099999Y-82750057D02*
X134147618Y-82845295D01*
X134147618Y-82845295D02*
X134147618Y-82988152D01*
X134147618Y-82988152D02*
X134099999Y-83083390D01*
X134099999Y-83083390D02*
X134052380Y-83131009D01*
X134052380Y-83131009D02*
X133957142Y-83178628D01*
X133957142Y-83178628D02*
X133576190Y-83178628D01*
X134338095Y-83750057D02*
X135099999Y-83750057D01*
X135623809Y-82654819D02*
X135623809Y-83369104D01*
X135623809Y-83369104D02*
X135576190Y-83511961D01*
X135576190Y-83511961D02*
X135480952Y-83607200D01*
X135480952Y-83607200D02*
X135338095Y-83654819D01*
X135338095Y-83654819D02*
X135242857Y-83654819D01*
X136100000Y-83654819D02*
X136100000Y-82654819D01*
X136100000Y-82654819D02*
X136433333Y-83369104D01*
X136433333Y-83369104D02*
X136766666Y-82654819D01*
X136766666Y-82654819D02*
X136766666Y-83654819D01*
X137242857Y-83654819D02*
X137242857Y-82654819D01*
X137242857Y-82654819D02*
X137623809Y-82654819D01*
X137623809Y-82654819D02*
X137719047Y-82702438D01*
X137719047Y-82702438D02*
X137766666Y-82750057D01*
X137766666Y-82750057D02*
X137814285Y-82845295D01*
X137814285Y-82845295D02*
X137814285Y-82988152D01*
X137814285Y-82988152D02*
X137766666Y-83083390D01*
X137766666Y-83083390D02*
X137719047Y-83131009D01*
X137719047Y-83131009D02*
X137623809Y-83178628D01*
X137623809Y-83178628D02*
X137242857Y-83178628D01*
D14*
X102754383Y-70377014D02*
X102623149Y-70189538D01*
X102529411Y-70377014D02*
X102529411Y-69983313D01*
X102529411Y-69983313D02*
X102679392Y-69983313D01*
X102679392Y-69983313D02*
X102716888Y-70002061D01*
X102716888Y-70002061D02*
X102735635Y-70020809D01*
X102735635Y-70020809D02*
X102754383Y-70058304D01*
X102754383Y-70058304D02*
X102754383Y-70114547D01*
X102754383Y-70114547D02*
X102735635Y-70152042D01*
X102735635Y-70152042D02*
X102716888Y-70170790D01*
X102716888Y-70170790D02*
X102679392Y-70189538D01*
X102679392Y-70189538D02*
X102529411Y-70189538D01*
X102941860Y-70377014D02*
X103016850Y-70377014D01*
X103016850Y-70377014D02*
X103054346Y-70358267D01*
X103054346Y-70358267D02*
X103073093Y-70339519D01*
X103073093Y-70339519D02*
X103110589Y-70283276D01*
X103110589Y-70283276D02*
X103129336Y-70208285D01*
X103129336Y-70208285D02*
X103129336Y-70058304D01*
X103129336Y-70058304D02*
X103110589Y-70020809D01*
X103110589Y-70020809D02*
X103091841Y-70002061D01*
X103091841Y-70002061D02*
X103054346Y-69983313D01*
X103054346Y-69983313D02*
X102979355Y-69983313D01*
X102979355Y-69983313D02*
X102941860Y-70002061D01*
X102941860Y-70002061D02*
X102923112Y-70020809D01*
X102923112Y-70020809D02*
X102904364Y-70058304D01*
X102904364Y-70058304D02*
X102904364Y-70152042D01*
X102904364Y-70152042D02*
X102923112Y-70189538D01*
X102923112Y-70189538D02*
X102941860Y-70208285D01*
X102941860Y-70208285D02*
X102979355Y-70227033D01*
X102979355Y-70227033D02*
X103054346Y-70227033D01*
X103054346Y-70227033D02*
X103091841Y-70208285D01*
X103091841Y-70208285D02*
X103110589Y-70189538D01*
X103110589Y-70189538D02*
X103129336Y-70152042D01*
D15*
X107469104Y-81601905D02*
X107469104Y-81125715D01*
X107754819Y-81697143D02*
X106754819Y-81363810D01*
X106754819Y-81363810D02*
X107754819Y-81030477D01*
X107707200Y-80268572D02*
X107754819Y-80363810D01*
X107754819Y-80363810D02*
X107754819Y-80554286D01*
X107754819Y-80554286D02*
X107707200Y-80649524D01*
X107707200Y-80649524D02*
X107659580Y-80697143D01*
X107659580Y-80697143D02*
X107564342Y-80744762D01*
X107564342Y-80744762D02*
X107278628Y-80744762D01*
X107278628Y-80744762D02*
X107183390Y-80697143D01*
X107183390Y-80697143D02*
X107135771Y-80649524D01*
X107135771Y-80649524D02*
X107088152Y-80554286D01*
X107088152Y-80554286D02*
X107088152Y-80363810D01*
X107088152Y-80363810D02*
X107135771Y-80268572D01*
X107088152Y-79982857D02*
X107088152Y-79601905D01*
X106754819Y-79840000D02*
X107611961Y-79840000D01*
X107611961Y-79840000D02*
X107707200Y-79792381D01*
X107707200Y-79792381D02*
X107754819Y-79697143D01*
X107754819Y-79697143D02*
X107754819Y-79601905D01*
X107088152Y-78840000D02*
X107754819Y-78840000D01*
X107088152Y-79268571D02*
X107611961Y-79268571D01*
X107611961Y-79268571D02*
X107707200Y-79220952D01*
X107707200Y-79220952D02*
X107754819Y-79125714D01*
X107754819Y-79125714D02*
X107754819Y-78982857D01*
X107754819Y-78982857D02*
X107707200Y-78887619D01*
X107707200Y-78887619D02*
X107659580Y-78840000D01*
X107754819Y-77935238D02*
X107231009Y-77935238D01*
X107231009Y-77935238D02*
X107135771Y-77982857D01*
X107135771Y-77982857D02*
X107088152Y-78078095D01*
X107088152Y-78078095D02*
X107088152Y-78268571D01*
X107088152Y-78268571D02*
X107135771Y-78363809D01*
X107707200Y-77935238D02*
X107754819Y-78030476D01*
X107754819Y-78030476D02*
X107754819Y-78268571D01*
X107754819Y-78268571D02*
X107707200Y-78363809D01*
X107707200Y-78363809D02*
X107611961Y-78411428D01*
X107611961Y-78411428D02*
X107516723Y-78411428D01*
X107516723Y-78411428D02*
X107421485Y-78363809D01*
X107421485Y-78363809D02*
X107373866Y-78268571D01*
X107373866Y-78268571D02*
X107373866Y-78030476D01*
X107373866Y-78030476D02*
X107326247Y-77935238D01*
X107088152Y-77601904D02*
X107088152Y-77220952D01*
X106754819Y-77459047D02*
X107611961Y-77459047D01*
X107611961Y-77459047D02*
X107707200Y-77411428D01*
X107707200Y-77411428D02*
X107754819Y-77316190D01*
X107754819Y-77316190D02*
X107754819Y-77220952D01*
X107754819Y-76744761D02*
X107707200Y-76839999D01*
X107707200Y-76839999D02*
X107659580Y-76887618D01*
X107659580Y-76887618D02*
X107564342Y-76935237D01*
X107564342Y-76935237D02*
X107278628Y-76935237D01*
X107278628Y-76935237D02*
X107183390Y-76887618D01*
X107183390Y-76887618D02*
X107135771Y-76839999D01*
X107135771Y-76839999D02*
X107088152Y-76744761D01*
X107088152Y-76744761D02*
X107088152Y-76601904D01*
X107088152Y-76601904D02*
X107135771Y-76506666D01*
X107135771Y-76506666D02*
X107183390Y-76459047D01*
X107183390Y-76459047D02*
X107278628Y-76411428D01*
X107278628Y-76411428D02*
X107564342Y-76411428D01*
X107564342Y-76411428D02*
X107659580Y-76459047D01*
X107659580Y-76459047D02*
X107707200Y-76506666D01*
X107707200Y-76506666D02*
X107754819Y-76601904D01*
X107754819Y-76601904D02*
X107754819Y-76744761D01*
X107754819Y-75982856D02*
X107088152Y-75982856D01*
X107278628Y-75982856D02*
X107183390Y-75935237D01*
X107183390Y-75935237D02*
X107135771Y-75887618D01*
X107135771Y-75887618D02*
X107088152Y-75792380D01*
X107088152Y-75792380D02*
X107088152Y-75697142D01*
X106754819Y-74697141D02*
X106754819Y-74078094D01*
X106754819Y-74078094D02*
X107135771Y-74411427D01*
X107135771Y-74411427D02*
X107135771Y-74268570D01*
X107135771Y-74268570D02*
X107183390Y-74173332D01*
X107183390Y-74173332D02*
X107231009Y-74125713D01*
X107231009Y-74125713D02*
X107326247Y-74078094D01*
X107326247Y-74078094D02*
X107564342Y-74078094D01*
X107564342Y-74078094D02*
X107659580Y-74125713D01*
X107659580Y-74125713D02*
X107707200Y-74173332D01*
X107707200Y-74173332D02*
X107754819Y-74268570D01*
X107754819Y-74268570D02*
X107754819Y-74554284D01*
X107754819Y-74554284D02*
X107707200Y-74649522D01*
X107707200Y-74649522D02*
X107659580Y-74697141D01*
D14*
X136949519Y-60775616D02*
X136968267Y-60794364D01*
X136968267Y-60794364D02*
X136987014Y-60850607D01*
X136987014Y-60850607D02*
X136987014Y-60888102D01*
X136987014Y-60888102D02*
X136968267Y-60944345D01*
X136968267Y-60944345D02*
X136930771Y-60981841D01*
X136930771Y-60981841D02*
X136893276Y-61000588D01*
X136893276Y-61000588D02*
X136818285Y-61019336D01*
X136818285Y-61019336D02*
X136762042Y-61019336D01*
X136762042Y-61019336D02*
X136687052Y-61000588D01*
X136687052Y-61000588D02*
X136649556Y-60981841D01*
X136649556Y-60981841D02*
X136612061Y-60944345D01*
X136612061Y-60944345D02*
X136593313Y-60888102D01*
X136593313Y-60888102D02*
X136593313Y-60850607D01*
X136593313Y-60850607D02*
X136612061Y-60794364D01*
X136612061Y-60794364D02*
X136630809Y-60775616D01*
X136593313Y-60644383D02*
X136593313Y-60400663D01*
X136593313Y-60400663D02*
X136743295Y-60531897D01*
X136743295Y-60531897D02*
X136743295Y-60475654D01*
X136743295Y-60475654D02*
X136762042Y-60438158D01*
X136762042Y-60438158D02*
X136780790Y-60419411D01*
X136780790Y-60419411D02*
X136818285Y-60400663D01*
X136818285Y-60400663D02*
X136912024Y-60400663D01*
X136912024Y-60400663D02*
X136949519Y-60419411D01*
X136949519Y-60419411D02*
X136968267Y-60438158D01*
X136968267Y-60438158D02*
X136987014Y-60475654D01*
X136987014Y-60475654D02*
X136987014Y-60588140D01*
X136987014Y-60588140D02*
X136968267Y-60625635D01*
X136968267Y-60625635D02*
X136949519Y-60644383D01*
X115824383Y-53797014D02*
X115693149Y-53609538D01*
X115599411Y-53797014D02*
X115599411Y-53403313D01*
X115599411Y-53403313D02*
X115749392Y-53403313D01*
X115749392Y-53403313D02*
X115786888Y-53422061D01*
X115786888Y-53422061D02*
X115805635Y-53440809D01*
X115805635Y-53440809D02*
X115824383Y-53478304D01*
X115824383Y-53478304D02*
X115824383Y-53534547D01*
X115824383Y-53534547D02*
X115805635Y-53572042D01*
X115805635Y-53572042D02*
X115786888Y-53590790D01*
X115786888Y-53590790D02*
X115749392Y-53609538D01*
X115749392Y-53609538D02*
X115599411Y-53609538D01*
X116161841Y-53403313D02*
X116086850Y-53403313D01*
X116086850Y-53403313D02*
X116049355Y-53422061D01*
X116049355Y-53422061D02*
X116030607Y-53440809D01*
X116030607Y-53440809D02*
X115993112Y-53497052D01*
X115993112Y-53497052D02*
X115974364Y-53572042D01*
X115974364Y-53572042D02*
X115974364Y-53722024D01*
X115974364Y-53722024D02*
X115993112Y-53759519D01*
X115993112Y-53759519D02*
X116011860Y-53778267D01*
X116011860Y-53778267D02*
X116049355Y-53797014D01*
X116049355Y-53797014D02*
X116124346Y-53797014D01*
X116124346Y-53797014D02*
X116161841Y-53778267D01*
X116161841Y-53778267D02*
X116180589Y-53759519D01*
X116180589Y-53759519D02*
X116199336Y-53722024D01*
X116199336Y-53722024D02*
X116199336Y-53628285D01*
X116199336Y-53628285D02*
X116180589Y-53590790D01*
X116180589Y-53590790D02*
X116161841Y-53572042D01*
X116161841Y-53572042D02*
X116124346Y-53553295D01*
X116124346Y-53553295D02*
X116049355Y-53553295D01*
X116049355Y-53553295D02*
X116011860Y-53572042D01*
X116011860Y-53572042D02*
X115993112Y-53590790D01*
X115993112Y-53590790D02*
X115974364Y-53628285D01*
X127119519Y-67375616D02*
X127138267Y-67394364D01*
X127138267Y-67394364D02*
X127157014Y-67450607D01*
X127157014Y-67450607D02*
X127157014Y-67488102D01*
X127157014Y-67488102D02*
X127138267Y-67544345D01*
X127138267Y-67544345D02*
X127100771Y-67581841D01*
X127100771Y-67581841D02*
X127063276Y-67600588D01*
X127063276Y-67600588D02*
X126988285Y-67619336D01*
X126988285Y-67619336D02*
X126932042Y-67619336D01*
X126932042Y-67619336D02*
X126857052Y-67600588D01*
X126857052Y-67600588D02*
X126819556Y-67581841D01*
X126819556Y-67581841D02*
X126782061Y-67544345D01*
X126782061Y-67544345D02*
X126763313Y-67488102D01*
X126763313Y-67488102D02*
X126763313Y-67450607D01*
X126763313Y-67450607D02*
X126782061Y-67394364D01*
X126782061Y-67394364D02*
X126800809Y-67375616D01*
X126763313Y-67019411D02*
X126763313Y-67206887D01*
X126763313Y-67206887D02*
X126950790Y-67225635D01*
X126950790Y-67225635D02*
X126932042Y-67206887D01*
X126932042Y-67206887D02*
X126913295Y-67169392D01*
X126913295Y-67169392D02*
X126913295Y-67075654D01*
X126913295Y-67075654D02*
X126932042Y-67038158D01*
X126932042Y-67038158D02*
X126950790Y-67019411D01*
X126950790Y-67019411D02*
X126988285Y-67000663D01*
X126988285Y-67000663D02*
X127082024Y-67000663D01*
X127082024Y-67000663D02*
X127119519Y-67019411D01*
X127119519Y-67019411D02*
X127138267Y-67038158D01*
X127138267Y-67038158D02*
X127157014Y-67075654D01*
X127157014Y-67075654D02*
X127157014Y-67169392D01*
X127157014Y-67169392D02*
X127138267Y-67206887D01*
X127138267Y-67206887D02*
X127119519Y-67225635D01*
X115984383Y-101077014D02*
X115853149Y-100889538D01*
X115759411Y-101077014D02*
X115759411Y-100683313D01*
X115759411Y-100683313D02*
X115909392Y-100683313D01*
X115909392Y-100683313D02*
X115946888Y-100702061D01*
X115946888Y-100702061D02*
X115965635Y-100720809D01*
X115965635Y-100720809D02*
X115984383Y-100758304D01*
X115984383Y-100758304D02*
X115984383Y-100814547D01*
X115984383Y-100814547D02*
X115965635Y-100852042D01*
X115965635Y-100852042D02*
X115946888Y-100870790D01*
X115946888Y-100870790D02*
X115909392Y-100889538D01*
X115909392Y-100889538D02*
X115759411Y-100889538D01*
X116209355Y-100852042D02*
X116171860Y-100833295D01*
X116171860Y-100833295D02*
X116153112Y-100814547D01*
X116153112Y-100814547D02*
X116134364Y-100777052D01*
X116134364Y-100777052D02*
X116134364Y-100758304D01*
X116134364Y-100758304D02*
X116153112Y-100720809D01*
X116153112Y-100720809D02*
X116171860Y-100702061D01*
X116171860Y-100702061D02*
X116209355Y-100683313D01*
X116209355Y-100683313D02*
X116284346Y-100683313D01*
X116284346Y-100683313D02*
X116321841Y-100702061D01*
X116321841Y-100702061D02*
X116340589Y-100720809D01*
X116340589Y-100720809D02*
X116359336Y-100758304D01*
X116359336Y-100758304D02*
X116359336Y-100777052D01*
X116359336Y-100777052D02*
X116340589Y-100814547D01*
X116340589Y-100814547D02*
X116321841Y-100833295D01*
X116321841Y-100833295D02*
X116284346Y-100852042D01*
X116284346Y-100852042D02*
X116209355Y-100852042D01*
X116209355Y-100852042D02*
X116171860Y-100870790D01*
X116171860Y-100870790D02*
X116153112Y-100889538D01*
X116153112Y-100889538D02*
X116134364Y-100927033D01*
X116134364Y-100927033D02*
X116134364Y-101002024D01*
X116134364Y-101002024D02*
X116153112Y-101039519D01*
X116153112Y-101039519D02*
X116171860Y-101058267D01*
X116171860Y-101058267D02*
X116209355Y-101077014D01*
X116209355Y-101077014D02*
X116284346Y-101077014D01*
X116284346Y-101077014D02*
X116321841Y-101058267D01*
X116321841Y-101058267D02*
X116340589Y-101039519D01*
X116340589Y-101039519D02*
X116359336Y-101002024D01*
X116359336Y-101002024D02*
X116359336Y-100927033D01*
X116359336Y-100927033D02*
X116340589Y-100889538D01*
X116340589Y-100889538D02*
X116321841Y-100870790D01*
X116321841Y-100870790D02*
X116284346Y-100852042D01*
X165479519Y-57315616D02*
X165498267Y-57334364D01*
X165498267Y-57334364D02*
X165517014Y-57390607D01*
X165517014Y-57390607D02*
X165517014Y-57428102D01*
X165517014Y-57428102D02*
X165498267Y-57484345D01*
X165498267Y-57484345D02*
X165460771Y-57521841D01*
X165460771Y-57521841D02*
X165423276Y-57540588D01*
X165423276Y-57540588D02*
X165348285Y-57559336D01*
X165348285Y-57559336D02*
X165292042Y-57559336D01*
X165292042Y-57559336D02*
X165217052Y-57540588D01*
X165217052Y-57540588D02*
X165179556Y-57521841D01*
X165179556Y-57521841D02*
X165142061Y-57484345D01*
X165142061Y-57484345D02*
X165123313Y-57428102D01*
X165123313Y-57428102D02*
X165123313Y-57390607D01*
X165123313Y-57390607D02*
X165142061Y-57334364D01*
X165142061Y-57334364D02*
X165160809Y-57315616D01*
X165517014Y-56940663D02*
X165517014Y-57165635D01*
X165517014Y-57053149D02*
X165123313Y-57053149D01*
X165123313Y-57053149D02*
X165179556Y-57090644D01*
X165179556Y-57090644D02*
X165217052Y-57128140D01*
X165217052Y-57128140D02*
X165235799Y-57165635D01*
D15*
X148359524Y-88304819D02*
X148359524Y-87304819D01*
X148359524Y-87304819D02*
X148692857Y-88019104D01*
X148692857Y-88019104D02*
X149026190Y-87304819D01*
X149026190Y-87304819D02*
X149026190Y-88304819D01*
X149264286Y-88400057D02*
X150026190Y-88400057D01*
X150264286Y-87781009D02*
X150597619Y-87781009D01*
X150740476Y-88304819D02*
X150264286Y-88304819D01*
X150264286Y-88304819D02*
X150264286Y-87304819D01*
X150264286Y-87304819D02*
X150740476Y-87304819D01*
X151169048Y-88304819D02*
X151169048Y-87304819D01*
X151169048Y-87304819D02*
X151740476Y-88304819D01*
X151740476Y-88304819D02*
X151740476Y-87304819D01*
X152788095Y-88209580D02*
X152740476Y-88257200D01*
X152740476Y-88257200D02*
X152597619Y-88304819D01*
X152597619Y-88304819D02*
X152502381Y-88304819D01*
X152502381Y-88304819D02*
X152359524Y-88257200D01*
X152359524Y-88257200D02*
X152264286Y-88161961D01*
X152264286Y-88161961D02*
X152216667Y-88066723D01*
X152216667Y-88066723D02*
X152169048Y-87876247D01*
X152169048Y-87876247D02*
X152169048Y-87733390D01*
X152169048Y-87733390D02*
X152216667Y-87542914D01*
X152216667Y-87542914D02*
X152264286Y-87447676D01*
X152264286Y-87447676D02*
X152359524Y-87352438D01*
X152359524Y-87352438D02*
X152502381Y-87304819D01*
X152502381Y-87304819D02*
X152597619Y-87304819D01*
X152597619Y-87304819D02*
X152740476Y-87352438D01*
X152740476Y-87352438D02*
X152788095Y-87400057D01*
D14*
X102566907Y-68087014D02*
X102435673Y-67899538D01*
X102341935Y-68087014D02*
X102341935Y-67693313D01*
X102341935Y-67693313D02*
X102491916Y-67693313D01*
X102491916Y-67693313D02*
X102529412Y-67712061D01*
X102529412Y-67712061D02*
X102548159Y-67730809D01*
X102548159Y-67730809D02*
X102566907Y-67768304D01*
X102566907Y-67768304D02*
X102566907Y-67824547D01*
X102566907Y-67824547D02*
X102548159Y-67862042D01*
X102548159Y-67862042D02*
X102529412Y-67880790D01*
X102529412Y-67880790D02*
X102491916Y-67899538D01*
X102491916Y-67899538D02*
X102341935Y-67899538D01*
X102941860Y-68087014D02*
X102716888Y-68087014D01*
X102829374Y-68087014D02*
X102829374Y-67693313D01*
X102829374Y-67693313D02*
X102791879Y-67749556D01*
X102791879Y-67749556D02*
X102754384Y-67787052D01*
X102754384Y-67787052D02*
X102716888Y-67805799D01*
X103185580Y-67693313D02*
X103223075Y-67693313D01*
X103223075Y-67693313D02*
X103260570Y-67712061D01*
X103260570Y-67712061D02*
X103279318Y-67730809D01*
X103279318Y-67730809D02*
X103298066Y-67768304D01*
X103298066Y-67768304D02*
X103316813Y-67843295D01*
X103316813Y-67843295D02*
X103316813Y-67937033D01*
X103316813Y-67937033D02*
X103298066Y-68012024D01*
X103298066Y-68012024D02*
X103279318Y-68049519D01*
X103279318Y-68049519D02*
X103260570Y-68068267D01*
X103260570Y-68068267D02*
X103223075Y-68087014D01*
X103223075Y-68087014D02*
X103185580Y-68087014D01*
X103185580Y-68087014D02*
X103148084Y-68068267D01*
X103148084Y-68068267D02*
X103129337Y-68049519D01*
X103129337Y-68049519D02*
X103110589Y-68012024D01*
X103110589Y-68012024D02*
X103091841Y-67937033D01*
X103091841Y-67937033D02*
X103091841Y-67843295D01*
X103091841Y-67843295D02*
X103110589Y-67768304D01*
X103110589Y-67768304D02*
X103129337Y-67730809D01*
X103129337Y-67730809D02*
X103148084Y-67712061D01*
X103148084Y-67712061D02*
X103185580Y-67693313D01*
D15*
X128454762Y-88304819D02*
X128454762Y-87304819D01*
X128454762Y-87304819D02*
X128788095Y-88019104D01*
X128788095Y-88019104D02*
X129121428Y-87304819D01*
X129121428Y-87304819D02*
X129121428Y-88304819D01*
X129359524Y-88400057D02*
X130121428Y-88400057D01*
X130883333Y-88304819D02*
X130311905Y-88304819D01*
X130597619Y-88304819D02*
X130597619Y-87304819D01*
X130597619Y-87304819D02*
X130502381Y-87447676D01*
X130502381Y-87447676D02*
X130407143Y-87542914D01*
X130407143Y-87542914D02*
X130311905Y-87590533D01*
X131788095Y-87304819D02*
X131311905Y-87304819D01*
X131311905Y-87304819D02*
X131264286Y-87781009D01*
X131264286Y-87781009D02*
X131311905Y-87733390D01*
X131311905Y-87733390D02*
X131407143Y-87685771D01*
X131407143Y-87685771D02*
X131645238Y-87685771D01*
X131645238Y-87685771D02*
X131740476Y-87733390D01*
X131740476Y-87733390D02*
X131788095Y-87781009D01*
X131788095Y-87781009D02*
X131835714Y-87876247D01*
X131835714Y-87876247D02*
X131835714Y-88114342D01*
X131835714Y-88114342D02*
X131788095Y-88209580D01*
X131788095Y-88209580D02*
X131740476Y-88257200D01*
X131740476Y-88257200D02*
X131645238Y-88304819D01*
X131645238Y-88304819D02*
X131407143Y-88304819D01*
X131407143Y-88304819D02*
X131311905Y-88257200D01*
X131311905Y-88257200D02*
X131264286Y-88209580D01*
X132121429Y-87304819D02*
X132454762Y-88304819D01*
X132454762Y-88304819D02*
X132788095Y-87304819D01*
D14*
X115984383Y-103477014D02*
X115853149Y-103289538D01*
X115759411Y-103477014D02*
X115759411Y-103083313D01*
X115759411Y-103083313D02*
X115909392Y-103083313D01*
X115909392Y-103083313D02*
X115946888Y-103102061D01*
X115946888Y-103102061D02*
X115965635Y-103120809D01*
X115965635Y-103120809D02*
X115984383Y-103158304D01*
X115984383Y-103158304D02*
X115984383Y-103214547D01*
X115984383Y-103214547D02*
X115965635Y-103252042D01*
X115965635Y-103252042D02*
X115946888Y-103270790D01*
X115946888Y-103270790D02*
X115909392Y-103289538D01*
X115909392Y-103289538D02*
X115759411Y-103289538D01*
X116115617Y-103083313D02*
X116378084Y-103083313D01*
X116378084Y-103083313D02*
X116209355Y-103477014D01*
X115794383Y-56157014D02*
X115663149Y-55969538D01*
X115569411Y-56157014D02*
X115569411Y-55763313D01*
X115569411Y-55763313D02*
X115719392Y-55763313D01*
X115719392Y-55763313D02*
X115756888Y-55782061D01*
X115756888Y-55782061D02*
X115775635Y-55800809D01*
X115775635Y-55800809D02*
X115794383Y-55838304D01*
X115794383Y-55838304D02*
X115794383Y-55894547D01*
X115794383Y-55894547D02*
X115775635Y-55932042D01*
X115775635Y-55932042D02*
X115756888Y-55950790D01*
X115756888Y-55950790D02*
X115719392Y-55969538D01*
X115719392Y-55969538D02*
X115569411Y-55969538D01*
X116150589Y-55763313D02*
X115963112Y-55763313D01*
X115963112Y-55763313D02*
X115944364Y-55950790D01*
X115944364Y-55950790D02*
X115963112Y-55932042D01*
X115963112Y-55932042D02*
X116000607Y-55913295D01*
X116000607Y-55913295D02*
X116094346Y-55913295D01*
X116094346Y-55913295D02*
X116131841Y-55932042D01*
X116131841Y-55932042D02*
X116150589Y-55950790D01*
X116150589Y-55950790D02*
X116169336Y-55988285D01*
X116169336Y-55988285D02*
X116169336Y-56082024D01*
X116169336Y-56082024D02*
X116150589Y-56119519D01*
X116150589Y-56119519D02*
X116131841Y-56138267D01*
X116131841Y-56138267D02*
X116094346Y-56157014D01*
X116094346Y-56157014D02*
X116000607Y-56157014D01*
X116000607Y-56157014D02*
X115963112Y-56138267D01*
X115963112Y-56138267D02*
X115944364Y-56119519D01*
D15*
X137730952Y-88304819D02*
X137730952Y-87304819D01*
X137730952Y-87304819D02*
X138064285Y-88019104D01*
X138064285Y-88019104D02*
X138397618Y-87304819D01*
X138397618Y-87304819D02*
X138397618Y-88304819D01*
X138635714Y-88400057D02*
X139397618Y-88400057D01*
X140111904Y-87304819D02*
X139635714Y-87304819D01*
X139635714Y-87304819D02*
X139588095Y-87781009D01*
X139588095Y-87781009D02*
X139635714Y-87733390D01*
X139635714Y-87733390D02*
X139730952Y-87685771D01*
X139730952Y-87685771D02*
X139969047Y-87685771D01*
X139969047Y-87685771D02*
X140064285Y-87733390D01*
X140064285Y-87733390D02*
X140111904Y-87781009D01*
X140111904Y-87781009D02*
X140159523Y-87876247D01*
X140159523Y-87876247D02*
X140159523Y-88114342D01*
X140159523Y-88114342D02*
X140111904Y-88209580D01*
X140111904Y-88209580D02*
X140064285Y-88257200D01*
X140064285Y-88257200D02*
X139969047Y-88304819D01*
X139969047Y-88304819D02*
X139730952Y-88304819D01*
X139730952Y-88304819D02*
X139635714Y-88257200D01*
X139635714Y-88257200D02*
X139588095Y-88209580D01*
X140445238Y-87304819D02*
X140778571Y-88304819D01*
X140778571Y-88304819D02*
X141111904Y-87304819D01*
X131738095Y-74444819D02*
X131738095Y-75254342D01*
X131738095Y-75254342D02*
X131785714Y-75349580D01*
X131785714Y-75349580D02*
X131833333Y-75397200D01*
X131833333Y-75397200D02*
X131928571Y-75444819D01*
X131928571Y-75444819D02*
X132119047Y-75444819D01*
X132119047Y-75444819D02*
X132214285Y-75397200D01*
X132214285Y-75397200D02*
X132261904Y-75349580D01*
X132261904Y-75349580D02*
X132309523Y-75254342D01*
X132309523Y-75254342D02*
X132309523Y-74444819D01*
X133309523Y-75444819D02*
X132738095Y-75444819D01*
X133023809Y-75444819D02*
X133023809Y-74444819D01*
X133023809Y-74444819D02*
X132928571Y-74587676D01*
X132928571Y-74587676D02*
X132833333Y-74682914D01*
X132833333Y-74682914D02*
X132738095Y-74730533D01*
X128080000Y-54495119D02*
X128080000Y-54733214D01*
X127841905Y-54637976D02*
X128080000Y-54733214D01*
X128080000Y-54733214D02*
X128318095Y-54637976D01*
X127937143Y-54923690D02*
X128080000Y-54733214D01*
X128080000Y-54733214D02*
X128222857Y-54923690D01*
X103649580Y-100312381D02*
X103697200Y-100360000D01*
X103697200Y-100360000D02*
X103744819Y-100502857D01*
X103744819Y-100502857D02*
X103744819Y-100598095D01*
X103744819Y-100598095D02*
X103697200Y-100740952D01*
X103697200Y-100740952D02*
X103601961Y-100836190D01*
X103601961Y-100836190D02*
X103506723Y-100883809D01*
X103506723Y-100883809D02*
X103316247Y-100931428D01*
X103316247Y-100931428D02*
X103173390Y-100931428D01*
X103173390Y-100931428D02*
X102982914Y-100883809D01*
X102982914Y-100883809D02*
X102887676Y-100836190D01*
X102887676Y-100836190D02*
X102792438Y-100740952D01*
X102792438Y-100740952D02*
X102744819Y-100598095D01*
X102744819Y-100598095D02*
X102744819Y-100502857D01*
X102744819Y-100502857D02*
X102792438Y-100360000D01*
X102792438Y-100360000D02*
X102840057Y-100312381D01*
X103744819Y-99883809D02*
X102744819Y-99883809D01*
X103744819Y-99455238D02*
X103221009Y-99455238D01*
X103221009Y-99455238D02*
X103125771Y-99502857D01*
X103125771Y-99502857D02*
X103078152Y-99598095D01*
X103078152Y-99598095D02*
X103078152Y-99740952D01*
X103078152Y-99740952D02*
X103125771Y-99836190D01*
X103125771Y-99836190D02*
X103173390Y-99883809D01*
X103744819Y-98550476D02*
X103221009Y-98550476D01*
X103221009Y-98550476D02*
X103125771Y-98598095D01*
X103125771Y-98598095D02*
X103078152Y-98693333D01*
X103078152Y-98693333D02*
X103078152Y-98883809D01*
X103078152Y-98883809D02*
X103125771Y-98979047D01*
X103697200Y-98550476D02*
X103744819Y-98645714D01*
X103744819Y-98645714D02*
X103744819Y-98883809D01*
X103744819Y-98883809D02*
X103697200Y-98979047D01*
X103697200Y-98979047D02*
X103601961Y-99026666D01*
X103601961Y-99026666D02*
X103506723Y-99026666D01*
X103506723Y-99026666D02*
X103411485Y-98979047D01*
X103411485Y-98979047D02*
X103363866Y-98883809D01*
X103363866Y-98883809D02*
X103363866Y-98645714D01*
X103363866Y-98645714D02*
X103316247Y-98550476D01*
X103744819Y-98074285D02*
X103078152Y-98074285D01*
X103173390Y-98074285D02*
X103125771Y-98026666D01*
X103125771Y-98026666D02*
X103078152Y-97931428D01*
X103078152Y-97931428D02*
X103078152Y-97788571D01*
X103078152Y-97788571D02*
X103125771Y-97693333D01*
X103125771Y-97693333D02*
X103221009Y-97645714D01*
X103221009Y-97645714D02*
X103744819Y-97645714D01*
X103221009Y-97645714D02*
X103125771Y-97598095D01*
X103125771Y-97598095D02*
X103078152Y-97502857D01*
X103078152Y-97502857D02*
X103078152Y-97360000D01*
X103078152Y-97360000D02*
X103125771Y-97264761D01*
X103125771Y-97264761D02*
X103221009Y-97217142D01*
X103221009Y-97217142D02*
X103744819Y-97217142D01*
X103744819Y-96740952D02*
X102744819Y-96740952D01*
X103125771Y-96740952D02*
X103078152Y-96645714D01*
X103078152Y-96645714D02*
X103078152Y-96455238D01*
X103078152Y-96455238D02*
X103125771Y-96360000D01*
X103125771Y-96360000D02*
X103173390Y-96312381D01*
X103173390Y-96312381D02*
X103268628Y-96264762D01*
X103268628Y-96264762D02*
X103554342Y-96264762D01*
X103554342Y-96264762D02*
X103649580Y-96312381D01*
X103649580Y-96312381D02*
X103697200Y-96360000D01*
X103697200Y-96360000D02*
X103744819Y-96455238D01*
X103744819Y-96455238D02*
X103744819Y-96645714D01*
X103744819Y-96645714D02*
X103697200Y-96740952D01*
X103697200Y-95455238D02*
X103744819Y-95550476D01*
X103744819Y-95550476D02*
X103744819Y-95740952D01*
X103744819Y-95740952D02*
X103697200Y-95836190D01*
X103697200Y-95836190D02*
X103601961Y-95883809D01*
X103601961Y-95883809D02*
X103221009Y-95883809D01*
X103221009Y-95883809D02*
X103125771Y-95836190D01*
X103125771Y-95836190D02*
X103078152Y-95740952D01*
X103078152Y-95740952D02*
X103078152Y-95550476D01*
X103078152Y-95550476D02*
X103125771Y-95455238D01*
X103125771Y-95455238D02*
X103221009Y-95407619D01*
X103221009Y-95407619D02*
X103316247Y-95407619D01*
X103316247Y-95407619D02*
X103411485Y-95883809D01*
X103744819Y-94979047D02*
X103078152Y-94979047D01*
X103268628Y-94979047D02*
X103173390Y-94931428D01*
X103173390Y-94931428D02*
X103125771Y-94883809D01*
X103125771Y-94883809D02*
X103078152Y-94788571D01*
X103078152Y-94788571D02*
X103078152Y-94693333D01*
X141747618Y-103654819D02*
X141747618Y-104369104D01*
X141747618Y-104369104D02*
X141699999Y-104511961D01*
X141699999Y-104511961D02*
X141604761Y-104607200D01*
X141604761Y-104607200D02*
X141461904Y-104654819D01*
X141461904Y-104654819D02*
X141366666Y-104654819D01*
X142366666Y-104654819D02*
X142271428Y-104607200D01*
X142271428Y-104607200D02*
X142223809Y-104559580D01*
X142223809Y-104559580D02*
X142176190Y-104464342D01*
X142176190Y-104464342D02*
X142176190Y-104178628D01*
X142176190Y-104178628D02*
X142223809Y-104083390D01*
X142223809Y-104083390D02*
X142271428Y-104035771D01*
X142271428Y-104035771D02*
X142366666Y-103988152D01*
X142366666Y-103988152D02*
X142509523Y-103988152D01*
X142509523Y-103988152D02*
X142604761Y-104035771D01*
X142604761Y-104035771D02*
X142652380Y-104083390D01*
X142652380Y-104083390D02*
X142699999Y-104178628D01*
X142699999Y-104178628D02*
X142699999Y-104464342D01*
X142699999Y-104464342D02*
X142652380Y-104559580D01*
X142652380Y-104559580D02*
X142604761Y-104607200D01*
X142604761Y-104607200D02*
X142509523Y-104654819D01*
X142509523Y-104654819D02*
X142366666Y-104654819D01*
X143033333Y-103988152D02*
X143271428Y-104654819D01*
X143509523Y-103988152D02*
X143271428Y-104654819D01*
X143271428Y-104654819D02*
X143176190Y-104892914D01*
X143176190Y-104892914D02*
X143128571Y-104940533D01*
X143128571Y-104940533D02*
X143033333Y-104988152D01*
X143842857Y-104607200D02*
X143938095Y-104654819D01*
X143938095Y-104654819D02*
X144128571Y-104654819D01*
X144128571Y-104654819D02*
X144223809Y-104607200D01*
X144223809Y-104607200D02*
X144271428Y-104511961D01*
X144271428Y-104511961D02*
X144271428Y-104464342D01*
X144271428Y-104464342D02*
X144223809Y-104369104D01*
X144223809Y-104369104D02*
X144128571Y-104321485D01*
X144128571Y-104321485D02*
X143985714Y-104321485D01*
X143985714Y-104321485D02*
X143890476Y-104273866D01*
X143890476Y-104273866D02*
X143842857Y-104178628D01*
X143842857Y-104178628D02*
X143842857Y-104131009D01*
X143842857Y-104131009D02*
X143890476Y-104035771D01*
X143890476Y-104035771D02*
X143985714Y-103988152D01*
X143985714Y-103988152D02*
X144128571Y-103988152D01*
X144128571Y-103988152D02*
X144223809Y-104035771D01*
X144557143Y-103988152D02*
X144938095Y-103988152D01*
X144700000Y-103654819D02*
X144700000Y-104511961D01*
X144700000Y-104511961D02*
X144747619Y-104607200D01*
X144747619Y-104607200D02*
X144842857Y-104654819D01*
X144842857Y-104654819D02*
X144938095Y-104654819D01*
X145271429Y-104654819D02*
X145271429Y-103988152D01*
X145271429Y-103654819D02*
X145223810Y-103702438D01*
X145223810Y-103702438D02*
X145271429Y-103750057D01*
X145271429Y-103750057D02*
X145319048Y-103702438D01*
X145319048Y-103702438D02*
X145271429Y-103654819D01*
X145271429Y-103654819D02*
X145271429Y-103750057D01*
X146176190Y-104607200D02*
X146080952Y-104654819D01*
X146080952Y-104654819D02*
X145890476Y-104654819D01*
X145890476Y-104654819D02*
X145795238Y-104607200D01*
X145795238Y-104607200D02*
X145747619Y-104559580D01*
X145747619Y-104559580D02*
X145700000Y-104464342D01*
X145700000Y-104464342D02*
X145700000Y-104178628D01*
X145700000Y-104178628D02*
X145747619Y-104083390D01*
X145747619Y-104083390D02*
X145795238Y-104035771D01*
X145795238Y-104035771D02*
X145890476Y-103988152D01*
X145890476Y-103988152D02*
X146080952Y-103988152D01*
X146080952Y-103988152D02*
X146176190Y-104035771D01*
X146604762Y-104654819D02*
X146604762Y-103654819D01*
X146700000Y-104273866D02*
X146985714Y-104654819D01*
X146985714Y-103988152D02*
X146604762Y-104369104D01*
D14*
X105536907Y-87787014D02*
X105405673Y-87599538D01*
X105311935Y-87787014D02*
X105311935Y-87393313D01*
X105311935Y-87393313D02*
X105461916Y-87393313D01*
X105461916Y-87393313D02*
X105499412Y-87412061D01*
X105499412Y-87412061D02*
X105518159Y-87430809D01*
X105518159Y-87430809D02*
X105536907Y-87468304D01*
X105536907Y-87468304D02*
X105536907Y-87524547D01*
X105536907Y-87524547D02*
X105518159Y-87562042D01*
X105518159Y-87562042D02*
X105499412Y-87580790D01*
X105499412Y-87580790D02*
X105461916Y-87599538D01*
X105461916Y-87599538D02*
X105311935Y-87599538D01*
X105911860Y-87787014D02*
X105686888Y-87787014D01*
X105799374Y-87787014D02*
X105799374Y-87393313D01*
X105799374Y-87393313D02*
X105761879Y-87449556D01*
X105761879Y-87449556D02*
X105724384Y-87487052D01*
X105724384Y-87487052D02*
X105686888Y-87505799D01*
X106286813Y-87787014D02*
X106061841Y-87787014D01*
X106174327Y-87787014D02*
X106174327Y-87393313D01*
X106174327Y-87393313D02*
X106136832Y-87449556D01*
X106136832Y-87449556D02*
X106099337Y-87487052D01*
X106099337Y-87487052D02*
X106061841Y-87505799D01*
X138564383Y-65839519D02*
X138545635Y-65858267D01*
X138545635Y-65858267D02*
X138489392Y-65877014D01*
X138489392Y-65877014D02*
X138451897Y-65877014D01*
X138451897Y-65877014D02*
X138395654Y-65858267D01*
X138395654Y-65858267D02*
X138358159Y-65820771D01*
X138358159Y-65820771D02*
X138339411Y-65783276D01*
X138339411Y-65783276D02*
X138320663Y-65708285D01*
X138320663Y-65708285D02*
X138320663Y-65652042D01*
X138320663Y-65652042D02*
X138339411Y-65577052D01*
X138339411Y-65577052D02*
X138358159Y-65539556D01*
X138358159Y-65539556D02*
X138395654Y-65502061D01*
X138395654Y-65502061D02*
X138451897Y-65483313D01*
X138451897Y-65483313D02*
X138489392Y-65483313D01*
X138489392Y-65483313D02*
X138545635Y-65502061D01*
X138545635Y-65502061D02*
X138564383Y-65520809D01*
X138901841Y-65483313D02*
X138826850Y-65483313D01*
X138826850Y-65483313D02*
X138789355Y-65502061D01*
X138789355Y-65502061D02*
X138770607Y-65520809D01*
X138770607Y-65520809D02*
X138733112Y-65577052D01*
X138733112Y-65577052D02*
X138714364Y-65652042D01*
X138714364Y-65652042D02*
X138714364Y-65802024D01*
X138714364Y-65802024D02*
X138733112Y-65839519D01*
X138733112Y-65839519D02*
X138751860Y-65858267D01*
X138751860Y-65858267D02*
X138789355Y-65877014D01*
X138789355Y-65877014D02*
X138864346Y-65877014D01*
X138864346Y-65877014D02*
X138901841Y-65858267D01*
X138901841Y-65858267D02*
X138920589Y-65839519D01*
X138920589Y-65839519D02*
X138939336Y-65802024D01*
X138939336Y-65802024D02*
X138939336Y-65708285D01*
X138939336Y-65708285D02*
X138920589Y-65670790D01*
X138920589Y-65670790D02*
X138901841Y-65652042D01*
X138901841Y-65652042D02*
X138864346Y-65633295D01*
X138864346Y-65633295D02*
X138789355Y-65633295D01*
X138789355Y-65633295D02*
X138751860Y-65652042D01*
X138751860Y-65652042D02*
X138733112Y-65670790D01*
X138733112Y-65670790D02*
X138714364Y-65708285D01*
D16*
%TO.C,R4*%
X142230000Y-45070000D02*
X143570000Y-45070000D01*
X142230000Y-46770000D02*
X143570000Y-46770000D01*
%TO.C,R3*%
X133260000Y-46700000D02*
X131920000Y-46700000D01*
X133260000Y-45000000D02*
X131920000Y-45000000D01*
%TO.C,R2*%
X155080000Y-46730000D02*
X153740000Y-46730000D01*
X155080000Y-45030000D02*
X153740000Y-45030000D01*
%TO.C,R1*%
X137360000Y-45080000D02*
X138700000Y-45080000D01*
X137360000Y-46780000D02*
X138700000Y-46780000D01*
D17*
%TO.C,D1*%
X152400000Y-82541600D02*
X152400000Y-83811600D01*
X151765000Y-83557600D02*
X153035000Y-83557600D01*
X152400000Y-83557600D02*
X151765000Y-82795600D01*
X152400000Y-83557600D02*
X151892000Y-82795600D01*
X152400000Y-83557600D02*
X152019000Y-82795600D01*
X152400000Y-83557600D02*
X152146000Y-82795600D01*
X152400000Y-83557600D02*
X152273000Y-82795600D01*
X152400000Y-83557600D02*
X153035000Y-82795600D01*
X152400000Y-83557600D02*
X152908000Y-82795600D01*
X152400000Y-83557600D02*
X152781000Y-82795600D01*
X152400000Y-83557600D02*
X152654000Y-82795600D01*
X152400000Y-83557600D02*
X152527000Y-82795600D01*
X151765000Y-82795600D02*
X153035000Y-82795600D01*
X153543000Y-77004400D02*
X153543000Y-71543400D01*
X153543000Y-71543400D02*
X151257000Y-71543400D01*
X151257000Y-71543400D02*
X151257000Y-77004400D01*
X151257000Y-77004400D02*
X153543000Y-77004400D01*
%TO.C,C2*%
X142060000Y-65601500D02*
X142060000Y-66871500D01*
X142695000Y-66236500D02*
X141425000Y-66236500D01*
X146441500Y-71380000D02*
G75*
G02*
X137678500Y-71380000I-4381500J0D01*
G01*
X137678500Y-71380000D02*
G75*
G02*
X146441500Y-71380000I4381500J0D01*
G01*
D18*
%TO.C,Solenoid*%
X157125000Y-77100000D02*
X157125000Y-78350000D01*
X157125000Y-78350000D02*
X158375000Y-78350000D01*
X157415000Y-70440000D02*
X157415000Y-78060000D01*
X157415000Y-78060000D02*
X163385000Y-78060000D01*
X157425000Y-70450000D02*
X157425000Y-72250000D01*
X157425000Y-72250000D02*
X158175000Y-72250000D01*
X157425000Y-73750000D02*
X157425000Y-74750000D01*
X157425000Y-74750000D02*
X158175000Y-74750000D01*
X157425000Y-76250000D02*
X157425000Y-78050000D01*
X157425000Y-78050000D02*
X158175000Y-78050000D01*
X158175000Y-70450000D02*
X157425000Y-70450000D01*
X158175000Y-72250000D02*
X158175000Y-70450000D01*
X158175000Y-73750000D02*
X157425000Y-73750000D01*
X158175000Y-74750000D02*
X158175000Y-73750000D01*
X158175000Y-76250000D02*
X157425000Y-76250000D01*
X158175000Y-78050000D02*
X158175000Y-76250000D01*
X159675000Y-70450000D02*
X159675000Y-71200000D01*
X159675000Y-71200000D02*
X162625000Y-71200000D01*
X159675000Y-77300000D02*
X162625000Y-77300000D01*
X159675000Y-78050000D02*
X159675000Y-77300000D01*
X162625000Y-71200000D02*
X162625000Y-74250000D01*
X162625000Y-77300000D02*
X162625000Y-74250000D01*
X163385000Y-70440000D02*
X157415000Y-70440000D01*
X163385000Y-78060000D02*
X163385000Y-70440000D01*
%TO.C,M_DRV_ARD*%
X157125000Y-68600000D02*
X157125000Y-69850000D01*
X157125000Y-69850000D02*
X158375000Y-69850000D01*
X157415000Y-61940000D02*
X157415000Y-69560000D01*
X157415000Y-69560000D02*
X163385000Y-69560000D01*
X157425000Y-61950000D02*
X157425000Y-63750000D01*
X157425000Y-63750000D02*
X158175000Y-63750000D01*
X157425000Y-65250000D02*
X157425000Y-66250000D01*
X157425000Y-66250000D02*
X158175000Y-66250000D01*
X157425000Y-67750000D02*
X157425000Y-69550000D01*
X157425000Y-69550000D02*
X158175000Y-69550000D01*
X158175000Y-61950000D02*
X157425000Y-61950000D01*
X158175000Y-63750000D02*
X158175000Y-61950000D01*
X158175000Y-65250000D02*
X157425000Y-65250000D01*
X158175000Y-66250000D02*
X158175000Y-65250000D01*
X158175000Y-67750000D02*
X157425000Y-67750000D01*
X158175000Y-69550000D02*
X158175000Y-67750000D01*
X159675000Y-61950000D02*
X159675000Y-62700000D01*
X159675000Y-62700000D02*
X162625000Y-62700000D01*
X159675000Y-68800000D02*
X162625000Y-68800000D01*
X159675000Y-69550000D02*
X159675000Y-68800000D01*
X162625000Y-62700000D02*
X162625000Y-65750000D01*
X162625000Y-68800000D02*
X162625000Y-65750000D01*
X163385000Y-61940000D02*
X157415000Y-61940000D01*
X163385000Y-69560000D02*
X163385000Y-61940000D01*
%TO.C,M_DRV_PWR*%
X157125000Y-85700000D02*
X157125000Y-86950000D01*
X157125000Y-86950000D02*
X158375000Y-86950000D01*
X157415000Y-79040000D02*
X157415000Y-86660000D01*
X157415000Y-86660000D02*
X163385000Y-86660000D01*
X157425000Y-79050000D02*
X157425000Y-80850000D01*
X157425000Y-80850000D02*
X158175000Y-80850000D01*
X157425000Y-82350000D02*
X157425000Y-83350000D01*
X157425000Y-83350000D02*
X158175000Y-83350000D01*
X157425000Y-84850000D02*
X157425000Y-86650000D01*
X157425000Y-86650000D02*
X158175000Y-86650000D01*
X158175000Y-79050000D02*
X157425000Y-79050000D01*
X158175000Y-80850000D02*
X158175000Y-79050000D01*
X158175000Y-82350000D02*
X157425000Y-82350000D01*
X158175000Y-83350000D02*
X158175000Y-82350000D01*
X158175000Y-84850000D02*
X157425000Y-84850000D01*
X158175000Y-86650000D02*
X158175000Y-84850000D01*
X159675000Y-79050000D02*
X159675000Y-79800000D01*
X159675000Y-79800000D02*
X162625000Y-79800000D01*
X159675000Y-85900000D02*
X162625000Y-85900000D01*
X159675000Y-86650000D02*
X159675000Y-85900000D01*
X162625000Y-79800000D02*
X162625000Y-82850000D01*
X162625000Y-85900000D02*
X162625000Y-82850000D01*
X163385000Y-79040000D02*
X157415000Y-79040000D01*
X163385000Y-86660000D02*
X163385000Y-79040000D01*
D16*
%TO.C,R12*%
X105140000Y-84390000D02*
X106480000Y-84390000D01*
X105140000Y-82690000D02*
X106480000Y-82690000D01*
D18*
%TO.C,R_15V*%
X157125000Y-60050000D02*
X157125000Y-61300000D01*
X157125000Y-61300000D02*
X158375000Y-61300000D01*
X157415000Y-53390000D02*
X157415000Y-61010000D01*
X157415000Y-61010000D02*
X163385000Y-61010000D01*
X157425000Y-53400000D02*
X157425000Y-55200000D01*
X157425000Y-55200000D02*
X158175000Y-55200000D01*
X157425000Y-56700000D02*
X157425000Y-57700000D01*
X157425000Y-57700000D02*
X158175000Y-57700000D01*
X157425000Y-59200000D02*
X157425000Y-61000000D01*
X157425000Y-61000000D02*
X158175000Y-61000000D01*
X158175000Y-53400000D02*
X157425000Y-53400000D01*
X158175000Y-55200000D02*
X158175000Y-53400000D01*
X158175000Y-56700000D02*
X157425000Y-56700000D01*
X158175000Y-57700000D02*
X158175000Y-56700000D01*
X158175000Y-59200000D02*
X157425000Y-59200000D01*
X158175000Y-61000000D02*
X158175000Y-59200000D01*
X159675000Y-53400000D02*
X159675000Y-54150000D01*
X159675000Y-54150000D02*
X162625000Y-54150000D01*
X159675000Y-60250000D02*
X162625000Y-60250000D01*
X159675000Y-61000000D02*
X159675000Y-60250000D01*
X162625000Y-54150000D02*
X162625000Y-57200000D01*
X162625000Y-60250000D02*
X162625000Y-57200000D01*
X163385000Y-53390000D02*
X157415000Y-53390000D01*
X163385000Y-61010000D02*
X163385000Y-53390000D01*
%TO.C,Actuator 1*%
X104490000Y-41850000D02*
X104490000Y-56970000D01*
X104490000Y-56970000D02*
X110460000Y-56970000D01*
X105250000Y-42610000D02*
X105250000Y-49410000D01*
X105250000Y-56210000D02*
X105250000Y-49410000D01*
X108200000Y-41860000D02*
X108200000Y-42610000D01*
X108200000Y-42610000D02*
X105250000Y-42610000D01*
X108200000Y-56210000D02*
X105250000Y-56210000D01*
X108200000Y-56960000D02*
X108200000Y-56210000D01*
X109700000Y-41860000D02*
X109700000Y-43660000D01*
X109700000Y-43660000D02*
X110450000Y-43660000D01*
X109700000Y-45160000D02*
X109700000Y-53660000D01*
X109700000Y-53660000D02*
X110450000Y-53660000D01*
X109700000Y-55160000D02*
X109700000Y-56960000D01*
X109700000Y-56960000D02*
X110450000Y-56960000D01*
X110450000Y-41860000D02*
X109700000Y-41860000D01*
X110450000Y-43660000D02*
X110450000Y-41860000D01*
X110450000Y-45160000D02*
X109700000Y-45160000D01*
X110450000Y-53660000D02*
X110450000Y-45160000D01*
X110450000Y-55160000D02*
X109700000Y-55160000D01*
X110450000Y-56960000D02*
X110450000Y-55160000D01*
X110460000Y-41850000D02*
X104490000Y-41850000D01*
X110460000Y-56970000D02*
X110460000Y-41850000D01*
X110750000Y-41560000D02*
X109500000Y-41560000D01*
X110750000Y-42810000D02*
X110750000Y-41560000D01*
%TO.C,Actuator 2*%
X108460000Y-57760000D02*
X108460000Y-72880000D01*
X108460000Y-72880000D02*
X114430000Y-72880000D01*
X109220000Y-58520000D02*
X109220000Y-65320000D01*
X109220000Y-72120000D02*
X109220000Y-65320000D01*
X112170000Y-57770000D02*
X112170000Y-58520000D01*
X112170000Y-58520000D02*
X109220000Y-58520000D01*
X112170000Y-72120000D02*
X109220000Y-72120000D01*
X112170000Y-72870000D02*
X112170000Y-72120000D01*
X113670000Y-57770000D02*
X113670000Y-59570000D01*
X113670000Y-59570000D02*
X114420000Y-59570000D01*
X113670000Y-61070000D02*
X113670000Y-69570000D01*
X113670000Y-69570000D02*
X114420000Y-69570000D01*
X113670000Y-71070000D02*
X113670000Y-72870000D01*
X113670000Y-72870000D02*
X114420000Y-72870000D01*
X114420000Y-57770000D02*
X113670000Y-57770000D01*
X114420000Y-59570000D02*
X114420000Y-57770000D01*
X114420000Y-61070000D02*
X113670000Y-61070000D01*
X114420000Y-69570000D02*
X114420000Y-61070000D01*
X114420000Y-71070000D02*
X113670000Y-71070000D01*
X114420000Y-72870000D02*
X114420000Y-71070000D01*
X114430000Y-57760000D02*
X108460000Y-57760000D01*
X114430000Y-72880000D02*
X114430000Y-57760000D01*
X114720000Y-57470000D02*
X113470000Y-57470000D01*
X114720000Y-58720000D02*
X114720000Y-57470000D01*
%TO.C,PWR_JMP*%
X132405000Y-84270000D02*
X132405000Y-86930000D01*
X135005000Y-84270000D02*
X132405000Y-84270000D01*
X135005000Y-84270000D02*
X135005000Y-86930000D01*
X135005000Y-86930000D02*
X132405000Y-86930000D01*
X136275000Y-84270000D02*
X137605000Y-84270000D01*
X137605000Y-84270000D02*
X137605000Y-85600000D01*
D16*
%TO.C,R9*%
X106290000Y-71050000D02*
X104950000Y-71050000D01*
X106290000Y-69350000D02*
X104950000Y-69350000D01*
D18*
%TO.C,Actuator 3*%
X114780000Y-74630000D02*
X114780000Y-73380000D01*
X114780000Y-73380000D02*
X113530000Y-73380000D01*
X114490000Y-88790000D02*
X114490000Y-73670000D01*
X114490000Y-73670000D02*
X108520000Y-73670000D01*
X114480000Y-88780000D02*
X114480000Y-86980000D01*
X114480000Y-86980000D02*
X113730000Y-86980000D01*
X114480000Y-85480000D02*
X114480000Y-76980000D01*
X114480000Y-76980000D02*
X113730000Y-76980000D01*
X114480000Y-75480000D02*
X114480000Y-73680000D01*
X114480000Y-73680000D02*
X113730000Y-73680000D01*
X113730000Y-88780000D02*
X114480000Y-88780000D01*
X113730000Y-86980000D02*
X113730000Y-88780000D01*
X113730000Y-85480000D02*
X114480000Y-85480000D01*
X113730000Y-76980000D02*
X113730000Y-85480000D01*
X113730000Y-75480000D02*
X114480000Y-75480000D01*
X113730000Y-73680000D02*
X113730000Y-75480000D01*
X112230000Y-88780000D02*
X112230000Y-88030000D01*
X112230000Y-88030000D02*
X109280000Y-88030000D01*
X112230000Y-74430000D02*
X109280000Y-74430000D01*
X112230000Y-73680000D02*
X112230000Y-74430000D01*
X109280000Y-88030000D02*
X109280000Y-81230000D01*
X109280000Y-74430000D02*
X109280000Y-81230000D01*
X108520000Y-88790000D02*
X114490000Y-88790000D01*
X108520000Y-73670000D02*
X108520000Y-88790000D01*
D16*
%TO.C,R6*%
X113860000Y-52730000D02*
X112520000Y-52730000D01*
X113860000Y-54430000D02*
X112520000Y-54430000D01*
%TO.C,R8*%
X114120000Y-100050000D02*
X112780000Y-100050000D01*
X114120000Y-101750000D02*
X112780000Y-101750000D01*
D18*
%TO.C,M_ENC*%
X143950000Y-88650000D02*
X143950000Y-89900000D01*
X144240000Y-88940000D02*
X144240000Y-94910000D01*
X144240000Y-94910000D02*
X156860000Y-94910000D01*
X144250000Y-88950000D02*
X144250000Y-89700000D01*
X144250000Y-89700000D02*
X146050000Y-89700000D01*
X144250000Y-91200000D02*
X145000000Y-91200000D01*
X145000000Y-91200000D02*
X145000000Y-94150000D01*
X145000000Y-94150000D02*
X150550000Y-94150000D01*
X145200000Y-88650000D02*
X143950000Y-88650000D01*
X146050000Y-88950000D02*
X144250000Y-88950000D01*
X146050000Y-89700000D02*
X146050000Y-88950000D01*
X147550000Y-88950000D02*
X147550000Y-89700000D01*
X147550000Y-89700000D02*
X153550000Y-89700000D01*
X153550000Y-88950000D02*
X147550000Y-88950000D01*
X153550000Y-89700000D02*
X153550000Y-88950000D01*
X155050000Y-88950000D02*
X155050000Y-89700000D01*
X155050000Y-89700000D02*
X156850000Y-89700000D01*
X156100000Y-91200000D02*
X156100000Y-94150000D01*
X156100000Y-94150000D02*
X150550000Y-94150000D01*
X156850000Y-88950000D02*
X155050000Y-88950000D01*
X156850000Y-89700000D02*
X156850000Y-88950000D01*
X156850000Y-91200000D02*
X156100000Y-91200000D01*
X156860000Y-88940000D02*
X144240000Y-88940000D01*
X156860000Y-94910000D02*
X156860000Y-88940000D01*
D16*
%TO.C,R10*%
X104950000Y-68760000D02*
X106290000Y-68760000D01*
X104950000Y-67060000D02*
X106290000Y-67060000D01*
D18*
%TO.C,M_15V*%
X126450000Y-88650000D02*
X126450000Y-89900000D01*
X126740000Y-88940000D02*
X126740000Y-94910000D01*
X126740000Y-94910000D02*
X134360000Y-94910000D01*
X126750000Y-88950000D02*
X126750000Y-89700000D01*
X126750000Y-89700000D02*
X128550000Y-89700000D01*
X126750000Y-91200000D02*
X127500000Y-91200000D01*
X127500000Y-91200000D02*
X127500000Y-94150000D01*
X127500000Y-94150000D02*
X130550000Y-94150000D01*
X127700000Y-88650000D02*
X126450000Y-88650000D01*
X128550000Y-88950000D02*
X126750000Y-88950000D01*
X128550000Y-89700000D02*
X128550000Y-88950000D01*
X130050000Y-88950000D02*
X130050000Y-89700000D01*
X130050000Y-89700000D02*
X131050000Y-89700000D01*
X131050000Y-88950000D02*
X130050000Y-88950000D01*
X131050000Y-89700000D02*
X131050000Y-88950000D01*
X132550000Y-88950000D02*
X132550000Y-89700000D01*
X132550000Y-89700000D02*
X134350000Y-89700000D01*
X133600000Y-91200000D02*
X133600000Y-94150000D01*
X133600000Y-94150000D02*
X130550000Y-94150000D01*
X134350000Y-88950000D02*
X132550000Y-88950000D01*
X134350000Y-89700000D02*
X134350000Y-88950000D01*
X134350000Y-91200000D02*
X133600000Y-91200000D01*
X134360000Y-88940000D02*
X126740000Y-88940000D01*
X134360000Y-94910000D02*
X134360000Y-88940000D01*
D16*
%TO.C,R7*%
X112780000Y-102450000D02*
X114120000Y-102450000D01*
X112780000Y-104150000D02*
X114120000Y-104150000D01*
%TO.C,R5*%
X112540000Y-55060000D02*
X113880000Y-55060000D01*
X112540000Y-56760000D02*
X113880000Y-56760000D01*
D18*
%TO.C,M_5V*%
X135250000Y-88650000D02*
X135250000Y-89900000D01*
X135540000Y-88940000D02*
X135540000Y-94910000D01*
X135540000Y-94910000D02*
X143160000Y-94910000D01*
X135550000Y-88950000D02*
X135550000Y-89700000D01*
X135550000Y-89700000D02*
X137350000Y-89700000D01*
X135550000Y-91200000D02*
X136300000Y-91200000D01*
X136300000Y-91200000D02*
X136300000Y-94150000D01*
X136300000Y-94150000D02*
X139350000Y-94150000D01*
X136500000Y-88650000D02*
X135250000Y-88650000D01*
X137350000Y-88950000D02*
X135550000Y-88950000D01*
X137350000Y-89700000D02*
X137350000Y-88950000D01*
X138850000Y-88950000D02*
X138850000Y-89700000D01*
X138850000Y-89700000D02*
X139850000Y-89700000D01*
X139850000Y-88950000D02*
X138850000Y-88950000D01*
X139850000Y-89700000D02*
X139850000Y-88950000D01*
X141350000Y-88950000D02*
X141350000Y-89700000D01*
X141350000Y-89700000D02*
X143150000Y-89700000D01*
X142400000Y-91200000D02*
X142400000Y-94150000D01*
X142400000Y-94150000D02*
X139350000Y-94150000D01*
X143150000Y-88950000D02*
X141350000Y-88950000D01*
X143150000Y-89700000D02*
X143150000Y-88950000D01*
X143150000Y-91200000D02*
X142400000Y-91200000D01*
X143160000Y-88940000D02*
X135540000Y-88940000D01*
X143160000Y-94910000D02*
X143160000Y-88940000D01*
D17*
%TO.C,U1*%
X128588000Y-54227500D02*
X128588000Y-55469560D01*
X128588000Y-57430440D02*
X128588000Y-58151431D01*
X128588000Y-59828569D02*
X128588000Y-60691431D01*
X128588000Y-62368569D02*
X128588000Y-63231431D01*
X128588000Y-64908569D02*
X128588000Y-65771431D01*
X128588000Y-67448569D02*
X128588000Y-68311431D01*
X128588000Y-69988569D02*
X128588000Y-70851431D01*
X128588000Y-72528569D02*
X128588000Y-73912500D01*
X128588000Y-73912500D02*
X135192000Y-73912500D01*
X135192000Y-54227500D02*
X128588000Y-54227500D01*
X135192000Y-55611431D02*
X135192000Y-54227500D01*
X135192000Y-58151431D02*
X135192000Y-57288569D01*
X135192000Y-60691431D02*
X135192000Y-59828569D01*
X135192000Y-63231431D02*
X135192000Y-62368569D01*
X135192000Y-65771431D02*
X135192000Y-64908569D01*
X135192000Y-68311431D02*
X135192000Y-67448569D01*
X135192000Y-70851431D02*
X135192000Y-69988569D01*
X135192000Y-73912500D02*
X135192000Y-72528569D01*
X132194800Y-54227500D02*
G75*
G02*
X131585200Y-54227500I-304800J0D01*
G01*
D18*
%TO.C,Chamber*%
X104490000Y-89980000D02*
X104490000Y-105100000D01*
X104490000Y-105100000D02*
X110460000Y-105100000D01*
X105250000Y-90740000D02*
X105250000Y-97540000D01*
X105250000Y-104340000D02*
X105250000Y-97540000D01*
X108200000Y-89990000D02*
X108200000Y-90740000D01*
X108200000Y-90740000D02*
X105250000Y-90740000D01*
X108200000Y-104340000D02*
X105250000Y-104340000D01*
X108200000Y-105090000D02*
X108200000Y-104340000D01*
X109700000Y-89990000D02*
X109700000Y-91790000D01*
X109700000Y-91790000D02*
X110450000Y-91790000D01*
X109700000Y-93290000D02*
X109700000Y-101790000D01*
X109700000Y-101790000D02*
X110450000Y-101790000D01*
X109700000Y-103290000D02*
X109700000Y-105090000D01*
X109700000Y-105090000D02*
X110450000Y-105090000D01*
X110450000Y-89990000D02*
X109700000Y-89990000D01*
X110450000Y-91790000D02*
X110450000Y-89990000D01*
X110450000Y-93290000D02*
X109700000Y-93290000D01*
X110450000Y-101790000D02*
X110450000Y-93290000D01*
X110450000Y-103290000D02*
X109700000Y-103290000D01*
X110450000Y-105090000D02*
X110450000Y-103290000D01*
X110460000Y-89980000D02*
X104490000Y-89980000D01*
X110460000Y-105100000D02*
X110460000Y-89980000D01*
X110750000Y-89690000D02*
X109500000Y-89690000D01*
X110750000Y-90940000D02*
X110750000Y-89690000D01*
%TO.C,Joystick*%
X147150000Y-99850000D02*
X147150000Y-101100000D01*
X147440000Y-100140000D02*
X147440000Y-106110000D01*
X147440000Y-106110000D02*
X165060000Y-106110000D01*
X147450000Y-100150000D02*
X147450000Y-100900000D01*
X147450000Y-100900000D02*
X149250000Y-100900000D01*
X147450000Y-102400000D02*
X148200000Y-102400000D01*
X148200000Y-102400000D02*
X148200000Y-105350000D01*
X148200000Y-105350000D02*
X156250000Y-105350000D01*
X148400000Y-99850000D02*
X147150000Y-99850000D01*
X149250000Y-100150000D02*
X147450000Y-100150000D01*
X149250000Y-100900000D02*
X149250000Y-100150000D01*
X150750000Y-100150000D02*
X150750000Y-100900000D01*
X150750000Y-100900000D02*
X161750000Y-100900000D01*
X161750000Y-100150000D02*
X150750000Y-100150000D01*
X161750000Y-100900000D02*
X161750000Y-100150000D01*
X163250000Y-100150000D02*
X163250000Y-100900000D01*
X163250000Y-100900000D02*
X165050000Y-100900000D01*
X164300000Y-102400000D02*
X164300000Y-105350000D01*
X164300000Y-105350000D02*
X156250000Y-105350000D01*
X165050000Y-100150000D02*
X163250000Y-100150000D01*
X165050000Y-100900000D02*
X165050000Y-100150000D01*
X165050000Y-102400000D02*
X164300000Y-102400000D01*
X165060000Y-100140000D02*
X147440000Y-100140000D01*
X165060000Y-106110000D02*
X165060000Y-100140000D01*
D16*
%TO.C,R11*%
X106470000Y-87030000D02*
X105130000Y-87030000D01*
X106470000Y-85330000D02*
X105130000Y-85330000D01*
%TD*%
%LPC*%
D19*
%TO.C,R13*%
X145558800Y-100600000D03*
X144441200Y-100600000D03*
%TD*%
D20*
%TO.C,R4*%
X141420000Y-45920000D03*
X144380000Y-45920000D03*
%TD*%
D21*
%TO.C,R3*%
X134070000Y-45850000D03*
X131110000Y-45850000D03*
%TD*%
%TO.C,R2*%
X155890000Y-45880000D03*
X152930000Y-45880000D03*
%TD*%
D20*
%TO.C,R1*%
X136550000Y-45930000D03*
X139510000Y-45930000D03*
%TD*%
D22*
%TO.C,D1*%
X152400000Y-81347800D03*
X152400000Y-67200000D03*
%TD*%
D23*
%TO.C,C2*%
X142060000Y-69630000D03*
X142060000Y-73130001D03*
%TD*%
D24*
%TO.C,Solenoid*%
X159875000Y-75500000D03*
D25*
X159875000Y-73000000D03*
%TD*%
D24*
%TO.C,M_DRV_ARD*%
X159875000Y-67000000D03*
D25*
X159875000Y-64500000D03*
%TD*%
D24*
%TO.C,M_DRV_PWR*%
X159875000Y-84100000D03*
D25*
X159875000Y-81600000D03*
%TD*%
D20*
%TO.C,R12*%
X104330000Y-83540000D03*
X107290000Y-83540000D03*
%TD*%
D24*
%TO.C,R_15V*%
X159875000Y-58450000D03*
D25*
X159875000Y-55950000D03*
%TD*%
D26*
%TO.C,C4*%
X126100000Y-61642000D03*
X126100000Y-60778000D03*
%TD*%
D27*
%TO.C,Actuator 1*%
X108000000Y-44410000D03*
D28*
X108000000Y-46910000D03*
X108000000Y-49410000D03*
X108000000Y-51910000D03*
X108000000Y-54410000D03*
%TD*%
D27*
%TO.C,Actuator 2*%
X111970000Y-60320000D03*
D28*
X111970000Y-62820000D03*
X111970000Y-65320000D03*
X111970000Y-67820000D03*
X111970000Y-70320000D03*
%TD*%
D29*
%TO.C,PWR_JMP*%
X136275000Y-85600000D03*
D30*
X133735000Y-85600000D03*
%TD*%
D31*
%TO.C,MH1*%
X115240000Y-49200000D03*
%TD*%
D21*
%TO.C,R9*%
X107100000Y-70200000D03*
X104140000Y-70200000D03*
%TD*%
D28*
%TO.C,Actuator 3*%
X112030000Y-86230000D03*
X112030000Y-83730000D03*
X112030000Y-81230000D03*
X112030000Y-78730000D03*
D27*
X112030000Y-76230000D03*
%TD*%
D26*
%TO.C,C3*%
X137690000Y-60578000D03*
X137690000Y-61442000D03*
%TD*%
D21*
%TO.C,R6*%
X114670000Y-53580000D03*
X111710000Y-53580000D03*
%TD*%
D32*
%TO.C,C5*%
X126100000Y-66578000D03*
X126100000Y-67442000D03*
%TD*%
D21*
%TO.C,R8*%
X114930000Y-100900000D03*
X111970000Y-100900000D03*
%TD*%
D26*
%TO.C,C1*%
X164400000Y-57664000D03*
X164400000Y-56800000D03*
%TD*%
D33*
%TO.C,M_ENC*%
X146800000Y-91400000D03*
D34*
X149300000Y-91400000D03*
X151800000Y-91400000D03*
X154300000Y-91400000D03*
%TD*%
D20*
%TO.C,R10*%
X104140000Y-67910000D03*
X107100000Y-67910000D03*
%TD*%
D35*
%TO.C,M_15V*%
X129300000Y-91400000D03*
D36*
X131800000Y-91400000D03*
%TD*%
D20*
%TO.C,R7*%
X111970000Y-103300000D03*
X114930000Y-103300000D03*
%TD*%
%TO.C,R5*%
X111730000Y-55910000D03*
X114690000Y-55910000D03*
%TD*%
D35*
%TO.C,M_5V*%
X138100000Y-91400000D03*
D36*
X140600000Y-91400000D03*
%TD*%
D37*
%TO.C,U1*%
X128080000Y-56450000D03*
D38*
X128080000Y-58990000D03*
X128080000Y-61530000D03*
X128080000Y-64070000D03*
X128080000Y-66610000D03*
X128080000Y-69150000D03*
X128080000Y-71690000D03*
X135700000Y-71690000D03*
X135700000Y-69150000D03*
X135700000Y-66610000D03*
X135700000Y-64070000D03*
X135700000Y-61530000D03*
X135700000Y-58990000D03*
X135700000Y-56450000D03*
%TD*%
D31*
%TO.C,MH2*%
X113970000Y-97460000D03*
%TD*%
%TO.C,MH3*%
X166040000Y-64440000D03*
%TD*%
D27*
%TO.C,Chamber*%
X108000000Y-92540000D03*
D28*
X108000000Y-95040000D03*
X108000000Y-97540000D03*
X108000000Y-100040000D03*
X108000000Y-102540000D03*
%TD*%
D31*
%TO.C,MH4*%
X166040000Y-92380000D03*
%TD*%
D33*
%TO.C,Joystick*%
X150000000Y-102600000D03*
D34*
X152500000Y-102600000D03*
X155000000Y-102600000D03*
X157500000Y-102600000D03*
X160000000Y-102600000D03*
X162500000Y-102600000D03*
%TD*%
D21*
%TO.C,R11*%
X107280000Y-86180000D03*
X104320000Y-86180000D03*
%TD*%
D29*
%TO.C,J1*%
X127940000Y-97460000D03*
D30*
X130480000Y-97460000D03*
X133020000Y-97460000D03*
X135560000Y-97460000D03*
X138100000Y-97460000D03*
X140640000Y-97460000D03*
X143180000Y-97460000D03*
X145720000Y-97460000D03*
%TD*%
D29*
%TO.C,J3*%
X150800000Y-97460000D03*
D30*
X153340000Y-97460000D03*
X155880000Y-97460000D03*
X158420000Y-97460000D03*
X160960000Y-97460000D03*
X163500000Y-97460000D03*
%TD*%
D29*
%TO.C,J2*%
X118796000Y-49200000D03*
D30*
X121336000Y-49200000D03*
X123876000Y-49200000D03*
X126416000Y-49200000D03*
X128956000Y-49200000D03*
X131496000Y-49200000D03*
X134036000Y-49200000D03*
X136576000Y-49200000D03*
X139116000Y-49200000D03*
X141656000Y-49200000D03*
%TD*%
D29*
%TO.C,J4*%
X145720000Y-49200000D03*
D30*
X148260000Y-49200000D03*
X150800000Y-49200000D03*
X153340000Y-49200000D03*
X155880000Y-49200000D03*
X158420000Y-49200000D03*
X160960000Y-49200000D03*
X163500000Y-49200000D03*
%TD*%
D39*
%TO.C,C6*%
X138762000Y-66580000D03*
X137898000Y-66580000D03*
%TD*%
%LPD*%
D40*
X166078000Y-43940000D02*
X166040000Y-59360000D01*
X166040000Y-59360000D02*
X168580000Y-61900000D01*
X100000000Y-99238000D02*
X100000000Y-47422000D01*
X166040000Y-98730000D02*
X166040386Y-105908823D01*
X100000000Y-45742000D02*
X100000000Y-47422000D01*
X163538000Y-41400000D02*
X100760155Y-41400993D01*
X100739737Y-106617112D02*
G75*
G02*
X99999984Y-105850002I131563J867112D01*
G01*
X168580000Y-61900000D02*
X168580000Y-96190000D01*
X166040386Y-105908823D02*
G75*
G02*
X165254816Y-106623215I-807486J98823D01*
G01*
X165254815Y-106623185D02*
X100738815Y-106623185D01*
X100000000Y-99238000D02*
X100000000Y-105850000D01*
X100000000Y-42200000D02*
X100000000Y-45742000D01*
X168580000Y-96190000D02*
X166040000Y-98730000D01*
X100000000Y-42200000D02*
G75*
G02*
X100760155Y-41400993I800000J0D01*
G01*
X163538000Y-41400000D02*
X166078000Y-43940000D01*
M02*
