%TF.GenerationSoftware,KiCad,Pcbnew,8.0.3*%
%TF.CreationDate,2024-08-23T15:24:12-04:00*%
%TF.ProjectId,vine_robot_arduino_shield,76696e65-5f72-46f6-926f-745f61726475,rev?*%
%TF.SameCoordinates,Original*%
%TF.FileFunction,Paste,Top*%
%TF.FilePolarity,Positive*%
%FSLAX46Y46*%
G04 Gerber Fmt 4.6, Leading zero omitted, Abs format (unit mm)*
G04 Created by KiCad (PCBNEW 8.0.3) date 2024-08-23 15:24:12*
%MOMM*%
%LPD*%
G01*
G04 APERTURE LIST*
%ADD10R,0.660400X0.508000*%
%ADD11R,0.970000X1.730000*%
%ADD12R,0.600000X0.540000*%
%ADD13R,0.540000X0.600000*%
%TA.AperFunction,Profile*%
%ADD14C,0.150000*%
%TD*%
G04 APERTURE END LIST*
D10*
%TO.C,R13*%
X145558800Y-100600000D03*
X144441200Y-100600000D03*
%TD*%
D11*
%TO.C,R4*%
X141420000Y-45920000D03*
X144380000Y-45920000D03*
%TD*%
%TO.C,R3*%
X134070000Y-45850000D03*
X131110000Y-45850000D03*
%TD*%
%TO.C,R2*%
X155890000Y-45880000D03*
X152930000Y-45880000D03*
%TD*%
%TO.C,R1*%
X136550000Y-45930000D03*
X139510000Y-45930000D03*
%TD*%
%TO.C,R12*%
X104330000Y-83540000D03*
X107290000Y-83540000D03*
%TD*%
D12*
%TO.C,C4*%
X126100000Y-61642000D03*
X126100000Y-60778000D03*
%TD*%
D11*
%TO.C,R9*%
X107100000Y-70200000D03*
X104140000Y-70200000D03*
%TD*%
D12*
%TO.C,C3*%
X137690000Y-60578000D03*
X137690000Y-61442000D03*
%TD*%
D11*
%TO.C,R6*%
X114670000Y-53580000D03*
X111710000Y-53580000D03*
%TD*%
D12*
%TO.C,C5*%
X126100000Y-66578000D03*
X126100000Y-67442000D03*
%TD*%
D11*
%TO.C,R8*%
X114930000Y-100900000D03*
X111970000Y-100900000D03*
%TD*%
D12*
%TO.C,C1*%
X164400000Y-57664000D03*
X164400000Y-56800000D03*
%TD*%
D11*
%TO.C,R10*%
X104140000Y-67910000D03*
X107100000Y-67910000D03*
%TD*%
%TO.C,R7*%
X111970000Y-103300000D03*
X114930000Y-103300000D03*
%TD*%
%TO.C,R5*%
X111730000Y-55910000D03*
X114690000Y-55910000D03*
%TD*%
%TO.C,R11*%
X107280000Y-86180000D03*
X104320000Y-86180000D03*
%TD*%
D13*
%TO.C,C6*%
X138762000Y-66580000D03*
X137898000Y-66580000D03*
%TD*%
D14*
X166078000Y-43940000D02*
X166040000Y-59360000D01*
X166040000Y-59360000D02*
X168580000Y-61900000D01*
X100000000Y-99238000D02*
X100000000Y-47422000D01*
X166040000Y-98730000D02*
X166040386Y-105908823D01*
X100000000Y-45742000D02*
X100000000Y-47422000D01*
X163538000Y-41400000D02*
X100760155Y-41400993D01*
X100739737Y-106617112D02*
G75*
G02*
X99999984Y-105850002I131563J867112D01*
G01*
X168580000Y-61900000D02*
X168580000Y-96190000D01*
X166040386Y-105908823D02*
G75*
G02*
X165254816Y-106623215I-807486J98823D01*
G01*
X165254815Y-106623185D02*
X100738815Y-106623185D01*
X100000000Y-99238000D02*
X100000000Y-105850000D01*
X100000000Y-42200000D02*
X100000000Y-45742000D01*
X168580000Y-96190000D02*
X166040000Y-98730000D01*
X100000000Y-42200000D02*
G75*
G02*
X100760155Y-41400993I800000J0D01*
G01*
X163538000Y-41400000D02*
X166078000Y-43940000D01*
M02*
