%TF.GenerationSoftware,KiCad,Pcbnew,8.0.3*%
%TF.CreationDate,2024-08-23T15:24:19-04:00*%
%TF.ProjectId,vine_robot_arduino_shield,76696e65-5f72-46f6-926f-745f61726475,rev?*%
%TF.SameCoordinates,Original*%
%TF.FileFunction,Drillmap*%
%TF.FilePolarity,Positive*%
%FSLAX45Y45*%
G04 Gerber Fmt 4.5, Leading zero omitted, Abs format (unit mm)*
G04 Created by KiCad (PCBNEW 8.0.3) date 2024-08-23 15:24:19*
%MOMM*%
%LPD*%
G01*
G04 APERTURE LIST*
%ADD10C,0.150000*%
%ADD11C,0.200000*%
%ADD12C,0.320000*%
G04 APERTURE END LIST*
D10*
X16607800Y-4394000D02*
X16604000Y-5936000D01*
X16604000Y-5936000D02*
X16858000Y-6190000D01*
X10000000Y-9923800D02*
X10000000Y-4742200D01*
X16604000Y-9873000D02*
X16604039Y-10590882D01*
X10000000Y-4574200D02*
X10000000Y-4742200D01*
X16353800Y-4140000D02*
X10076016Y-4140099D01*
X10073974Y-10661711D02*
G75*
G02*
X9999998Y-10585000I13156J86711D01*
G01*
X16858000Y-6190000D02*
X16858000Y-9619000D01*
X16604039Y-10590882D02*
G75*
G02*
X16525482Y-10662322I-80749J9882D01*
G01*
X16525481Y-10662319D02*
X10073882Y-10662319D01*
X10000000Y-9923800D02*
X10000000Y-10585000D01*
X10000000Y-4220000D02*
X10000000Y-4574200D01*
X16858000Y-9619000D02*
X16604000Y-9873000D01*
X10000000Y-4220000D02*
G75*
G02*
X10076016Y-4140099I80000J0D01*
G01*
X16353800Y-4140000D02*
X16607800Y-4394000D01*
D11*
D12*
X11237000Y-9586000D02*
X11557000Y-9906000D01*
X11557000Y-9586000D02*
X11237000Y-9906000D01*
X11364000Y-4760000D02*
X11684000Y-5080000D01*
X11684000Y-4760000D02*
X11364000Y-5080000D01*
X16444000Y-6284000D02*
X16764000Y-6604000D01*
X16764000Y-6284000D02*
X16444000Y-6604000D01*
X16444000Y-9078000D02*
X16764000Y-9398000D01*
X16764000Y-9078000D02*
X16444000Y-9398000D01*
D11*
X10253277Y-10981302D02*
X10253277Y-10781302D01*
X10253277Y-10781302D02*
X10300896Y-10781302D01*
X10300896Y-10781302D02*
X10329467Y-10790826D01*
X10329467Y-10790826D02*
X10348515Y-10809874D01*
X10348515Y-10809874D02*
X10358039Y-10828921D01*
X10358039Y-10828921D02*
X10367563Y-10867017D01*
X10367563Y-10867017D02*
X10367563Y-10895588D01*
X10367563Y-10895588D02*
X10358039Y-10933683D01*
X10358039Y-10933683D02*
X10348515Y-10952731D01*
X10348515Y-10952731D02*
X10329467Y-10971779D01*
X10329467Y-10971779D02*
X10300896Y-10981302D01*
X10300896Y-10981302D02*
X10253277Y-10981302D01*
X10453277Y-10981302D02*
X10453277Y-10847969D01*
X10453277Y-10886064D02*
X10462801Y-10867017D01*
X10462801Y-10867017D02*
X10472324Y-10857493D01*
X10472324Y-10857493D02*
X10491372Y-10847969D01*
X10491372Y-10847969D02*
X10510420Y-10847969D01*
X10577086Y-10981302D02*
X10577086Y-10847969D01*
X10577086Y-10781302D02*
X10567563Y-10790826D01*
X10567563Y-10790826D02*
X10577086Y-10800350D01*
X10577086Y-10800350D02*
X10586610Y-10790826D01*
X10586610Y-10790826D02*
X10577086Y-10781302D01*
X10577086Y-10781302D02*
X10577086Y-10800350D01*
X10700896Y-10981302D02*
X10681848Y-10971779D01*
X10681848Y-10971779D02*
X10672324Y-10952731D01*
X10672324Y-10952731D02*
X10672324Y-10781302D01*
X10805658Y-10981302D02*
X10786610Y-10971779D01*
X10786610Y-10971779D02*
X10777086Y-10952731D01*
X10777086Y-10952731D02*
X10777086Y-10781302D01*
X11034229Y-10981302D02*
X11034229Y-10781302D01*
X11034229Y-10781302D02*
X11100896Y-10924159D01*
X11100896Y-10924159D02*
X11167563Y-10781302D01*
X11167563Y-10781302D02*
X11167563Y-10981302D01*
X11348515Y-10981302D02*
X11348515Y-10876540D01*
X11348515Y-10876540D02*
X11338991Y-10857493D01*
X11338991Y-10857493D02*
X11319943Y-10847969D01*
X11319943Y-10847969D02*
X11281848Y-10847969D01*
X11281848Y-10847969D02*
X11262801Y-10857493D01*
X11348515Y-10971779D02*
X11329467Y-10981302D01*
X11329467Y-10981302D02*
X11281848Y-10981302D01*
X11281848Y-10981302D02*
X11262801Y-10971779D01*
X11262801Y-10971779D02*
X11253277Y-10952731D01*
X11253277Y-10952731D02*
X11253277Y-10933683D01*
X11253277Y-10933683D02*
X11262801Y-10914636D01*
X11262801Y-10914636D02*
X11281848Y-10905112D01*
X11281848Y-10905112D02*
X11329467Y-10905112D01*
X11329467Y-10905112D02*
X11348515Y-10895588D01*
X11443753Y-10847969D02*
X11443753Y-11047969D01*
X11443753Y-10857493D02*
X11462801Y-10847969D01*
X11462801Y-10847969D02*
X11500896Y-10847969D01*
X11500896Y-10847969D02*
X11519943Y-10857493D01*
X11519943Y-10857493D02*
X11529467Y-10867017D01*
X11529467Y-10867017D02*
X11538991Y-10886064D01*
X11538991Y-10886064D02*
X11538991Y-10943207D01*
X11538991Y-10943207D02*
X11529467Y-10962255D01*
X11529467Y-10962255D02*
X11519943Y-10971779D01*
X11519943Y-10971779D02*
X11500896Y-10981302D01*
X11500896Y-10981302D02*
X11462801Y-10981302D01*
X11462801Y-10981302D02*
X11443753Y-10971779D01*
X11624705Y-10962255D02*
X11634229Y-10971779D01*
X11634229Y-10971779D02*
X11624705Y-10981302D01*
X11624705Y-10981302D02*
X11615182Y-10971779D01*
X11615182Y-10971779D02*
X11624705Y-10962255D01*
X11624705Y-10962255D02*
X11624705Y-10981302D01*
X11624705Y-10857493D02*
X11634229Y-10867017D01*
X11634229Y-10867017D02*
X11624705Y-10876540D01*
X11624705Y-10876540D02*
X11615182Y-10867017D01*
X11615182Y-10867017D02*
X11624705Y-10857493D01*
X11624705Y-10857493D02*
X11624705Y-10876540D01*
X9792500Y-11209818D02*
X9992500Y-11409818D01*
X9992500Y-11209818D02*
X9792500Y-11409818D01*
X10234229Y-11201302D02*
X10358039Y-11201302D01*
X10358039Y-11201302D02*
X10291372Y-11277493D01*
X10291372Y-11277493D02*
X10319944Y-11277493D01*
X10319944Y-11277493D02*
X10338991Y-11287016D01*
X10338991Y-11287016D02*
X10348515Y-11296540D01*
X10348515Y-11296540D02*
X10358039Y-11315588D01*
X10358039Y-11315588D02*
X10358039Y-11363207D01*
X10358039Y-11363207D02*
X10348515Y-11382255D01*
X10348515Y-11382255D02*
X10338991Y-11391778D01*
X10338991Y-11391778D02*
X10319944Y-11401302D01*
X10319944Y-11401302D02*
X10262801Y-11401302D01*
X10262801Y-11401302D02*
X10243753Y-11391778D01*
X10243753Y-11391778D02*
X10234229Y-11382255D01*
X10443753Y-11382255D02*
X10453277Y-11391778D01*
X10453277Y-11391778D02*
X10443753Y-11401302D01*
X10443753Y-11401302D02*
X10434229Y-11391778D01*
X10434229Y-11391778D02*
X10443753Y-11382255D01*
X10443753Y-11382255D02*
X10443753Y-11401302D01*
X10529467Y-11220350D02*
X10538991Y-11210826D01*
X10538991Y-11210826D02*
X10558039Y-11201302D01*
X10558039Y-11201302D02*
X10605658Y-11201302D01*
X10605658Y-11201302D02*
X10624705Y-11210826D01*
X10624705Y-11210826D02*
X10634229Y-11220350D01*
X10634229Y-11220350D02*
X10643753Y-11239397D01*
X10643753Y-11239397D02*
X10643753Y-11258445D01*
X10643753Y-11258445D02*
X10634229Y-11287016D01*
X10634229Y-11287016D02*
X10519944Y-11401302D01*
X10519944Y-11401302D02*
X10643753Y-11401302D01*
X10767563Y-11201302D02*
X10786610Y-11201302D01*
X10786610Y-11201302D02*
X10805658Y-11210826D01*
X10805658Y-11210826D02*
X10815182Y-11220350D01*
X10815182Y-11220350D02*
X10824705Y-11239397D01*
X10824705Y-11239397D02*
X10834229Y-11277493D01*
X10834229Y-11277493D02*
X10834229Y-11325112D01*
X10834229Y-11325112D02*
X10824705Y-11363207D01*
X10824705Y-11363207D02*
X10815182Y-11382255D01*
X10815182Y-11382255D02*
X10805658Y-11391778D01*
X10805658Y-11391778D02*
X10786610Y-11401302D01*
X10786610Y-11401302D02*
X10767563Y-11401302D01*
X10767563Y-11401302D02*
X10748515Y-11391778D01*
X10748515Y-11391778D02*
X10738991Y-11382255D01*
X10738991Y-11382255D02*
X10729467Y-11363207D01*
X10729467Y-11363207D02*
X10719944Y-11325112D01*
X10719944Y-11325112D02*
X10719944Y-11277493D01*
X10719944Y-11277493D02*
X10729467Y-11239397D01*
X10729467Y-11239397D02*
X10738991Y-11220350D01*
X10738991Y-11220350D02*
X10748515Y-11210826D01*
X10748515Y-11210826D02*
X10767563Y-11201302D01*
X10958039Y-11201302D02*
X10977086Y-11201302D01*
X10977086Y-11201302D02*
X10996134Y-11210826D01*
X10996134Y-11210826D02*
X11005658Y-11220350D01*
X11005658Y-11220350D02*
X11015182Y-11239397D01*
X11015182Y-11239397D02*
X11024705Y-11277493D01*
X11024705Y-11277493D02*
X11024705Y-11325112D01*
X11024705Y-11325112D02*
X11015182Y-11363207D01*
X11015182Y-11363207D02*
X11005658Y-11382255D01*
X11005658Y-11382255D02*
X10996134Y-11391778D01*
X10996134Y-11391778D02*
X10977086Y-11401302D01*
X10977086Y-11401302D02*
X10958039Y-11401302D01*
X10958039Y-11401302D02*
X10938991Y-11391778D01*
X10938991Y-11391778D02*
X10929467Y-11382255D01*
X10929467Y-11382255D02*
X10919944Y-11363207D01*
X10919944Y-11363207D02*
X10910420Y-11325112D01*
X10910420Y-11325112D02*
X10910420Y-11277493D01*
X10910420Y-11277493D02*
X10919944Y-11239397D01*
X10919944Y-11239397D02*
X10929467Y-11220350D01*
X10929467Y-11220350D02*
X10938991Y-11210826D01*
X10938991Y-11210826D02*
X10958039Y-11201302D01*
X11110420Y-11401302D02*
X11110420Y-11267969D01*
X11110420Y-11287016D02*
X11119944Y-11277493D01*
X11119944Y-11277493D02*
X11138991Y-11267969D01*
X11138991Y-11267969D02*
X11167563Y-11267969D01*
X11167563Y-11267969D02*
X11186610Y-11277493D01*
X11186610Y-11277493D02*
X11196134Y-11296540D01*
X11196134Y-11296540D02*
X11196134Y-11401302D01*
X11196134Y-11296540D02*
X11205658Y-11277493D01*
X11205658Y-11277493D02*
X11224705Y-11267969D01*
X11224705Y-11267969D02*
X11253277Y-11267969D01*
X11253277Y-11267969D02*
X11272324Y-11277493D01*
X11272324Y-11277493D02*
X11281848Y-11296540D01*
X11281848Y-11296540D02*
X11281848Y-11401302D01*
X11377086Y-11401302D02*
X11377086Y-11267969D01*
X11377086Y-11287016D02*
X11386610Y-11277493D01*
X11386610Y-11277493D02*
X11405658Y-11267969D01*
X11405658Y-11267969D02*
X11434229Y-11267969D01*
X11434229Y-11267969D02*
X11453277Y-11277493D01*
X11453277Y-11277493D02*
X11462801Y-11296540D01*
X11462801Y-11296540D02*
X11462801Y-11401302D01*
X11462801Y-11296540D02*
X11472324Y-11277493D01*
X11472324Y-11277493D02*
X11491372Y-11267969D01*
X11491372Y-11267969D02*
X11519943Y-11267969D01*
X11519943Y-11267969D02*
X11538991Y-11277493D01*
X11538991Y-11277493D02*
X11548515Y-11296540D01*
X11548515Y-11296540D02*
X11548515Y-11401302D01*
X11938991Y-11191778D02*
X11767563Y-11448921D01*
X12196134Y-11201302D02*
X12215182Y-11201302D01*
X12215182Y-11201302D02*
X12234229Y-11210826D01*
X12234229Y-11210826D02*
X12243753Y-11220350D01*
X12243753Y-11220350D02*
X12253277Y-11239397D01*
X12253277Y-11239397D02*
X12262801Y-11277493D01*
X12262801Y-11277493D02*
X12262801Y-11325112D01*
X12262801Y-11325112D02*
X12253277Y-11363207D01*
X12253277Y-11363207D02*
X12243753Y-11382255D01*
X12243753Y-11382255D02*
X12234229Y-11391778D01*
X12234229Y-11391778D02*
X12215182Y-11401302D01*
X12215182Y-11401302D02*
X12196134Y-11401302D01*
X12196134Y-11401302D02*
X12177086Y-11391778D01*
X12177086Y-11391778D02*
X12167563Y-11382255D01*
X12167563Y-11382255D02*
X12158039Y-11363207D01*
X12158039Y-11363207D02*
X12148515Y-11325112D01*
X12148515Y-11325112D02*
X12148515Y-11277493D01*
X12148515Y-11277493D02*
X12158039Y-11239397D01*
X12158039Y-11239397D02*
X12167563Y-11220350D01*
X12167563Y-11220350D02*
X12177086Y-11210826D01*
X12177086Y-11210826D02*
X12196134Y-11201302D01*
X12348515Y-11382255D02*
X12358039Y-11391778D01*
X12358039Y-11391778D02*
X12348515Y-11401302D01*
X12348515Y-11401302D02*
X12338991Y-11391778D01*
X12338991Y-11391778D02*
X12348515Y-11382255D01*
X12348515Y-11382255D02*
X12348515Y-11401302D01*
X12548515Y-11401302D02*
X12434229Y-11401302D01*
X12491372Y-11401302D02*
X12491372Y-11201302D01*
X12491372Y-11201302D02*
X12472325Y-11229874D01*
X12472325Y-11229874D02*
X12453277Y-11248921D01*
X12453277Y-11248921D02*
X12434229Y-11258445D01*
X12624706Y-11220350D02*
X12634229Y-11210826D01*
X12634229Y-11210826D02*
X12653277Y-11201302D01*
X12653277Y-11201302D02*
X12700896Y-11201302D01*
X12700896Y-11201302D02*
X12719944Y-11210826D01*
X12719944Y-11210826D02*
X12729467Y-11220350D01*
X12729467Y-11220350D02*
X12738991Y-11239397D01*
X12738991Y-11239397D02*
X12738991Y-11258445D01*
X12738991Y-11258445D02*
X12729467Y-11287016D01*
X12729467Y-11287016D02*
X12615182Y-11401302D01*
X12615182Y-11401302D02*
X12738991Y-11401302D01*
X12910420Y-11201302D02*
X12872325Y-11201302D01*
X12872325Y-11201302D02*
X12853277Y-11210826D01*
X12853277Y-11210826D02*
X12843753Y-11220350D01*
X12843753Y-11220350D02*
X12824706Y-11248921D01*
X12824706Y-11248921D02*
X12815182Y-11287016D01*
X12815182Y-11287016D02*
X12815182Y-11363207D01*
X12815182Y-11363207D02*
X12824706Y-11382255D01*
X12824706Y-11382255D02*
X12834229Y-11391778D01*
X12834229Y-11391778D02*
X12853277Y-11401302D01*
X12853277Y-11401302D02*
X12891372Y-11401302D01*
X12891372Y-11401302D02*
X12910420Y-11391778D01*
X12910420Y-11391778D02*
X12919944Y-11382255D01*
X12919944Y-11382255D02*
X12929467Y-11363207D01*
X12929467Y-11363207D02*
X12929467Y-11315588D01*
X12929467Y-11315588D02*
X12919944Y-11296540D01*
X12919944Y-11296540D02*
X12910420Y-11287016D01*
X12910420Y-11287016D02*
X12891372Y-11277493D01*
X12891372Y-11277493D02*
X12853277Y-11277493D01*
X12853277Y-11277493D02*
X12834229Y-11287016D01*
X12834229Y-11287016D02*
X12824706Y-11296540D01*
X12824706Y-11296540D02*
X12815182Y-11315588D01*
X13053277Y-11201302D02*
X13072325Y-11201302D01*
X13072325Y-11201302D02*
X13091372Y-11210826D01*
X13091372Y-11210826D02*
X13100896Y-11220350D01*
X13100896Y-11220350D02*
X13110420Y-11239397D01*
X13110420Y-11239397D02*
X13119944Y-11277493D01*
X13119944Y-11277493D02*
X13119944Y-11325112D01*
X13119944Y-11325112D02*
X13110420Y-11363207D01*
X13110420Y-11363207D02*
X13100896Y-11382255D01*
X13100896Y-11382255D02*
X13091372Y-11391778D01*
X13091372Y-11391778D02*
X13072325Y-11401302D01*
X13072325Y-11401302D02*
X13053277Y-11401302D01*
X13053277Y-11401302D02*
X13034229Y-11391778D01*
X13034229Y-11391778D02*
X13024706Y-11382255D01*
X13024706Y-11382255D02*
X13015182Y-11363207D01*
X13015182Y-11363207D02*
X13005658Y-11325112D01*
X13005658Y-11325112D02*
X13005658Y-11277493D01*
X13005658Y-11277493D02*
X13015182Y-11239397D01*
X13015182Y-11239397D02*
X13024706Y-11220350D01*
X13024706Y-11220350D02*
X13034229Y-11210826D01*
X13034229Y-11210826D02*
X13053277Y-11201302D01*
X13196134Y-11201302D02*
X13196134Y-11239397D01*
X13272325Y-11201302D02*
X13272325Y-11239397D01*
X13567563Y-11477493D02*
X13558039Y-11467969D01*
X13558039Y-11467969D02*
X13538991Y-11439397D01*
X13538991Y-11439397D02*
X13529468Y-11420350D01*
X13529468Y-11420350D02*
X13519944Y-11391778D01*
X13519944Y-11391778D02*
X13510420Y-11344159D01*
X13510420Y-11344159D02*
X13510420Y-11306064D01*
X13510420Y-11306064D02*
X13519944Y-11258445D01*
X13519944Y-11258445D02*
X13529468Y-11229874D01*
X13529468Y-11229874D02*
X13538991Y-11210826D01*
X13538991Y-11210826D02*
X13558039Y-11182255D01*
X13558039Y-11182255D02*
X13567563Y-11172731D01*
X13729468Y-11267969D02*
X13729468Y-11401302D01*
X13681848Y-11191778D02*
X13634229Y-11334636D01*
X13634229Y-11334636D02*
X13758039Y-11334636D01*
X13986610Y-11401302D02*
X13986610Y-11201302D01*
X14072325Y-11401302D02*
X14072325Y-11296540D01*
X14072325Y-11296540D02*
X14062801Y-11277493D01*
X14062801Y-11277493D02*
X14043753Y-11267969D01*
X14043753Y-11267969D02*
X14015182Y-11267969D01*
X14015182Y-11267969D02*
X13996134Y-11277493D01*
X13996134Y-11277493D02*
X13986610Y-11287016D01*
X14196134Y-11401302D02*
X14177087Y-11391778D01*
X14177087Y-11391778D02*
X14167563Y-11382255D01*
X14167563Y-11382255D02*
X14158039Y-11363207D01*
X14158039Y-11363207D02*
X14158039Y-11306064D01*
X14158039Y-11306064D02*
X14167563Y-11287016D01*
X14167563Y-11287016D02*
X14177087Y-11277493D01*
X14177087Y-11277493D02*
X14196134Y-11267969D01*
X14196134Y-11267969D02*
X14224706Y-11267969D01*
X14224706Y-11267969D02*
X14243753Y-11277493D01*
X14243753Y-11277493D02*
X14253277Y-11287016D01*
X14253277Y-11287016D02*
X14262801Y-11306064D01*
X14262801Y-11306064D02*
X14262801Y-11363207D01*
X14262801Y-11363207D02*
X14253277Y-11382255D01*
X14253277Y-11382255D02*
X14243753Y-11391778D01*
X14243753Y-11391778D02*
X14224706Y-11401302D01*
X14224706Y-11401302D02*
X14196134Y-11401302D01*
X14377087Y-11401302D02*
X14358039Y-11391778D01*
X14358039Y-11391778D02*
X14348515Y-11372731D01*
X14348515Y-11372731D02*
X14348515Y-11201302D01*
X14529468Y-11391778D02*
X14510420Y-11401302D01*
X14510420Y-11401302D02*
X14472325Y-11401302D01*
X14472325Y-11401302D02*
X14453277Y-11391778D01*
X14453277Y-11391778D02*
X14443753Y-11372731D01*
X14443753Y-11372731D02*
X14443753Y-11296540D01*
X14443753Y-11296540D02*
X14453277Y-11277493D01*
X14453277Y-11277493D02*
X14472325Y-11267969D01*
X14472325Y-11267969D02*
X14510420Y-11267969D01*
X14510420Y-11267969D02*
X14529468Y-11277493D01*
X14529468Y-11277493D02*
X14538991Y-11296540D01*
X14538991Y-11296540D02*
X14538991Y-11315588D01*
X14538991Y-11315588D02*
X14443753Y-11334636D01*
X14615182Y-11391778D02*
X14634230Y-11401302D01*
X14634230Y-11401302D02*
X14672325Y-11401302D01*
X14672325Y-11401302D02*
X14691372Y-11391778D01*
X14691372Y-11391778D02*
X14700896Y-11372731D01*
X14700896Y-11372731D02*
X14700896Y-11363207D01*
X14700896Y-11363207D02*
X14691372Y-11344159D01*
X14691372Y-11344159D02*
X14672325Y-11334636D01*
X14672325Y-11334636D02*
X14643753Y-11334636D01*
X14643753Y-11334636D02*
X14624706Y-11325112D01*
X14624706Y-11325112D02*
X14615182Y-11306064D01*
X14615182Y-11306064D02*
X14615182Y-11296540D01*
X14615182Y-11296540D02*
X14624706Y-11277493D01*
X14624706Y-11277493D02*
X14643753Y-11267969D01*
X14643753Y-11267969D02*
X14672325Y-11267969D01*
X14672325Y-11267969D02*
X14691372Y-11277493D01*
X14767563Y-11477493D02*
X14777087Y-11467969D01*
X14777087Y-11467969D02*
X14796134Y-11439397D01*
X14796134Y-11439397D02*
X14805658Y-11420350D01*
X14805658Y-11420350D02*
X14815182Y-11391778D01*
X14815182Y-11391778D02*
X14824706Y-11344159D01*
X14824706Y-11344159D02*
X14824706Y-11306064D01*
X14824706Y-11306064D02*
X14815182Y-11258445D01*
X14815182Y-11258445D02*
X14805658Y-11229874D01*
X14805658Y-11229874D02*
X14796134Y-11210826D01*
X14796134Y-11210826D02*
X14777087Y-11182255D01*
X14777087Y-11182255D02*
X14767563Y-11172731D01*
X15129468Y-11477493D02*
X15119944Y-11467969D01*
X15119944Y-11467969D02*
X15100896Y-11439397D01*
X15100896Y-11439397D02*
X15091372Y-11420350D01*
X15091372Y-11420350D02*
X15081849Y-11391778D01*
X15081849Y-11391778D02*
X15072325Y-11344159D01*
X15072325Y-11344159D02*
X15072325Y-11306064D01*
X15072325Y-11306064D02*
X15081849Y-11258445D01*
X15081849Y-11258445D02*
X15091372Y-11229874D01*
X15091372Y-11229874D02*
X15100896Y-11210826D01*
X15100896Y-11210826D02*
X15119944Y-11182255D01*
X15119944Y-11182255D02*
X15129468Y-11172731D01*
X15205658Y-11267969D02*
X15205658Y-11401302D01*
X15205658Y-11287016D02*
X15215182Y-11277493D01*
X15215182Y-11277493D02*
X15234230Y-11267969D01*
X15234230Y-11267969D02*
X15262801Y-11267969D01*
X15262801Y-11267969D02*
X15281849Y-11277493D01*
X15281849Y-11277493D02*
X15291372Y-11296540D01*
X15291372Y-11296540D02*
X15291372Y-11401302D01*
X15415182Y-11401302D02*
X15396134Y-11391778D01*
X15396134Y-11391778D02*
X15386611Y-11382255D01*
X15386611Y-11382255D02*
X15377087Y-11363207D01*
X15377087Y-11363207D02*
X15377087Y-11306064D01*
X15377087Y-11306064D02*
X15386611Y-11287016D01*
X15386611Y-11287016D02*
X15396134Y-11277493D01*
X15396134Y-11277493D02*
X15415182Y-11267969D01*
X15415182Y-11267969D02*
X15443753Y-11267969D01*
X15443753Y-11267969D02*
X15462801Y-11277493D01*
X15462801Y-11277493D02*
X15472325Y-11287016D01*
X15472325Y-11287016D02*
X15481849Y-11306064D01*
X15481849Y-11306064D02*
X15481849Y-11363207D01*
X15481849Y-11363207D02*
X15472325Y-11382255D01*
X15472325Y-11382255D02*
X15462801Y-11391778D01*
X15462801Y-11391778D02*
X15443753Y-11401302D01*
X15443753Y-11401302D02*
X15415182Y-11401302D01*
X15538992Y-11267969D02*
X15615182Y-11267969D01*
X15567563Y-11201302D02*
X15567563Y-11372731D01*
X15567563Y-11372731D02*
X15577087Y-11391778D01*
X15577087Y-11391778D02*
X15596134Y-11401302D01*
X15596134Y-11401302D02*
X15615182Y-11401302D01*
X15834230Y-11267969D02*
X15834230Y-11467969D01*
X15834230Y-11277493D02*
X15853277Y-11267969D01*
X15853277Y-11267969D02*
X15891373Y-11267969D01*
X15891373Y-11267969D02*
X15910420Y-11277493D01*
X15910420Y-11277493D02*
X15919944Y-11287016D01*
X15919944Y-11287016D02*
X15929468Y-11306064D01*
X15929468Y-11306064D02*
X15929468Y-11363207D01*
X15929468Y-11363207D02*
X15919944Y-11382255D01*
X15919944Y-11382255D02*
X15910420Y-11391778D01*
X15910420Y-11391778D02*
X15891373Y-11401302D01*
X15891373Y-11401302D02*
X15853277Y-11401302D01*
X15853277Y-11401302D02*
X15834230Y-11391778D01*
X16043753Y-11401302D02*
X16024706Y-11391778D01*
X16024706Y-11391778D02*
X16015182Y-11372731D01*
X16015182Y-11372731D02*
X16015182Y-11201302D01*
X16205658Y-11401302D02*
X16205658Y-11296540D01*
X16205658Y-11296540D02*
X16196134Y-11277493D01*
X16196134Y-11277493D02*
X16177087Y-11267969D01*
X16177087Y-11267969D02*
X16138992Y-11267969D01*
X16138992Y-11267969D02*
X16119944Y-11277493D01*
X16205658Y-11391778D02*
X16186611Y-11401302D01*
X16186611Y-11401302D02*
X16138992Y-11401302D01*
X16138992Y-11401302D02*
X16119944Y-11391778D01*
X16119944Y-11391778D02*
X16110420Y-11372731D01*
X16110420Y-11372731D02*
X16110420Y-11353683D01*
X16110420Y-11353683D02*
X16119944Y-11334636D01*
X16119944Y-11334636D02*
X16138992Y-11325112D01*
X16138992Y-11325112D02*
X16186611Y-11325112D01*
X16186611Y-11325112D02*
X16205658Y-11315588D01*
X16272325Y-11267969D02*
X16348515Y-11267969D01*
X16300896Y-11201302D02*
X16300896Y-11372731D01*
X16300896Y-11372731D02*
X16310420Y-11391778D01*
X16310420Y-11391778D02*
X16329468Y-11401302D01*
X16329468Y-11401302D02*
X16348515Y-11401302D01*
X16491373Y-11391778D02*
X16472325Y-11401302D01*
X16472325Y-11401302D02*
X16434230Y-11401302D01*
X16434230Y-11401302D02*
X16415182Y-11391778D01*
X16415182Y-11391778D02*
X16405658Y-11372731D01*
X16405658Y-11372731D02*
X16405658Y-11296540D01*
X16405658Y-11296540D02*
X16415182Y-11277493D01*
X16415182Y-11277493D02*
X16434230Y-11267969D01*
X16434230Y-11267969D02*
X16472325Y-11267969D01*
X16472325Y-11267969D02*
X16491373Y-11277493D01*
X16491373Y-11277493D02*
X16500896Y-11296540D01*
X16500896Y-11296540D02*
X16500896Y-11315588D01*
X16500896Y-11315588D02*
X16405658Y-11334636D01*
X16672325Y-11401302D02*
X16672325Y-11201302D01*
X16672325Y-11391778D02*
X16653277Y-11401302D01*
X16653277Y-11401302D02*
X16615182Y-11401302D01*
X16615182Y-11401302D02*
X16596134Y-11391778D01*
X16596134Y-11391778D02*
X16586611Y-11382255D01*
X16586611Y-11382255D02*
X16577087Y-11363207D01*
X16577087Y-11363207D02*
X16577087Y-11306064D01*
X16577087Y-11306064D02*
X16586611Y-11287016D01*
X16586611Y-11287016D02*
X16596134Y-11277493D01*
X16596134Y-11277493D02*
X16615182Y-11267969D01*
X16615182Y-11267969D02*
X16653277Y-11267969D01*
X16653277Y-11267969D02*
X16672325Y-11277493D01*
X16748515Y-11477493D02*
X16758039Y-11467969D01*
X16758039Y-11467969D02*
X16777087Y-11439397D01*
X16777087Y-11439397D02*
X16786611Y-11420350D01*
X16786611Y-11420350D02*
X16796135Y-11391778D01*
X16796135Y-11391778D02*
X16805658Y-11344159D01*
X16805658Y-11344159D02*
X16805658Y-11306064D01*
X16805658Y-11306064D02*
X16796135Y-11258445D01*
X16796135Y-11258445D02*
X16786611Y-11229874D01*
X16786611Y-11229874D02*
X16777087Y-11210826D01*
X16777087Y-11210826D02*
X16758039Y-11182255D01*
X16758039Y-11182255D02*
X16748515Y-11172731D01*
M02*
