M48
; DRILL file {KiCad 8.0.3} date 2024-08-23T15:24:16-0400
; FORMAT={-:-/ absolute / metric / decimal}
; #@! TF.CreationDate,2024-08-23T15:24:16-04:00
; #@! TF.GenerationSoftware,Kicad,Pcbnew,8.0.3
; #@! TF.FileFunction,Plated,1,2,PTH
FMAT,2
METRIC
; #@! TA.AperFunction,Plated,PTH,ViaDrill
T1C0.400
; #@! TA.AperFunction,Plated,PTH,ComponentDrill
T2C0.787
; #@! TA.AperFunction,Plated,PTH,ComponentDrill
T3C0.864
; #@! TA.AperFunction,Plated,PTH,ComponentDrill
T4C0.950
; #@! TA.AperFunction,Plated,PTH,ComponentDrill
T5C1.000
; #@! TA.AperFunction,Plated,PTH,ComponentDrill
T6C1.118
%
G90
G05
T1
X102.5Y-86.34
X103.07Y-74.71
X104.31Y-86.2
X104.95Y-74.7
X107.09Y-67.89
X107.29Y-83.56
X111.64Y-53.57
X111.89Y-101.03
X112.76Y-91.82
X113.45Y-91.27
X114.0Y-93.08
X114.94Y-92.72
X116.83Y-88.38
X116.83Y-90.33
X116.84Y-76.95
X116.86Y-66.29
X116.86Y-75.49
X116.87Y-64.06
X120.25Y-56.11
X122.25Y-64.63
X122.26Y-65.96
X122.28Y-56.11
X126.09Y-68.46
X126.11Y-59.7
X129.18Y-75.47
X129.21Y-76.87
X129.9Y-64.39
X130.486Y-65.88
X130.486Y-67.224
X131.7Y-64.99
X137.53Y-65.19
X137.69Y-59.58
X139.24Y-63.94
X139.45Y-60.34
X139.53Y-66.54
X141.1Y-60.32
X141.35Y-63.97
X141.35Y-65.15
X142.385Y-55.785
X142.45Y-59.1
X143.15Y-62.12
X143.8Y-86.2
X143.8Y-87.2
X143.875Y-59.025
X144.0Y-68.35
X144.38Y-60.89
X145.2Y-68.4
X145.4Y-85.0
X145.4Y-86.2
X145.4Y-87.2
X145.6Y-57.0
X145.8Y-102.0
X146.776Y-59.024
X146.8Y-65.8
X146.8Y-68.0
X146.824Y-57.376
X147.0Y-86.6
X147.2Y-100.6
X148.0Y-96.0
X149.2Y-96.0
X150.4Y-63.0
X151.2Y-60.6
X151.424Y-61.976
X152.424Y-61.824
X152.6Y-106.0
X152.8Y-100.0
X155.407Y-99.993
X162.6Y-90.0
X164.37Y-55.84
X164.6Y-88.0
T2
X128.08Y-56.45
X128.08Y-58.99
X128.08Y-61.53
X128.08Y-64.07
X128.08Y-66.61
X128.08Y-69.15
X128.08Y-71.69
X135.7Y-56.45
X135.7Y-58.99
X135.7Y-61.53
X135.7Y-64.07
X135.7Y-66.61
X135.7Y-69.15
X135.7Y-71.69
T3
X142.06Y-69.63
X142.06Y-73.13
T4
X108.0Y-44.41
X108.0Y-46.91
X108.0Y-49.41
X108.0Y-51.91
X108.0Y-54.41
X108.0Y-92.54
X108.0Y-95.04
X108.0Y-97.54
X108.0Y-100.04
X108.0Y-102.54
X111.97Y-60.32
X111.97Y-62.82
X111.97Y-65.32
X111.97Y-67.82
X111.97Y-70.32
X112.03Y-76.23
X112.03Y-78.73
X112.03Y-81.23
X112.03Y-83.73
X112.03Y-86.23
X146.8Y-91.4
X149.3Y-91.4
X150.0Y-102.6
X151.8Y-91.4
X152.5Y-102.6
X154.3Y-91.4
X155.0Y-102.6
X157.5Y-102.6
X160.0Y-102.6
X162.5Y-102.6
T5
X118.796Y-49.2
X121.336Y-49.2
X123.876Y-49.2
X126.416Y-49.2
X127.94Y-97.46
X128.956Y-49.2
X129.3Y-91.4
X130.48Y-97.46
X131.496Y-49.2
X131.8Y-91.4
X133.02Y-97.46
X133.735Y-85.6
X134.036Y-49.2
X135.56Y-97.46
X136.275Y-85.6
X136.576Y-49.2
X138.1Y-91.4
X138.1Y-97.46
X139.116Y-49.2
X140.6Y-91.4
X140.64Y-97.46
X141.656Y-49.2
X143.18Y-97.46
X145.72Y-49.2
X145.72Y-97.46
X148.26Y-49.2
X150.8Y-49.2
X150.8Y-97.46
X153.34Y-49.2
X153.34Y-97.46
X155.88Y-49.2
X155.88Y-97.46
X158.42Y-49.2
X158.42Y-97.46
X159.875Y-55.95
X159.875Y-58.45
X159.875Y-64.5
X159.875Y-67.0
X159.875Y-73.0
X159.875Y-75.5
X159.875Y-81.6
X159.875Y-84.1
X160.96Y-49.2
X160.96Y-97.46
X163.5Y-49.2
X163.5Y-97.46
T6
X152.4Y-67.2
X152.4Y-81.348
M30
