%TF.GenerationSoftware,KiCad,Pcbnew,8.0.3*%
%TF.CreationDate,2024-08-23T15:24:12-04:00*%
%TF.ProjectId,vine_robot_arduino_shield,76696e65-5f72-46f6-926f-745f61726475,rev?*%
%TF.SameCoordinates,Original*%
%TF.FileFunction,Copper,L1,Top*%
%TF.FilePolarity,Positive*%
%FSLAX46Y46*%
G04 Gerber Fmt 4.6, Leading zero omitted, Abs format (unit mm)*
G04 Created by KiCad (PCBNEW 8.0.3) date 2024-08-23 15:24:12*
%MOMM*%
%LPD*%
G01*
G04 APERTURE LIST*
G04 Aperture macros list*
%AMRoundRect*
0 Rectangle with rounded corners*
0 $1 Rounding radius*
0 $2 $3 $4 $5 $6 $7 $8 $9 X,Y pos of 4 corners*
0 Add a 4 corners polygon primitive as box body*
4,1,4,$2,$3,$4,$5,$6,$7,$8,$9,$2,$3,0*
0 Add four circle primitives for the rounded corners*
1,1,$1+$1,$2,$3*
1,1,$1+$1,$4,$5*
1,1,$1+$1,$6,$7*
1,1,$1+$1,$8,$9*
0 Add four rect primitives between the rounded corners*
20,1,$1+$1,$2,$3,$4,$5,0*
20,1,$1+$1,$4,$5,$6,$7,0*
20,1,$1+$1,$6,$7,$8,$9,0*
20,1,$1+$1,$8,$9,$2,$3,0*%
G04 Aperture macros list end*
%TA.AperFunction,SMDPad,CuDef*%
%ADD10R,0.660400X0.508000*%
%TD*%
%TA.AperFunction,SMDPad,CuDef*%
%ADD11R,0.970000X1.730000*%
%TD*%
%TA.AperFunction,ComponentPad*%
%ADD12C,1.625600*%
%TD*%
%TA.AperFunction,ComponentPad*%
%ADD13C,1.371600*%
%TD*%
%TA.AperFunction,ComponentPad*%
%ADD14RoundRect,0.250000X0.750000X-0.600000X0.750000X0.600000X-0.750000X0.600000X-0.750000X-0.600000X0*%
%TD*%
%TA.AperFunction,ComponentPad*%
%ADD15O,2.000000X1.700000*%
%TD*%
%TA.AperFunction,SMDPad,CuDef*%
%ADD16R,0.600000X0.540000*%
%TD*%
%TA.AperFunction,ComponentPad*%
%ADD17RoundRect,0.250000X-0.725000X0.600000X-0.725000X-0.600000X0.725000X-0.600000X0.725000X0.600000X0*%
%TD*%
%TA.AperFunction,ComponentPad*%
%ADD18O,1.950000X1.700000*%
%TD*%
%TA.AperFunction,ComponentPad*%
%ADD19R,1.700000X1.700000*%
%TD*%
%TA.AperFunction,ComponentPad*%
%ADD20O,1.700000X1.700000*%
%TD*%
%TA.AperFunction,ComponentPad*%
%ADD21RoundRect,0.250000X-0.600000X-0.725000X0.600000X-0.725000X0.600000X0.725000X-0.600000X0.725000X0*%
%TD*%
%TA.AperFunction,ComponentPad*%
%ADD22O,1.700000X1.950000*%
%TD*%
%TA.AperFunction,ComponentPad*%
%ADD23RoundRect,0.250000X-0.600000X-0.750000X0.600000X-0.750000X0.600000X0.750000X-0.600000X0.750000X0*%
%TD*%
%TA.AperFunction,ComponentPad*%
%ADD24O,1.700000X2.000000*%
%TD*%
%TA.AperFunction,ComponentPad*%
%ADD25R,1.295400X1.295400*%
%TD*%
%TA.AperFunction,ComponentPad*%
%ADD26C,1.295400*%
%TD*%
%TA.AperFunction,SMDPad,CuDef*%
%ADD27R,0.540000X0.600000*%
%TD*%
%TA.AperFunction,ViaPad*%
%ADD28C,0.600000*%
%TD*%
%TA.AperFunction,Conductor*%
%ADD29C,0.200000*%
%TD*%
%TA.AperFunction,Conductor*%
%ADD30C,0.250000*%
%TD*%
%TA.AperFunction,Profile*%
%ADD31C,0.150000*%
%TD*%
G04 APERTURE END LIST*
D10*
%TO.P,R13,1*%
%TO.N,/8*%
X145558800Y-100600000D03*
%TO.P,R13,2*%
%TO.N,+5V*%
X144441200Y-100600000D03*
%TD*%
D11*
%TO.P,R4,1*%
%TO.N,/\u002A9*%
X141420000Y-45920000D03*
%TO.P,R4,2*%
%TO.N,/Reg3SigIn*%
X144380000Y-45920000D03*
%TD*%
%TO.P,R3,1*%
%TO.N,/\u002A11*%
X134070000Y-45850000D03*
%TO.P,R3,2*%
%TO.N,/Reg2SigIn*%
X131110000Y-45850000D03*
%TD*%
%TO.P,R2,1*%
%TO.N,/\u002A3*%
X155890000Y-45880000D03*
%TO.P,R2,2*%
%TO.N,/Reg1SigIn*%
X152930000Y-45880000D03*
%TD*%
%TO.P,R1,1*%
%TO.N,/\u002A10*%
X136550000Y-45930000D03*
%TO.P,R1,2*%
%TO.N,/ChambSigIn*%
X139510000Y-45930000D03*
%TD*%
D12*
%TO.P,D1,1,1*%
%TO.N,Net-(J10-Pin_1)*%
X152400000Y-81347800D03*
%TO.P,D1,2,2*%
%TO.N,Net-(J11-Pin_2)*%
X152400000Y-67200000D03*
%TD*%
D13*
%TO.P,C2,1*%
%TO.N,+15V*%
X142060000Y-69630000D03*
%TO.P,C2,2*%
%TO.N,GND*%
X142060000Y-73130001D03*
%TD*%
D14*
%TO.P,Solenoid,1,Pin_1*%
%TO.N,Net-(J10-Pin_1)*%
X159875000Y-75500000D03*
D15*
%TO.P,Solenoid,2,Pin_2*%
%TO.N,Net-(J11-Pin_2)*%
X159875000Y-73000000D03*
%TD*%
D14*
%TO.P,M_DRV_ARD,1,Pin_1*%
%TO.N,/\u002A5*%
X159875000Y-67000000D03*
D15*
%TO.P,M_DRV_ARD,2,Pin_2*%
%TO.N,/12*%
X159875000Y-64500000D03*
%TD*%
D14*
%TO.P,M_DRV_PWR,1,Pin_1*%
%TO.N,Net-(J10-Pin_1)*%
X159875000Y-84100000D03*
D15*
%TO.P,M_DRV_PWR,2,Pin_2*%
%TO.N,Net-(J11-Pin_2)*%
X159875000Y-81600000D03*
%TD*%
D11*
%TO.P,R12,1*%
%TO.N,/Reg3MonOut*%
X104330000Y-83540000D03*
%TO.P,R12,2*%
%TO.N,GND*%
X107290000Y-83540000D03*
%TD*%
D14*
%TO.P,R_15V,1,Pin_1*%
%TO.N,+15V*%
X159875000Y-58450000D03*
D15*
%TO.P,R_15V,2,Pin_2*%
%TO.N,GND*%
X159875000Y-55950000D03*
%TD*%
D16*
%TO.P,C4,1*%
%TO.N,/Reg1SigIn*%
X126100000Y-61642000D03*
%TO.P,C4,2*%
%TO.N,GND*%
X126100000Y-60778000D03*
%TD*%
D17*
%TO.P,Actuator 1,1,Pin_1*%
%TO.N,/Reg1Out*%
X108000000Y-44410000D03*
D18*
%TO.P,Actuator 1,2,Pin_2*%
%TO.N,GND*%
X108000000Y-46910000D03*
%TO.P,Actuator 1,3,Pin_3*%
%TO.N,+15V*%
X108000000Y-49410000D03*
%TO.P,Actuator 1,4,Pin_4*%
%TO.N,GND*%
X108000000Y-51910000D03*
%TO.P,Actuator 1,5,Pin_5*%
%TO.N,/Reg1MonIn*%
X108000000Y-54410000D03*
%TD*%
D17*
%TO.P,Actuator 2,1,Pin_1*%
%TO.N,/Reg2Out*%
X111970000Y-60320000D03*
D18*
%TO.P,Actuator 2,2,Pin_2*%
%TO.N,GND*%
X111970000Y-62820000D03*
%TO.P,Actuator 2,3,Pin_3*%
%TO.N,+15V*%
X111970000Y-65320000D03*
%TO.P,Actuator 2,4,Pin_4*%
%TO.N,GND*%
X111970000Y-67820000D03*
%TO.P,Actuator 2,5,Pin_5*%
%TO.N,/Reg2MonIn*%
X111970000Y-70320000D03*
%TD*%
D19*
%TO.P,PWR_JMP,1,Pin_1*%
%TO.N,Net-(J10-Pin_1)*%
X136275000Y-85600000D03*
D20*
%TO.P,PWR_JMP,2,Pin_2*%
%TO.N,Net-(J10-Pin_2)*%
X133735000Y-85600000D03*
%TD*%
D11*
%TO.P,R9,1*%
%TO.N,/Reg2MonIn*%
X107100000Y-70200000D03*
%TO.P,R9,2*%
%TO.N,/Reg2MonOut*%
X104140000Y-70200000D03*
%TD*%
D18*
%TO.P,Actuator 3,5,Pin_5*%
%TO.N,/Reg3MonIn*%
X112030000Y-86230000D03*
%TO.P,Actuator 3,4,Pin_4*%
%TO.N,GND*%
X112030000Y-83730000D03*
%TO.P,Actuator 3,3,Pin_3*%
%TO.N,+15V*%
X112030000Y-81230000D03*
%TO.P,Actuator 3,2,Pin_2*%
%TO.N,GND*%
X112030000Y-78730000D03*
D17*
%TO.P,Actuator 3,1,Pin_1*%
%TO.N,/Reg3Out*%
X112030000Y-76230000D03*
%TD*%
D16*
%TO.P,C3,2*%
%TO.N,GND*%
X137690000Y-60578000D03*
%TO.P,C3,1*%
%TO.N,/ChambSigIn*%
X137690000Y-61442000D03*
%TD*%
D11*
%TO.P,R6,1*%
%TO.N,/Reg1MonOut*%
X114670000Y-53580000D03*
%TO.P,R6,2*%
%TO.N,GND*%
X111710000Y-53580000D03*
%TD*%
D16*
%TO.P,C5,1*%
%TO.N,/Reg2SigIn*%
X126100000Y-66578000D03*
%TO.P,C5,2*%
%TO.N,GND*%
X126100000Y-67442000D03*
%TD*%
D11*
%TO.P,R8,1*%
%TO.N,/RegChambMonOut*%
X114930000Y-100900000D03*
%TO.P,R8,2*%
%TO.N,GND*%
X111970000Y-100900000D03*
%TD*%
D16*
%TO.P,C1,1*%
%TO.N,+15V*%
X164400000Y-57664000D03*
%TO.P,C1,2*%
%TO.N,GND*%
X164400000Y-56800000D03*
%TD*%
D21*
%TO.P,M_ENC,1,Pin_1*%
%TO.N,GND*%
X146800000Y-91400000D03*
D22*
%TO.P,M_ENC,2,Pin_2*%
%TO.N,/\u002A6*%
X149300000Y-91400000D03*
%TO.P,M_ENC,3,Pin_3*%
%TO.N,/2*%
X151800000Y-91400000D03*
%TO.P,M_ENC,4,Pin_4*%
%TO.N,+5V*%
X154300000Y-91400000D03*
%TD*%
D11*
%TO.P,R10,1*%
%TO.N,/Reg2MonOut*%
X104140000Y-67910000D03*
%TO.P,R10,2*%
%TO.N,GND*%
X107100000Y-67910000D03*
%TD*%
D23*
%TO.P,M_15V,1,Pin_1*%
%TO.N,Net-(J10-Pin_2)*%
X129300000Y-91400000D03*
D24*
%TO.P,M_15V,2,Pin_2*%
%TO.N,Net-(J11-Pin_2)*%
X131800000Y-91400000D03*
%TD*%
D11*
%TO.P,R7,1*%
%TO.N,/RegChambMonIn*%
X111970000Y-103300000D03*
%TO.P,R7,2*%
%TO.N,/RegChambMonOut*%
X114930000Y-103300000D03*
%TD*%
%TO.P,R5,1*%
%TO.N,/Reg1MonIn*%
X111730000Y-55910000D03*
%TO.P,R5,2*%
%TO.N,/Reg1MonOut*%
X114690000Y-55910000D03*
%TD*%
D23*
%TO.P,M_5V,1,Pin_1*%
%TO.N,+5V*%
X138100000Y-91400000D03*
D24*
%TO.P,M_5V,2,Pin_2*%
%TO.N,GND*%
X140600000Y-91400000D03*
%TD*%
D25*
%TO.P,U1,1,1OUT*%
%TO.N,/Reg1Out*%
X128080000Y-56450000D03*
D26*
%TO.P,U1,2,1IN-*%
X128080000Y-58990000D03*
%TO.P,U1,3,1IN+*%
%TO.N,/Reg1SigIn*%
X128080000Y-61530000D03*
%TO.P,U1,4,VCC*%
%TO.N,+15V*%
X128080000Y-64070000D03*
%TO.P,U1,5,2IN+*%
%TO.N,/Reg2SigIn*%
X128080000Y-66610000D03*
%TO.P,U1,6,2IN-*%
%TO.N,/Reg2Out*%
X128080000Y-69150000D03*
%TO.P,U1,7,2OUT*%
X128080000Y-71690000D03*
%TO.P,U1,8,3OUT*%
%TO.N,/Reg3Out*%
X135700000Y-71690000D03*
%TO.P,U1,9,3IN-*%
X135700000Y-69150000D03*
%TO.P,U1,10,3IN+*%
%TO.N,/Reg3SigIn*%
X135700000Y-66610000D03*
%TO.P,U1,11,GND*%
%TO.N,GND*%
X135700000Y-64070000D03*
%TO.P,U1,12,4IN+*%
%TO.N,/ChambSigIn*%
X135700000Y-61530000D03*
%TO.P,U1,13,4IN-*%
%TO.N,/RegChambOut*%
X135700000Y-58990000D03*
%TO.P,U1,14,4OUT*%
X135700000Y-56450000D03*
%TD*%
D17*
%TO.P,Chamber,1,Pin_1*%
%TO.N,/RegChambOut*%
X108000000Y-92540000D03*
D18*
%TO.P,Chamber,2,Pin_2*%
%TO.N,GND*%
X108000000Y-95040000D03*
%TO.P,Chamber,3,Pin_3*%
%TO.N,+15V*%
X108000000Y-97540000D03*
%TO.P,Chamber,4,Pin_4*%
%TO.N,GND*%
X108000000Y-100040000D03*
%TO.P,Chamber,5,Pin_5*%
%TO.N,/RegChambMonIn*%
X108000000Y-102540000D03*
%TD*%
D21*
%TO.P,Joystick,1,Pin_1*%
%TO.N,/8*%
X150000000Y-102600000D03*
D22*
%TO.P,Joystick,2,Pin_2*%
%TO.N,/JoyDigi2*%
X152500000Y-102600000D03*
%TO.P,Joystick,3,Pin_3*%
%TO.N,/JoyAnalog1*%
X155000000Y-102600000D03*
%TO.P,Joystick,4,Pin_4*%
%TO.N,/JoyAnalog2*%
X157500000Y-102600000D03*
%TO.P,Joystick,5,Pin_5*%
%TO.N,GND*%
X160000000Y-102600000D03*
%TO.P,Joystick,6,Pin_6*%
%TO.N,+5V*%
X162500000Y-102600000D03*
%TD*%
D11*
%TO.P,R11,1*%
%TO.N,/Reg3MonIn*%
X107280000Y-86180000D03*
%TO.P,R11,2*%
%TO.N,/Reg3MonOut*%
X104320000Y-86180000D03*
%TD*%
D19*
%TO.P,J1,1,Pin_1*%
%TO.N,unconnected-(J1-Pin_1-Pad1)*%
X127940000Y-97460000D03*
D20*
%TO.P,J1,2,Pin_2*%
%TO.N,/IOREF*%
X130480000Y-97460000D03*
%TO.P,J1,3,Pin_3*%
%TO.N,/~{RESET}*%
X133020000Y-97460000D03*
%TO.P,J1,4,Pin_4*%
%TO.N,+3V3*%
X135560000Y-97460000D03*
%TO.P,J1,5,Pin_5*%
%TO.N,+5V*%
X138100000Y-97460000D03*
%TO.P,J1,6,Pin_6*%
%TO.N,GND*%
X140640000Y-97460000D03*
%TO.P,J1,7,Pin_7*%
X143180000Y-97460000D03*
%TO.P,J1,8,Pin_8*%
%TO.N,VCC*%
X145720000Y-97460000D03*
%TD*%
D19*
%TO.P,J3,1,Pin_1*%
%TO.N,/JoyAnalog1*%
X150800000Y-97460000D03*
D20*
%TO.P,J3,2,Pin_2*%
%TO.N,/JoyAnalog2*%
X153340000Y-97460000D03*
%TO.P,J3,3,Pin_3*%
%TO.N,/Reg1MonOut*%
X155880000Y-97460000D03*
%TO.P,J3,4,Pin_4*%
%TO.N,/Reg2MonOut*%
X158420000Y-97460000D03*
%TO.P,J3,5,Pin_5*%
%TO.N,/Reg3MonOut*%
X160960000Y-97460000D03*
%TO.P,J3,6,Pin_6*%
%TO.N,/RegChambMonOut*%
X163500000Y-97460000D03*
%TD*%
D19*
%TO.P,J2,1,Pin_1*%
%TO.N,/SCL{slash}A5*%
X118796000Y-49200000D03*
D20*
%TO.P,J2,2,Pin_2*%
%TO.N,/SDA{slash}A4*%
X121336000Y-49200000D03*
%TO.P,J2,3,Pin_3*%
%TO.N,/AREF*%
X123876000Y-49200000D03*
%TO.P,J2,4,Pin_4*%
%TO.N,GND*%
X126416000Y-49200000D03*
%TO.P,J2,5,Pin_5*%
%TO.N,/13*%
X128956000Y-49200000D03*
%TO.P,J2,6,Pin_6*%
%TO.N,/12*%
X131496000Y-49200000D03*
%TO.P,J2,7,Pin_7*%
%TO.N,/\u002A11*%
X134036000Y-49200000D03*
%TO.P,J2,8,Pin_8*%
%TO.N,/\u002A10*%
X136576000Y-49200000D03*
%TO.P,J2,9,Pin_9*%
%TO.N,/\u002A9*%
X139116000Y-49200000D03*
%TO.P,J2,10,Pin_10*%
%TO.N,/8*%
X141656000Y-49200000D03*
%TD*%
D19*
%TO.P,J4,1,Pin_1*%
%TO.N,/7*%
X145720000Y-49200000D03*
D20*
%TO.P,J4,2,Pin_2*%
%TO.N,/\u002A6*%
X148260000Y-49200000D03*
%TO.P,J4,3,Pin_3*%
%TO.N,/\u002A5*%
X150800000Y-49200000D03*
%TO.P,J4,4,Pin_4*%
%TO.N,/4*%
X153340000Y-49200000D03*
%TO.P,J4,5,Pin_5*%
%TO.N,/\u002A3*%
X155880000Y-49200000D03*
%TO.P,J4,6,Pin_6*%
%TO.N,/2*%
X158420000Y-49200000D03*
%TO.P,J4,7,Pin_7*%
%TO.N,/TX{slash}1*%
X160960000Y-49200000D03*
%TO.P,J4,8,Pin_8*%
%TO.N,/JoyDigi2*%
X163500000Y-49200000D03*
%TD*%
D27*
%TO.P,C6,2*%
%TO.N,GND*%
X138762000Y-66580000D03*
%TO.P,C6,1*%
%TO.N,/Reg3SigIn*%
X137898000Y-66580000D03*
%TD*%
D28*
%TO.N,GND*%
X111640000Y-53570000D03*
X107090000Y-67890000D03*
X107290000Y-83560000D03*
X111890000Y-101030000D03*
X126090000Y-68460000D03*
X137690000Y-59580000D03*
X126110000Y-59700000D03*
%TO.N,/Reg1MonOut*%
X116830000Y-90330000D03*
X116830000Y-88380000D03*
X116840000Y-76950000D03*
X116860000Y-75490000D03*
X116860000Y-66290000D03*
X116870000Y-64060000D03*
%TO.N,/Reg3MonOut*%
X114000000Y-93080000D03*
X112760000Y-91820000D03*
X102500000Y-86340000D03*
X104310000Y-86200000D03*
%TO.N,/Reg2MonOut*%
X114940000Y-92720000D03*
X113450000Y-91270000D03*
%TO.N,+15V*%
X104950000Y-74700000D03*
X103070000Y-74710000D03*
%TO.N,/Reg1Out*%
X122280000Y-56110000D03*
X120250000Y-56110000D03*
%TO.N,/RegChambOut*%
X129180000Y-75470000D03*
X129210000Y-76870000D03*
%TO.N,/Reg2Out*%
X122250000Y-64630000D03*
X122260000Y-65960000D03*
%TO.N,+15V*%
X144000000Y-68350000D03*
%TO.N,/ChambSigIn*%
X139450000Y-60340000D03*
X141100000Y-60320000D03*
X142450000Y-59100000D03*
X143875000Y-59025000D03*
%TO.N,/Reg3SigIn*%
X139240000Y-63940000D03*
X141350000Y-63970000D03*
X143150000Y-62120000D03*
X144380000Y-60890000D03*
%TO.N,GND*%
X139530000Y-66540000D03*
X164370000Y-55840000D03*
%TO.N,+5V*%
X148000000Y-96000000D03*
X149200000Y-96000000D03*
%TO.N,/12*%
X142385000Y-55785000D03*
X145600000Y-57000000D03*
%TO.N,/2*%
X164600000Y-88000000D03*
X162600000Y-90000000D03*
%TO.N,/\u002A6*%
X146800000Y-65800000D03*
X146800000Y-68000000D03*
X145400000Y-85000000D03*
X147000000Y-86600000D03*
X146824265Y-57375735D03*
X146775735Y-59024265D03*
%TO.N,/\u002A5*%
X151200000Y-60600000D03*
X152424265Y-61824265D03*
%TO.N,+15V*%
X151424265Y-61975735D03*
X129900000Y-64390000D03*
X150400000Y-63000000D03*
X137530000Y-65190000D03*
X141350000Y-65150000D03*
X131700000Y-64990000D03*
%TO.N,Net-(J11-Pin_2)*%
X145400000Y-87200000D03*
X143800000Y-87200000D03*
%TO.N,/RegChambOut*%
X130485735Y-65880000D03*
X130485735Y-67224265D03*
%TO.N,Net-(J10-Pin_1)*%
X143800000Y-86200000D03*
X145400000Y-86200000D03*
%TO.N,/Reg1MonOut*%
X152800000Y-100000000D03*
X147200000Y-100600000D03*
X155407108Y-99992892D03*
X145800000Y-102000000D03*
%TO.N,/JoyDigi2*%
X152600000Y-106000000D03*
%TO.N,+15V*%
X145200000Y-68400000D03*
%TD*%
D29*
%TO.N,/RegChambOut*%
X130485735Y-65880000D02*
X130500000Y-65865735D01*
X130500000Y-64280000D02*
X135700000Y-59080000D01*
X135700000Y-59080000D02*
X135700000Y-58990000D01*
X130500000Y-65865735D02*
X130500000Y-64280000D01*
%TO.N,GND*%
X126090000Y-68220000D02*
X126090000Y-68460000D01*
X126100000Y-68210000D02*
X126090000Y-68220000D01*
X126100000Y-67442000D02*
X126100000Y-68210000D01*
X137690000Y-60578000D02*
X137690000Y-59580000D01*
X126100000Y-59710000D02*
X126110000Y-59700000D01*
X126100000Y-60778000D02*
X126100000Y-59710000D01*
%TO.N,/Reg1MonOut*%
X116830000Y-93630000D02*
X125200000Y-102000000D01*
X116830000Y-90330000D02*
X116830000Y-93630000D01*
X116840000Y-88370000D02*
X116830000Y-88380000D01*
X116840000Y-76950000D02*
X116840000Y-88370000D01*
X116860000Y-66290000D02*
X116860000Y-75490000D01*
X116870000Y-64160000D02*
X116870000Y-64060000D01*
X114690000Y-61980000D02*
X116870000Y-64160000D01*
X114690000Y-55910000D02*
X114690000Y-61980000D01*
%TO.N,/Reg2Out*%
X122220000Y-64660000D02*
X116310000Y-64660000D01*
X116310000Y-64660000D02*
X111970000Y-60320000D01*
X122250000Y-64630000D02*
X122220000Y-64660000D01*
%TO.N,/Reg3MonOut*%
X164200000Y-103765686D02*
X164200000Y-100700000D01*
X125720000Y-104800000D02*
X163165686Y-104800000D01*
X163165686Y-104800000D02*
X164200000Y-103765686D01*
X164200000Y-100700000D02*
X160960000Y-97460000D01*
X114000000Y-93080000D02*
X125720000Y-104800000D01*
X112740000Y-91820000D02*
X112760000Y-91820000D01*
X110520000Y-89600000D02*
X112740000Y-91820000D01*
X103550000Y-89600000D02*
X110520000Y-89600000D01*
X102840000Y-88890000D02*
X103550000Y-89600000D01*
X102500000Y-88550000D02*
X102840000Y-88890000D01*
X102500000Y-86340000D02*
X102500000Y-88550000D01*
X104310000Y-86200000D02*
X104340000Y-86200000D01*
X104310000Y-86170000D02*
X104310000Y-86200000D01*
%TO.N,/Reg2MonOut*%
X110920000Y-88740000D02*
X113450000Y-91270000D01*
X103200000Y-88170000D02*
X103770000Y-88740000D01*
X103200000Y-82290000D02*
X103200000Y-88170000D01*
X103770000Y-88740000D02*
X110920000Y-88740000D01*
X104140000Y-70200000D02*
X104140000Y-81350000D01*
X104140000Y-81350000D02*
X103200000Y-82290000D01*
X163800000Y-101800000D02*
X163000000Y-101000000D01*
X163000000Y-101000000D02*
X161960000Y-101000000D01*
X126420000Y-104200000D02*
X163200000Y-104200000D01*
X163800000Y-103600000D02*
X163800000Y-101800000D01*
X114940000Y-92720000D02*
X126420000Y-104200000D01*
X163200000Y-104200000D02*
X163800000Y-103600000D01*
X161960000Y-101000000D02*
X158420000Y-97460000D01*
%TO.N,+15V*%
X105900000Y-97540000D02*
X108000000Y-97540000D01*
X101410000Y-93070000D02*
X105890000Y-97550000D01*
X101410000Y-82500000D02*
X101410000Y-93070000D01*
X103090000Y-80820000D02*
X101410000Y-82500000D01*
X103070000Y-80800000D02*
X103090000Y-80820000D01*
X105890000Y-97550000D02*
X105900000Y-97540000D01*
X103070000Y-74710000D02*
X103070000Y-80800000D01*
X111480000Y-81230000D02*
X112030000Y-81230000D01*
X104950000Y-74700000D02*
X111480000Y-81230000D01*
X102200000Y-73840000D02*
X103070000Y-74710000D01*
X102200000Y-70500000D02*
X102200000Y-73840000D01*
X102160000Y-70320000D02*
X102160000Y-70460000D01*
X102180000Y-67190000D02*
X102180000Y-70300000D01*
X104050000Y-65320000D02*
X102180000Y-67190000D01*
X102180000Y-70300000D02*
X102160000Y-70320000D01*
X102160000Y-70460000D02*
X102200000Y-70500000D01*
X109680000Y-65320000D02*
X104050000Y-65320000D01*
X104460000Y-60100000D02*
X109680000Y-65320000D01*
X109680000Y-65320000D02*
X111970000Y-65320000D01*
X104460000Y-51240000D02*
X104460000Y-60100000D01*
X106290000Y-49410000D02*
X104460000Y-51240000D01*
X108000000Y-49410000D02*
X106290000Y-49410000D01*
%TO.N,/Reg1MonOut*%
X114670000Y-55890000D02*
X114690000Y-55910000D01*
X114670000Y-53580000D02*
X114670000Y-55890000D01*
%TO.N,/Reg1Out*%
X122620000Y-56450000D02*
X128080000Y-56450000D01*
X122280000Y-56110000D02*
X122620000Y-56450000D01*
X115960000Y-51820000D02*
X120250000Y-56110000D01*
X113420000Y-51820000D02*
X115960000Y-51820000D01*
X111930000Y-50330000D02*
X113420000Y-51820000D01*
X111930000Y-46410000D02*
X111930000Y-50330000D01*
X109930000Y-44410000D02*
X111930000Y-46410000D01*
X108000000Y-44410000D02*
X109930000Y-44410000D01*
%TO.N,/Reg1SigIn*%
X125232000Y-61642000D02*
X126100000Y-61642000D01*
X124650000Y-59570000D02*
X124650000Y-61060000D01*
X124650000Y-61060000D02*
X125232000Y-61642000D01*
X113870000Y-51280000D02*
X116360000Y-51280000D01*
X116360000Y-51280000D02*
X124650000Y-59570000D01*
X113170000Y-50580000D02*
X113870000Y-51280000D01*
X113170000Y-45620000D02*
X113170000Y-50580000D01*
X115260000Y-43530000D02*
X113170000Y-45620000D01*
X150610000Y-43530000D02*
X115260000Y-43530000D01*
X152930000Y-45850000D02*
X150610000Y-43530000D01*
X152930000Y-45880000D02*
X152930000Y-45850000D01*
D30*
%TO.N,/Reg1MonIn*%
X109390000Y-54410000D02*
X110890000Y-55910000D01*
X108000000Y-54410000D02*
X109390000Y-54410000D01*
X110890000Y-55910000D02*
X111730000Y-55910000D01*
D29*
%TO.N,/RegChambOut*%
X129180000Y-74140000D02*
X130485735Y-72834265D01*
X130485735Y-72834265D02*
X130485735Y-67224265D01*
X129180000Y-75470000D02*
X129180000Y-74140000D01*
X113540000Y-92540000D02*
X129210000Y-76870000D01*
X108000000Y-92540000D02*
X113540000Y-92540000D01*
%TO.N,/Reg3MonOut*%
X104320000Y-86180000D02*
X104310000Y-86170000D01*
X104320000Y-83550000D02*
X104330000Y-83540000D01*
X104320000Y-86180000D02*
X104320000Y-83550000D01*
%TO.N,/Reg3MonIn*%
X107280000Y-86180000D02*
X111980000Y-86180000D01*
X111980000Y-86180000D02*
X112030000Y-86230000D01*
%TO.N,/Reg2MonOut*%
X104140000Y-67910000D02*
X104140000Y-70200000D01*
%TO.N,/Reg2MonIn*%
X107100000Y-70200000D02*
X111850000Y-70200000D01*
X111850000Y-70200000D02*
X111970000Y-70320000D01*
%TO.N,/Reg3Out*%
X131160000Y-76230000D02*
X131200000Y-76190000D01*
X112030000Y-76230000D02*
X131160000Y-76230000D01*
%TO.N,/RegChambMonOut*%
X164600000Y-99800000D02*
X163500000Y-98700000D01*
X163500000Y-98700000D02*
X163500000Y-97460000D01*
X164600000Y-104000000D02*
X164600000Y-99800000D01*
X125600000Y-105400000D02*
X163200000Y-105400000D01*
X114930000Y-100900000D02*
X121100000Y-100900000D01*
X121100000Y-100900000D02*
X125600000Y-105400000D01*
X163200000Y-105400000D02*
X164600000Y-104000000D01*
X114930000Y-100900000D02*
X114930000Y-103300000D01*
%TO.N,/RegChambMonIn*%
X110330000Y-103300000D02*
X111970000Y-103300000D01*
X109570000Y-102540000D02*
X110330000Y-103300000D01*
X108000000Y-102540000D02*
X109570000Y-102540000D01*
%TO.N,/Reg2Out*%
X125450000Y-69150000D02*
X122260000Y-65960000D01*
X128080000Y-69150000D02*
X125450000Y-69150000D01*
%TO.N,+15V*%
X124680000Y-64070000D02*
X128080000Y-64070000D01*
X111970000Y-65320000D02*
X123430000Y-65320000D01*
X123430000Y-65320000D02*
X124680000Y-64070000D01*
X142060000Y-65860000D02*
X141350000Y-65150000D01*
X142060000Y-69630000D02*
X142060000Y-65860000D01*
X143340000Y-68350000D02*
X142060000Y-69630000D01*
X144000000Y-68350000D02*
X143340000Y-68350000D01*
%TO.N,/Reg2SigIn*%
X128048000Y-66578000D02*
X128080000Y-66610000D01*
X126100000Y-66578000D02*
X128048000Y-66578000D01*
%TO.N,/Reg1SigIn*%
X127968000Y-61642000D02*
X128080000Y-61530000D01*
X126100000Y-61642000D02*
X127968000Y-61642000D01*
%TO.N,/ChambSigIn*%
X137602000Y-61530000D02*
X137690000Y-61442000D01*
X135700000Y-61530000D02*
X137602000Y-61530000D01*
X138348000Y-61442000D02*
X139450000Y-60340000D01*
X137690000Y-61442000D02*
X138348000Y-61442000D01*
X141230000Y-60320000D02*
X141100000Y-60320000D01*
X142450000Y-59100000D02*
X141230000Y-60320000D01*
X139510000Y-44990000D02*
X139510000Y-45930000D01*
X140340000Y-44160000D02*
X139510000Y-44990000D01*
X142420000Y-44160000D02*
X140340000Y-44160000D01*
X142780000Y-47650000D02*
X142780000Y-44520000D01*
X142780000Y-44520000D02*
X142420000Y-44160000D01*
X143280000Y-48150000D02*
X142780000Y-47650000D01*
X143280000Y-50195686D02*
X143280000Y-48150000D01*
X143875000Y-59025000D02*
X144240000Y-58660000D01*
X144240000Y-58660000D02*
X144240000Y-51155686D01*
X144240000Y-51155686D02*
X143280000Y-50195686D01*
%TO.N,/Reg3SigIn*%
X144810000Y-60460000D02*
X144380000Y-60890000D01*
X144810000Y-51160000D02*
X144810000Y-60460000D01*
X144260000Y-46590000D02*
X144260000Y-50610000D01*
X144260000Y-50610000D02*
X144810000Y-51160000D01*
X137868000Y-66610000D02*
X137898000Y-66580000D01*
X135700000Y-66610000D02*
X137868000Y-66610000D01*
%TO.N,GND*%
X139490000Y-66580000D02*
X139530000Y-66540000D01*
X138762000Y-66580000D02*
X139490000Y-66580000D01*
%TO.N,/Reg3SigIn*%
X137898000Y-66580000D02*
X137898000Y-66210529D01*
X137898000Y-66210529D02*
X139240000Y-64868529D01*
X139240000Y-64868529D02*
X139240000Y-63940000D01*
D30*
%TO.N,GND*%
X139530000Y-66540000D02*
X139480000Y-66590000D01*
D29*
%TO.N,+15V*%
X137530000Y-65190000D02*
X131900000Y-65190000D01*
X131900000Y-65190000D02*
X131700000Y-64990000D01*
%TO.N,/Reg3SigIn*%
X143150000Y-62170000D02*
X141350000Y-63970000D01*
X143150000Y-62120000D02*
X143150000Y-62170000D01*
%TO.N,/8*%
X141656000Y-53856000D02*
X141656000Y-49200000D01*
X143100000Y-55300000D02*
X141656000Y-53856000D01*
X143100000Y-60730000D02*
X143100000Y-55300000D01*
X148600000Y-95400000D02*
X144600000Y-91400000D01*
X144600000Y-62230000D02*
X143100000Y-60730000D01*
X148600000Y-98200000D02*
X148600000Y-95400000D01*
X144600000Y-91400000D02*
X144600000Y-62230000D01*
X146200000Y-100600000D02*
X148600000Y-98200000D01*
%TO.N,/12*%
X138000000Y-51400000D02*
X133696000Y-51400000D01*
X133696000Y-51400000D02*
X131496000Y-49200000D01*
X142385000Y-55785000D02*
X138000000Y-51400000D01*
%TO.N,/Reg2SigIn*%
X118280000Y-52340000D02*
X126430000Y-52340000D01*
X117400000Y-51460000D02*
X118280000Y-52340000D01*
X117400000Y-47520000D02*
X117400000Y-51460000D01*
X126430000Y-52340000D02*
X128280000Y-54190000D01*
X119070000Y-45850000D02*
X117400000Y-47520000D01*
X131110000Y-45850000D02*
X119070000Y-45850000D01*
X128280000Y-54190000D02*
X135300000Y-54190000D01*
X130720000Y-66610000D02*
X128080000Y-66610000D01*
X139470000Y-67790000D02*
X131900000Y-67790000D01*
X140280000Y-66980000D02*
X139470000Y-67790000D01*
X135300000Y-54190000D02*
X140280000Y-59170000D01*
X140280000Y-59170000D02*
X140280000Y-66980000D01*
X131900000Y-67790000D02*
X130720000Y-66610000D01*
%TO.N,/\u002A3*%
X155890000Y-47710000D02*
X155890000Y-45880000D01*
X155880000Y-47720000D02*
X155890000Y-47710000D01*
D30*
%TO.N,/\u002A9*%
X141420000Y-46896000D02*
X141420000Y-45920000D01*
X139116000Y-49200000D02*
X141420000Y-46896000D01*
%TO.N,/\u002A10*%
X136576000Y-45956000D02*
X136550000Y-45930000D01*
X136576000Y-49200000D02*
X136576000Y-45956000D01*
%TO.N,/\u002A11*%
X134036000Y-45884000D02*
X134070000Y-45850000D01*
X134036000Y-49200000D02*
X134036000Y-45884000D01*
D29*
%TO.N,+15V*%
X141350000Y-65150000D02*
X141350000Y-65160000D01*
D30*
%TO.N,GND*%
X164400000Y-55870000D02*
X164370000Y-55840000D01*
X164400000Y-56800000D02*
X164400000Y-55870000D01*
D29*
%TO.N,+5V*%
X138100000Y-91400000D02*
X138100000Y-97460000D01*
X154300000Y-92900000D02*
X157200000Y-95800000D01*
X139800000Y-100600000D02*
X144441200Y-100600000D01*
X138100000Y-98900000D02*
X139800000Y-100600000D01*
X152300000Y-92900000D02*
X149200000Y-96000000D01*
X144441200Y-99958800D02*
X144441200Y-100600000D01*
X159700000Y-99800000D02*
X162500000Y-102600000D01*
X146200000Y-99200000D02*
X145200000Y-99200000D01*
X148000000Y-96000000D02*
X147200000Y-96800000D01*
X147200000Y-98200000D02*
X146200000Y-99200000D01*
X157200000Y-95800000D02*
X157200000Y-98400000D01*
X138100000Y-97460000D02*
X138100000Y-98900000D01*
X154300000Y-92900000D02*
X152300000Y-92900000D01*
X157200000Y-98400000D02*
X158600000Y-99800000D01*
X145200000Y-99200000D02*
X144441200Y-99958800D01*
X147200000Y-96800000D02*
X147200000Y-98200000D01*
X154300000Y-91400000D02*
X154300000Y-92900000D01*
X158600000Y-99800000D02*
X159700000Y-99800000D01*
%TO.N,/12*%
X153100000Y-64500000D02*
X159875000Y-64500000D01*
X145600000Y-57000000D02*
X153100000Y-64500000D01*
%TO.N,/8*%
X145558800Y-100600000D02*
X146200000Y-100600000D01*
X146200000Y-100600000D02*
X148200000Y-102600000D01*
X148200000Y-102600000D02*
X150000000Y-102600000D01*
%TO.N,/2*%
X165600000Y-49000000D02*
X165600000Y-59600000D01*
X153200000Y-90000000D02*
X151800000Y-91400000D01*
X164800000Y-66800000D02*
X164800000Y-87800000D01*
X163800000Y-65800000D02*
X164800000Y-66800000D01*
X165600000Y-59600000D02*
X163800000Y-61400000D01*
X163800000Y-61400000D02*
X163800000Y-65800000D01*
X160020000Y-47600000D02*
X164200000Y-47600000D01*
X158420000Y-49200000D02*
X160020000Y-47600000D01*
X164800000Y-87800000D02*
X164600000Y-88000000D01*
X162600000Y-90000000D02*
X153200000Y-90000000D01*
X164200000Y-47600000D02*
X165600000Y-49000000D01*
%TO.N,/\u002A6*%
X149300000Y-88900000D02*
X147000000Y-86600000D01*
X146824265Y-57375735D02*
X146824265Y-52375735D01*
X146824265Y-52375735D02*
X148260000Y-50940000D01*
X145400000Y-85000000D02*
X145400000Y-69400000D01*
X148260000Y-50940000D02*
X148260000Y-49200000D01*
X149300000Y-91400000D02*
X149300000Y-88900000D01*
X146800000Y-59000000D02*
X146775735Y-59024265D01*
X146800000Y-65800000D02*
X146800000Y-59000000D01*
X145400000Y-69400000D02*
X146800000Y-68000000D01*
%TO.N,/\u002A5*%
X150800000Y-60200000D02*
X150800000Y-49200000D01*
X162000000Y-64800000D02*
X162000000Y-63800000D01*
X151200000Y-60600000D02*
X150800000Y-60200000D01*
X162000000Y-63800000D02*
X161400000Y-63200000D01*
X159875000Y-67000000D02*
X159875000Y-66925000D01*
X153800000Y-63200000D02*
X152424265Y-61824265D01*
X159875000Y-66925000D02*
X162000000Y-64800000D01*
X161400000Y-63200000D02*
X153800000Y-63200000D01*
%TO.N,/\u002A3*%
X155880000Y-49200000D02*
X155880000Y-47720000D01*
%TO.N,+15V*%
X159875000Y-58450000D02*
X163614000Y-58450000D01*
X129580000Y-64070000D02*
X129700000Y-64190000D01*
X159875000Y-58450000D02*
X154950000Y-58450000D01*
X150400000Y-63000000D02*
X150400000Y-63200000D01*
X163614000Y-58450000D02*
X164400000Y-57664000D01*
X154950000Y-58450000D02*
X151424265Y-61975735D01*
X129700000Y-64190000D02*
X129900000Y-64390000D01*
X150400000Y-63200000D02*
X145200000Y-68400000D01*
X128080000Y-64070000D02*
X129580000Y-64070000D01*
%TO.N,Net-(J11-Pin_2)*%
X160950000Y-85250000D02*
X161175000Y-85025000D01*
X145400000Y-87200000D02*
X147350000Y-85250000D01*
X139800000Y-87200000D02*
X143800000Y-87200000D01*
X159875000Y-81325000D02*
X159875000Y-81600000D01*
X160800000Y-73000000D02*
X162400000Y-74600000D01*
X159875000Y-73000000D02*
X160800000Y-73000000D01*
X152400000Y-67200000D02*
X158200000Y-73000000D01*
X158200000Y-73000000D02*
X159875000Y-73000000D01*
X161175000Y-85025000D02*
X161175000Y-82900000D01*
X161175000Y-82900000D02*
X159875000Y-81600000D01*
X147350000Y-85250000D02*
X160950000Y-85250000D01*
X135600000Y-91400000D02*
X139800000Y-87200000D01*
X162400000Y-74600000D02*
X162400000Y-78800000D01*
X162400000Y-78800000D02*
X159875000Y-81325000D01*
X131800000Y-91400000D02*
X135600000Y-91400000D01*
%TO.N,/RegChambOut*%
X135700000Y-56450000D02*
X135700000Y-58990000D01*
%TO.N,/Reg1Out*%
X128080000Y-56450000D02*
X128080000Y-58990000D01*
%TO.N,/Reg2Out*%
X128080000Y-69150000D02*
X128080000Y-71690000D01*
%TO.N,/Reg3Out*%
X131200000Y-76190000D02*
X135700000Y-71690000D01*
X135700000Y-69150000D02*
X135700000Y-71690000D01*
%TO.N,/Reg3SigIn*%
X135300000Y-66210000D02*
X135700000Y-66610000D01*
%TO.N,Net-(J10-Pin_1)*%
X159700000Y-75500000D02*
X158200000Y-77000000D01*
X145400000Y-86200000D02*
X150252200Y-81347800D01*
X156747800Y-81347800D02*
X158500000Y-83100000D01*
X142000000Y-86200000D02*
X143800000Y-86200000D01*
X150252200Y-81347800D02*
X152400000Y-81347800D01*
X158200000Y-77000000D02*
X158200000Y-82800000D01*
X159875000Y-84100000D02*
X159500000Y-84100000D01*
X159500000Y-84100000D02*
X158500000Y-83100000D01*
X159875000Y-75500000D02*
X159700000Y-75500000D01*
X158500000Y-83100000D02*
X158200000Y-82800000D01*
X141400000Y-85600000D02*
X142000000Y-86200000D01*
X136275000Y-85600000D02*
X141400000Y-85600000D01*
X152400000Y-81347800D02*
X156747800Y-81347800D01*
%TO.N,Net-(J10-Pin_2)*%
X129300000Y-91400000D02*
X129300000Y-88900000D01*
X132600000Y-85600000D02*
X133735000Y-85600000D01*
X129300000Y-88900000D02*
X132600000Y-85600000D01*
%TO.N,/JoyAnalog1*%
X151460000Y-97460000D02*
X155000000Y-101000000D01*
X155000000Y-101000000D02*
X155000000Y-102600000D01*
X150800000Y-97460000D02*
X151460000Y-97460000D01*
%TO.N,/Reg1MonOut*%
X147800000Y-100000000D02*
X147200000Y-100600000D01*
X155407108Y-99992892D02*
X155880000Y-99520000D01*
X152800000Y-100000000D02*
X147800000Y-100000000D01*
X125200000Y-102000000D02*
X145800000Y-102000000D01*
X155880000Y-99520000D02*
X155880000Y-97460000D01*
%TO.N,/JoyAnalog2*%
X153340000Y-98774314D02*
X157165686Y-102600000D01*
X157165686Y-102600000D02*
X157500000Y-102600000D01*
X153340000Y-97460000D02*
X153340000Y-98774314D01*
%TO.N,/JoyDigi2*%
X163400000Y-60600000D02*
X165200000Y-58800000D01*
X152800000Y-106200000D02*
X163600000Y-106200000D01*
X165200000Y-58800000D02*
X165200000Y-50900000D01*
X165200000Y-104600000D02*
X165200000Y-94600000D01*
X165200000Y-94600000D02*
X163400000Y-92800000D01*
X163600000Y-106200000D02*
X165200000Y-104600000D01*
X165200000Y-50900000D02*
X163500000Y-49200000D01*
X152600000Y-106000000D02*
X152800000Y-106200000D01*
X163400000Y-92800000D02*
X163400000Y-60600000D01*
%TD*%
D31*
X166078000Y-43940000D02*
X166040000Y-59360000D01*
X166040000Y-59360000D02*
X168580000Y-61900000D01*
X100000000Y-99238000D02*
X100000000Y-47422000D01*
X166040000Y-98730000D02*
X166040386Y-105908823D01*
X100000000Y-45742000D02*
X100000000Y-47422000D01*
X163538000Y-41400000D02*
X100760155Y-41400993D01*
X100739737Y-106617112D02*
G75*
G02*
X99999984Y-105850002I131563J867112D01*
G01*
X168580000Y-61900000D02*
X168580000Y-96190000D01*
X166040386Y-105908823D02*
G75*
G02*
X165254816Y-106623215I-807486J98823D01*
G01*
X165254815Y-106623185D02*
X100738815Y-106623185D01*
X100000000Y-99238000D02*
X100000000Y-105850000D01*
X100000000Y-42200000D02*
X100000000Y-45742000D01*
X168580000Y-96190000D02*
X166040000Y-98730000D01*
X100000000Y-42200000D02*
G75*
G02*
X100760155Y-41400993I800000J0D01*
G01*
X163538000Y-41400000D02*
X166078000Y-43940000D01*
M02*
