%TF.GenerationSoftware,KiCad,Pcbnew,8.0.3*%
%TF.CreationDate,2024-08-23T15:24:12-04:00*%
%TF.ProjectId,vine_robot_arduino_shield,76696e65-5f72-46f6-926f-745f61726475,rev?*%
%TF.SameCoordinates,Original*%
%TF.FileFunction,Legend,Bot*%
%TF.FilePolarity,Positive*%
%FSLAX46Y46*%
G04 Gerber Fmt 4.6, Leading zero omitted, Abs format (unit mm)*
G04 Created by KiCad (PCBNEW 8.0.3) date 2024-08-23 15:24:12*
%MOMM*%
%LPD*%
G01*
G04 APERTURE LIST*
G04 Aperture macros list*
%AMRoundRect*
0 Rectangle with rounded corners*
0 $1 Rounding radius*
0 $2 $3 $4 $5 $6 $7 $8 $9 X,Y pos of 4 corners*
0 Add a 4 corners polygon primitive as box body*
4,1,4,$2,$3,$4,$5,$6,$7,$8,$9,$2,$3,0*
0 Add four circle primitives for the rounded corners*
1,1,$1+$1,$2,$3*
1,1,$1+$1,$4,$5*
1,1,$1+$1,$6,$7*
1,1,$1+$1,$8,$9*
0 Add four rect primitives between the rounded corners*
20,1,$1+$1,$2,$3,$4,$5,0*
20,1,$1+$1,$4,$5,$6,$7,0*
20,1,$1+$1,$6,$7,$8,$9,0*
20,1,$1+$1,$8,$9,$2,$3,0*%
G04 Aperture macros list end*
%ADD10C,0.150000*%
%ADD11C,0.120000*%
%ADD12C,1.625600*%
%ADD13C,1.371600*%
%ADD14RoundRect,0.250000X0.750000X-0.600000X0.750000X0.600000X-0.750000X0.600000X-0.750000X-0.600000X0*%
%ADD15O,2.000000X1.700000*%
%ADD16RoundRect,0.250000X-0.725000X0.600000X-0.725000X-0.600000X0.725000X-0.600000X0.725000X0.600000X0*%
%ADD17O,1.950000X1.700000*%
%ADD18R,1.700000X1.700000*%
%ADD19O,1.700000X1.700000*%
%ADD20C,3.200000*%
%ADD21RoundRect,0.250000X-0.600000X-0.725000X0.600000X-0.725000X0.600000X0.725000X-0.600000X0.725000X0*%
%ADD22O,1.700000X1.950000*%
%ADD23RoundRect,0.250000X-0.600000X-0.750000X0.600000X-0.750000X0.600000X0.750000X-0.600000X0.750000X0*%
%ADD24O,1.700000X2.000000*%
%ADD25R,1.295400X1.295400*%
%ADD26C,1.295400*%
%TA.AperFunction,Profile*%
%ADD27C,0.150000*%
%TD*%
G04 APERTURE END LIST*
D10*
X125064819Y-97126666D02*
X125779104Y-97126666D01*
X125779104Y-97126666D02*
X125921961Y-97079047D01*
X125921961Y-97079047D02*
X126017200Y-96983809D01*
X126017200Y-96983809D02*
X126064819Y-96840952D01*
X126064819Y-96840952D02*
X126064819Y-96745714D01*
X126064819Y-98126666D02*
X126064819Y-97555238D01*
X126064819Y-97840952D02*
X125064819Y-97840952D01*
X125064819Y-97840952D02*
X125207676Y-97745714D01*
X125207676Y-97745714D02*
X125302914Y-97650476D01*
X125302914Y-97650476D02*
X125350533Y-97555238D01*
X147924819Y-97126666D02*
X148639104Y-97126666D01*
X148639104Y-97126666D02*
X148781961Y-97079047D01*
X148781961Y-97079047D02*
X148877200Y-96983809D01*
X148877200Y-96983809D02*
X148924819Y-96840952D01*
X148924819Y-96840952D02*
X148924819Y-96745714D01*
X147924819Y-97507619D02*
X147924819Y-98126666D01*
X147924819Y-98126666D02*
X148305771Y-97793333D01*
X148305771Y-97793333D02*
X148305771Y-97936190D01*
X148305771Y-97936190D02*
X148353390Y-98031428D01*
X148353390Y-98031428D02*
X148401009Y-98079047D01*
X148401009Y-98079047D02*
X148496247Y-98126666D01*
X148496247Y-98126666D02*
X148734342Y-98126666D01*
X148734342Y-98126666D02*
X148829580Y-98079047D01*
X148829580Y-98079047D02*
X148877200Y-98031428D01*
X148877200Y-98031428D02*
X148924819Y-97936190D01*
X148924819Y-97936190D02*
X148924819Y-97650476D01*
X148924819Y-97650476D02*
X148877200Y-97555238D01*
X148877200Y-97555238D02*
X148829580Y-97507619D01*
X118454819Y-51466666D02*
X119169104Y-51466666D01*
X119169104Y-51466666D02*
X119311961Y-51419047D01*
X119311961Y-51419047D02*
X119407200Y-51323809D01*
X119407200Y-51323809D02*
X119454819Y-51180952D01*
X119454819Y-51180952D02*
X119454819Y-51085714D01*
X118550057Y-51895238D02*
X118502438Y-51942857D01*
X118502438Y-51942857D02*
X118454819Y-52038095D01*
X118454819Y-52038095D02*
X118454819Y-52276190D01*
X118454819Y-52276190D02*
X118502438Y-52371428D01*
X118502438Y-52371428D02*
X118550057Y-52419047D01*
X118550057Y-52419047D02*
X118645295Y-52466666D01*
X118645295Y-52466666D02*
X118740533Y-52466666D01*
X118740533Y-52466666D02*
X118883390Y-52419047D01*
X118883390Y-52419047D02*
X119454819Y-51847619D01*
X119454819Y-51847619D02*
X119454819Y-52466666D01*
X142254819Y-51266666D02*
X142969104Y-51266666D01*
X142969104Y-51266666D02*
X143111961Y-51219047D01*
X143111961Y-51219047D02*
X143207200Y-51123809D01*
X143207200Y-51123809D02*
X143254819Y-50980952D01*
X143254819Y-50980952D02*
X143254819Y-50885714D01*
X142588152Y-52171428D02*
X143254819Y-52171428D01*
X142207200Y-51933333D02*
X142921485Y-51695238D01*
X142921485Y-51695238D02*
X142921485Y-52314285D01*
D11*
%TO.C,J1*%
X126610000Y-96130000D02*
X127940000Y-96130000D01*
X126610000Y-97460000D02*
X126610000Y-96130000D01*
X129210000Y-98790000D02*
X129210000Y-96130000D01*
X147050000Y-96130000D02*
X129210000Y-96130000D01*
X147050000Y-98790000D02*
X129210000Y-98790000D01*
X147050000Y-98790000D02*
X147050000Y-96130000D01*
%TO.C,J3*%
X149470000Y-96130000D02*
X150800000Y-96130000D01*
X149470000Y-97460000D02*
X149470000Y-96130000D01*
X152070000Y-98790000D02*
X152070000Y-96130000D01*
X164830000Y-96130000D02*
X152070000Y-96130000D01*
X164830000Y-98790000D02*
X152070000Y-98790000D01*
X164830000Y-98790000D02*
X164830000Y-96130000D01*
%TO.C,J2*%
X117466000Y-47870000D02*
X118796000Y-47870000D01*
X117466000Y-49200000D02*
X117466000Y-47870000D01*
X120066000Y-50530000D02*
X120066000Y-47870000D01*
X142986000Y-47870000D02*
X120066000Y-47870000D01*
X142986000Y-50530000D02*
X120066000Y-50530000D01*
X142986000Y-50530000D02*
X142986000Y-47870000D01*
%TO.C,J4*%
X144390000Y-47870000D02*
X145720000Y-47870000D01*
X144390000Y-49200000D02*
X144390000Y-47870000D01*
X146990000Y-50530000D02*
X146990000Y-47870000D01*
X164830000Y-47870000D02*
X146990000Y-47870000D01*
X164830000Y-50530000D02*
X146990000Y-50530000D01*
X164830000Y-50530000D02*
X164830000Y-47870000D01*
%TD*%
%LPC*%
D12*
%TO.C,D1*%
X152400000Y-81347800D03*
X152400000Y-67200000D03*
%TD*%
D13*
%TO.C,C2*%
X142060000Y-69630000D03*
X142060000Y-73130001D03*
%TD*%
D14*
%TO.C,Solenoid*%
X159875000Y-75500000D03*
D15*
X159875000Y-73000000D03*
%TD*%
D14*
%TO.C,M_DRV_ARD*%
X159875000Y-67000000D03*
D15*
X159875000Y-64500000D03*
%TD*%
D14*
%TO.C,M_DRV_PWR*%
X159875000Y-84100000D03*
D15*
X159875000Y-81600000D03*
%TD*%
D14*
%TO.C,R_15V*%
X159875000Y-58450000D03*
D15*
X159875000Y-55950000D03*
%TD*%
D16*
%TO.C,Actuator 1*%
X108000000Y-44410000D03*
D17*
X108000000Y-46910000D03*
X108000000Y-49410000D03*
X108000000Y-51910000D03*
X108000000Y-54410000D03*
%TD*%
D16*
%TO.C,Actuator 2*%
X111970000Y-60320000D03*
D17*
X111970000Y-62820000D03*
X111970000Y-65320000D03*
X111970000Y-67820000D03*
X111970000Y-70320000D03*
%TD*%
D18*
%TO.C,PWR_JMP*%
X136275000Y-85600000D03*
D19*
X133735000Y-85600000D03*
%TD*%
D20*
%TO.C,MH1*%
X115240000Y-49200000D03*
%TD*%
D17*
%TO.C,Actuator 3*%
X112030000Y-86230000D03*
X112030000Y-83730000D03*
X112030000Y-81230000D03*
X112030000Y-78730000D03*
D16*
X112030000Y-76230000D03*
%TD*%
D21*
%TO.C,M_ENC*%
X146800000Y-91400000D03*
D22*
X149300000Y-91400000D03*
X151800000Y-91400000D03*
X154300000Y-91400000D03*
%TD*%
D23*
%TO.C,M_15V*%
X129300000Y-91400000D03*
D24*
X131800000Y-91400000D03*
%TD*%
D23*
%TO.C,M_5V*%
X138100000Y-91400000D03*
D24*
X140600000Y-91400000D03*
%TD*%
D25*
%TO.C,U1*%
X128080000Y-56450000D03*
D26*
X128080000Y-58990000D03*
X128080000Y-61530000D03*
X128080000Y-64070000D03*
X128080000Y-66610000D03*
X128080000Y-69150000D03*
X128080000Y-71690000D03*
X135700000Y-71690000D03*
X135700000Y-69150000D03*
X135700000Y-66610000D03*
X135700000Y-64070000D03*
X135700000Y-61530000D03*
X135700000Y-58990000D03*
X135700000Y-56450000D03*
%TD*%
D20*
%TO.C,MH2*%
X113970000Y-97460000D03*
%TD*%
%TO.C,MH3*%
X166040000Y-64440000D03*
%TD*%
D16*
%TO.C,Chamber*%
X108000000Y-92540000D03*
D17*
X108000000Y-95040000D03*
X108000000Y-97540000D03*
X108000000Y-100040000D03*
X108000000Y-102540000D03*
%TD*%
D20*
%TO.C,MH4*%
X166040000Y-92380000D03*
%TD*%
D21*
%TO.C,Joystick*%
X150000000Y-102600000D03*
D22*
X152500000Y-102600000D03*
X155000000Y-102600000D03*
X157500000Y-102600000D03*
X160000000Y-102600000D03*
X162500000Y-102600000D03*
%TD*%
D18*
%TO.C,J1*%
X127940000Y-97460000D03*
D19*
X130480000Y-97460000D03*
X133020000Y-97460000D03*
X135560000Y-97460000D03*
X138100000Y-97460000D03*
X140640000Y-97460000D03*
X143180000Y-97460000D03*
X145720000Y-97460000D03*
%TD*%
D18*
%TO.C,J3*%
X150800000Y-97460000D03*
D19*
X153340000Y-97460000D03*
X155880000Y-97460000D03*
X158420000Y-97460000D03*
X160960000Y-97460000D03*
X163500000Y-97460000D03*
%TD*%
D18*
%TO.C,J2*%
X118796000Y-49200000D03*
D19*
X121336000Y-49200000D03*
X123876000Y-49200000D03*
X126416000Y-49200000D03*
X128956000Y-49200000D03*
X131496000Y-49200000D03*
X134036000Y-49200000D03*
X136576000Y-49200000D03*
X139116000Y-49200000D03*
X141656000Y-49200000D03*
%TD*%
D18*
%TO.C,J4*%
X145720000Y-49200000D03*
D19*
X148260000Y-49200000D03*
X150800000Y-49200000D03*
X153340000Y-49200000D03*
X155880000Y-49200000D03*
X158420000Y-49200000D03*
X160960000Y-49200000D03*
X163500000Y-49200000D03*
%TD*%
%LPD*%
D27*
X166078000Y-43940000D02*
X166040000Y-59360000D01*
X166040000Y-59360000D02*
X168580000Y-61900000D01*
X100000000Y-99238000D02*
X100000000Y-47422000D01*
X166040000Y-98730000D02*
X166040386Y-105908823D01*
X100000000Y-45742000D02*
X100000000Y-47422000D01*
X163538000Y-41400000D02*
X100760155Y-41400993D01*
X100739737Y-106617112D02*
G75*
G02*
X99999984Y-105850002I131563J867112D01*
G01*
X168580000Y-61900000D02*
X168580000Y-96190000D01*
X166040386Y-105908823D02*
G75*
G02*
X165254816Y-106623215I-807486J98823D01*
G01*
X165254815Y-106623185D02*
X100738815Y-106623185D01*
X100000000Y-99238000D02*
X100000000Y-105850000D01*
X100000000Y-42200000D02*
X100000000Y-45742000D01*
X168580000Y-96190000D02*
X166040000Y-98730000D01*
X100000000Y-42200000D02*
G75*
G02*
X100760155Y-41400993I800000J0D01*
G01*
X163538000Y-41400000D02*
X166078000Y-43940000D01*
M02*
